<?xml version="1.0" encoding="utf-8"?>
<!-- Generator: Adobe Illustrator 16.0.0, SVG Export Plug-In . SVG Version: 6.00 Build 0)  -->
<!DOCTYPE svg PUBLIC "-//W3C//DTD SVG 1.1//EN" "http://www.w3.org/Graphics/SVG/1.1/DTD/svg11.dtd">
<svg version="1.1" id="图层_1" xmlns="http://www.w3.org/2000/svg" xmlns:xlink="http://www.w3.org/1999/xlink" x="0px" y="0px"
	 width="61px" height="61px" viewBox="0 0 44 44" enable-background="new 0 0 44 44" xml:space="preserve">
<g id="YES_1_" enable-background="new    ">
	<g id="YES">
		<g>
			<path fill="#00CD47" d="M31.282,16.891c-0.211-0.019-0.421-0.039-0.631-0.057c0,0.019,0,0.039,0,0.057c-0.058,0-0.115,0-0.173,0
				c-0.019,0.038-0.038,0.076-0.057,0.115c-0.039,0-0.076,0-0.114,0c-0.04,0.058-0.077,0.115-0.115,0.172
				c-0.153,0.134-0.306,0.269-0.46,0.403c-0.43,0.594-0.982,1.04-1.493,1.55c-0.248,0.287-0.496,0.575-0.746,0.862
				c-0.565,0.566-1.188,1.065-1.664,1.724c-0.649,0.631-1.302,1.264-1.952,1.896c0,0.038,0,0.076,0,0.114
				c-0.65,0.633-1.301,1.265-1.951,1.896c-0.263,0.29-0.515,0.717-0.861,0.92c-0.049,0.064,0.008,0.008-0.057,0.057
				c-0.137-0.236-0.386-0.386-0.574-0.574c-0.363-0.384-0.727-0.767-1.091-1.15c-0.019,0-0.038,0-0.058,0
				c-1.282-1.302-2.564-2.604-3.846-3.907c-0.095-0.018-0.191-0.038-0.287-0.056c0-0.02,0-0.04,0-0.058
				c-0.244-0.006-0.457-0.007-0.574,0.113c-0.399,0.1-0.479,0.508-0.459,1.035c0.114,0.099,0.048,0.134,0.115,0.229
				c0.095,0.077,0.191,0.154,0.287,0.23c0.21,0.229,0.421,0.459,0.631,0.689c0.842,0.823,1.684,1.646,2.526,2.47
				c0.306,0.326,0.613,0.651,0.918,0.977c0.536,0.518,1.072,1.034,1.607,1.552c0.019,0.038,0.038,0.076,0.058,0.115
				c0.239,0.239,0.572,0.446,0.747,0.746c0.239-0.065,0.309-0.253,0.459-0.402c0.268-0.249,0.536-0.498,0.804-0.746
				c0-0.04,0-0.077,0-0.115c0.172-0.154,0.344-0.307,0.517-0.46c0.308-0.326,0.613-0.651,0.918-0.977
				c0.172-0.153,0.345-0.307,0.518-0.46c0-0.038,0-0.076,0-0.114c0.364-0.345,0.728-0.689,1.091-1.034
				c0.311-0.311,0.601-0.615,0.861-0.978c0.46-0.439,0.918-0.88,1.378-1.321c0.363-0.402,0.728-0.804,1.091-1.206
				c0.511-0.511,1.063-0.957,1.493-1.551c0.479-0.46,0.956-0.919,1.435-1.379c0-0.039,0-0.077,0-0.115
				c0.038-0.019,0.076-0.039,0.115-0.058c0-0.058,0-0.115,0-0.172c0.019,0,0.038,0,0.058,0c0.001-0.392-0.041-0.668-0.23-0.861
				C31.425,16.975,31.365,17.017,31.282,16.891z M43.453,20.855c-0.038-0.614-0.076-1.227-0.115-1.839c-0.019,0-0.038,0-0.057,0
				c0-0.114,0-0.229,0-0.344c-0.02,0-0.039,0-0.058,0c0-0.115,0-0.23,0-0.344c-0.02,0-0.039,0-0.058,0c0-0.115,0-0.23,0-0.345
				c-0.019,0-0.039,0-0.057,0c0-0.096,0-0.191,0-0.287c-0.02,0-0.039,0-0.058,0c0-0.096,0-0.191,0-0.287c-0.02,0-0.039,0-0.058,0
				c0-0.076,0-0.153,0-0.23c-0.019,0-0.039,0-0.058,0c0-0.096,0-0.192,0-0.287c-0.019,0-0.038,0-0.058,0c0-0.076,0-0.154,0-0.23
				c-0.019,0-0.038,0-0.058,0c-0.038-0.21-0.075-0.421-0.114-0.632c-0.019,0-0.038,0-0.058,0c0-0.058,0-0.115,0-0.172
				c-0.018,0-0.038,0-0.058,0c0-0.057,0-0.114,0-0.171c-0.018,0-0.037,0-0.057,0c0-0.076,0-0.154,0-0.23c-0.018,0-0.038,0-0.058,0
				c0-0.058,0-0.115,0-0.172c-0.018,0-0.038,0-0.058,0c0-0.058,0-0.114,0-0.172c-0.018,0-0.038,0-0.056,0c0-0.057,0-0.115,0-0.172
				c-0.02,0-0.04,0-0.058,0c0-0.058,0-0.115,0-0.172c-0.02,0-0.039,0-0.058,0c0-0.038,0-0.076,0-0.115c-0.02,0-0.039,0-0.058,0
				c-0.02-0.114-0.039-0.229-0.058-0.344c-0.02,0-0.037,0-0.057,0c0-0.039,0-0.076,0-0.115c-0.02,0-0.038,0-0.058,0
				c0-0.058,0-0.115,0-0.172c-0.02,0-0.038,0-0.058,0c0-0.038,0-0.076,0-0.114c-0.019,0-0.038,0-0.058,0c0-0.058,0-0.115,0-0.172
				c-0.019,0-0.038,0-0.058,0c-0.019-0.076-0.038-0.154-0.057-0.23c-0.02,0-0.039,0-0.057,0c0-0.058,0-0.115,0-0.172
				c-0.021,0-0.04,0-0.058,0c-0.02-0.076-0.04-0.153-0.058-0.229c-0.02,0-0.039,0-0.058,0c0-0.039,0-0.076,0-0.115
				c-0.02,0-0.039,0-0.058,0c0-0.058,0-0.115,0-0.172c-0.019,0-0.038,0-0.058,0c-0.038-0.115-0.076-0.229-0.114-0.344
				c-0.019,0-0.038,0-0.058,0c0-0.039,0-0.076,0-0.115c-0.019,0-0.038,0-0.058,0c0-0.039,0-0.077,0-0.115c-0.019,0-0.038,0-0.058,0
				c-0.037-0.115-0.075-0.229-0.114-0.344c-0.038-0.02-0.075-0.039-0.115-0.058c0-0.039,0-0.076,0-0.115c-0.018,0-0.038,0-0.057,0
				c0-0.039,0-0.076,0-0.115c-0.019,0-0.039,0-0.057,0c0-0.039,0-0.077,0-0.115c-0.02,0-0.039,0-0.058,0c0-0.038,0-0.076,0-0.114
				c-0.039-0.02-0.077-0.039-0.115-0.058c-0.039-0.115-0.077-0.229-0.114-0.345c-0.019,0-0.038,0-0.058,0
				c-0.019-0.057-0.038-0.115-0.058-0.172c-0.038-0.019-0.076-0.038-0.113-0.057c-0.021-0.077-0.04-0.153-0.058-0.229
				c-0.04-0.019-0.077-0.039-0.115-0.058c0-0.039,0-0.076,0-0.115c-0.039-0.019-0.076-0.038-0.114-0.057c0-0.038,0-0.076,0-0.115
				c-0.039-0.019-0.077-0.039-0.115-0.058c0-0.038,0-0.076,0-0.114c-0.039-0.02-0.076-0.039-0.115-0.058c0-0.039,0-0.076,0-0.115
				c-0.019,0-0.038,0-0.058,0c-0.019-0.058-0.038-0.115-0.058-0.172c-0.037-0.019-0.074-0.038-0.114-0.058c0-0.038,0-0.076,0-0.115
				c-0.058-0.038-0.114-0.076-0.172-0.114c0-0.039,0-0.077,0-0.115c-0.057-0.039-0.114-0.076-0.172-0.115c0-0.039,0-0.076,0-0.115
				c-0.058-0.038-0.114-0.076-0.172-0.115c0-0.038,0-0.076,0-0.114c-0.076-0.058-0.153-0.115-0.23-0.172c0-0.039,0-0.076,0-0.115
				c-0.075-0.057-0.152-0.115-0.228-0.172c0-0.038,0-0.076,0-0.115c-0.097-0.076-0.193-0.153-0.288-0.229c0-0.039,0-0.076,0-0.115
				c-0.114-0.095-0.229-0.191-0.344-0.287c-0.038-0.057-0.076-0.114-0.114-0.171c-0.02,0-0.039,0-0.058,0c0-0.039,0-0.076,0-0.115
				C37.604,7.153,37.431,7,37.258,6.847c-0.19-0.211-0.382-0.421-0.573-0.632c-0.039,0-0.077,0-0.115,0
				c-0.153-0.172-0.306-0.345-0.459-0.518c-0.039,0-0.077,0-0.115,0c-0.076-0.095-0.152-0.191-0.229-0.286c-0.039,0-0.077,0-0.115,0
				c-0.058-0.076-0.114-0.154-0.172-0.23c-0.039,0-0.077,0-0.115,0c-0.058-0.076-0.115-0.153-0.173-0.229c-0.037,0-0.075,0-0.114,0
				c-0.038-0.058-0.075-0.115-0.114-0.172c-0.039,0-0.075,0-0.115,0c-0.038-0.058-0.075-0.115-0.113-0.172c-0.039,0-0.077,0-0.115,0
				c-0.039-0.058-0.077-0.115-0.115-0.172c-0.037,0-0.076,0-0.114,0c-0.02-0.039-0.038-0.076-0.058-0.114
				c-0.058-0.02-0.114-0.039-0.172-0.058c0-0.02,0-0.039,0-0.057c-0.039,0-0.076,0-0.114,0c-0.02-0.039-0.039-0.076-0.058-0.115
				c-0.058-0.019-0.115-0.039-0.173-0.058c0-0.019,0-0.039,0-0.057c-0.038,0-0.076,0-0.114,0c-0.019-0.038-0.038-0.076-0.058-0.115
				c-0.038,0-0.076,0-0.115,0c-0.018-0.039-0.037-0.076-0.057-0.115c-0.075-0.019-0.153-0.038-0.229-0.057
				c-3.188-2.043-7.055-3.328-12.401-3.217c-0.165,0.147-0.552-0.015-0.803,0.058c0,0.019,0,0.039,0,0.057c-0.191,0-0.383,0-0.574,0
				c0,0.019,0,0.039,0,0.057c-0.153,0-0.307,0-0.46,0c0,0.02,0,0.039,0,0.057c-0.115,0-0.229,0-0.344,0c0,0.02,0,0.039,0,0.058
				c-0.115,0-0.23,0-0.344,0c0,0.02,0,0.039,0,0.058c-0.115,0-0.23,0-0.345,0c0,0.019,0,0.039,0,0.058c-0.095,0-0.191,0-0.287,0
				c0,0.019,0,0.039,0,0.058c-0.095,0-0.192,0-0.286,0c0,0.019,0,0.039,0,0.057c-0.077,0-0.153,0-0.23,0c0,0.019,0,0.038,0,0.058
				c-0.096,0-0.192,0-0.287,0c0,0.019,0,0.038,0,0.057c-0.077,0-0.153,0-0.23,0c0,0.019,0,0.039,0,0.058
				c-0.21,0.038-0.421,0.076-0.631,0.114c0,0.02,0,0.039,0,0.058c-0.058,0-0.115,0-0.172,0c0,0.02,0,0.039,0,0.057
				c-0.058,0-0.115,0-0.172,0c0,0.019,0,0.039,0,0.058c-0.077,0-0.153,0-0.23,0c0,0.019,0,0.039,0,0.058c-0.057,0-0.115,0-0.172,0
				c0,0.019,0,0.039,0,0.057c-0.058,0-0.115,0-0.172,0c0,0.019,0,0.039,0,0.058c-0.057,0-0.115,0-0.172,0c0,0.019,0,0.038,0,0.058
				c-0.058,0-0.115,0-0.172,0c0,0.019,0,0.038,0,0.058c-0.038,0-0.076,0-0.115,0c0,0.019,0,0.038,0,0.057
				c-0.115,0.019-0.23,0.038-0.344,0.057c0,0.02,0,0.039,0,0.058c-0.038,0-0.077,0-0.115,0c0,0.02,0,0.039,0,0.058
				c-0.058,0-0.115,0-0.172,0c0,0.019,0,0.039,0,0.058c-0.038,0-0.076,0-0.115,0c0,0.019,0,0.039,0,0.057c-0.057,0-0.115,0-0.172,0
				C8.26,4.529,4.521,8.278,2.069,13.741c0,0.058,0,0.115,0,0.173c-0.019,0-0.038,0-0.058,0c0,0.038,0,0.076,0,0.114
				c-0.02,0-0.038,0-0.057,0c-0.02,0.097-0.039,0.192-0.058,0.287c-0.019,0-0.038,0-0.058,0C1.82,14.43,1.8,14.545,1.781,14.659
				c-0.019,0-0.038,0-0.057,0c0,0.039,0,0.077,0,0.115c-0.019,0-0.038,0-0.058,0c-0.019,0.115-0.038,0.23-0.057,0.345
				c-0.02,0-0.039,0-0.058,0c0,0.058,0,0.115,0,0.172c-0.019,0-0.038,0-0.058,0c0,0.057,0,0.115,0,0.172c-0.019,0-0.038,0-0.058,0
				c-0.038,0.192-0.076,0.383-0.115,0.574c-0.019,0-0.038,0-0.057,0c-0.039,0.211-0.077,0.422-0.115,0.632c-0.019,0-0.038,0-0.058,0
				c-0.019,0.172-0.039,0.345-0.058,0.517c-0.019,0-0.038,0-0.057,0c0,0.077,0,0.154,0,0.23c-0.019,0-0.038,0-0.057,0
				c0,0.096,0,0.191,0,0.287c-0.019,0-0.039,0-0.058,0c0,0.096,0,0.192,0,0.287c-0.02,0-0.038,0-0.058,0c0,0.115,0,0.23,0,0.345
				c-0.098,0.331-0.131,0.806-0.229,1.149c0,0.192,0,0.383,0,0.574c-0.019,0-0.039,0-0.058,0c-0.02,0.747-0.038,1.494-0.058,2.24
				c0.038,0.747,0.076,1.494,0.115,2.241c0.019,0,0.039,0,0.057,0c0.019,0.268,0.038,0.536,0.057,0.804c0.019,0,0.039,0,0.058,0
				c0,0.115,0,0.23,0,0.345c0.02,0,0.039,0,0.058,0c0,0.115,0,0.229,0,0.344c0.02,0,0.038,0,0.058,0c0,0.097,0,0.192,0,0.288
				c0.019,0,0.038,0,0.058,0c0,0.096,0,0.19,0,0.287c0.019,0,0.039,0,0.057,0c0,0.076,0,0.152,0,0.229c0.02,0,0.038,0,0.057,0
				c0,0.097,0,0.192,0,0.287c0.019,0,0.039,0,0.058,0c0,0.077,0,0.154,0,0.229c0.019,0,0.039,0,0.058,0c0,0.058,0,0.115,0,0.173
				c0.02,0,0.038,0,0.058,0c0,0.075,0,0.152,0,0.229c0.019,0,0.038,0,0.058,0c0,0.076,0,0.153,0,0.229c0.019,0,0.038,0,0.057,0
				c0.039,0.192,0.077,0.384,0.115,0.575c0.019,0,0.039,0,0.058,0c0,0.058,0,0.115,0,0.172c0.02,0,0.039,0,0.058,0
				c0,0.058,0,0.114,0,0.172c0.019,0,0.038,0,0.058,0c0.019,0.115,0.038,0.23,0.057,0.345c0.02,0,0.039,0,0.058,0
				c0,0.039,0,0.076,0,0.115c0.02,0,0.038,0,0.057,0c0.019,0.115,0.039,0.229,0.058,0.344c0.019,0,0.038,0,0.058,0
				c0,0.039,0,0.077,0,0.115c0.019,0,0.038,0,0.058,0c0,0.057,0,0.114,0,0.172c0.019,0,0.038,0,0.057,0c0,0.039,0,0.077,0,0.115
				c0.019,0,0.038,0,0.058,0c0,0.058,0,0.115,0,0.172c0.02,0,0.039,0,0.057,0c0.02,0.076,0.039,0.153,0.058,0.23
				c0.019,0,0.038,0,0.058,0c0,0.057,0,0.114,0,0.172c0.019,0,0.038,0,0.058,0c0.019,0.076,0.038,0.153,0.057,0.229
				c0.019,0,0.038,0,0.058,0c0,0.038,0,0.076,0,0.114c0.019,0,0.038,0,0.057,0c0,0.058,0,0.115,0,0.173c0.02,0,0.039,0,0.058,0
				c0.038,0.114,0.076,0.229,0.115,0.345c0.019,0,0.039,0,0.057,0c0,0.037,0,0.076,0,0.114c0.02,0,0.038,0,0.058,0
				c0,0.038,0,0.076,0,0.114c0.019,0,0.038,0,0.058,0c0.038,0.115,0.076,0.229,0.115,0.345c0.038,0.019,0.076,0.039,0.115,0.058
				c0,0.038,0,0.076,0,0.115c0.019,0,0.038,0,0.057,0c0,0.037,0,0.076,0,0.114c0.019,0,0.038,0,0.058,0c0,0.038,0,0.076,0,0.115
				c0.019,0,0.038,0,0.057,0c0,0.038,0,0.076,0,0.114c0.038,0.019,0.077,0.038,0.115,0.058c0.038,0.114,0.076,0.229,0.115,0.344
				c0.038,0.02,0.076,0.039,0.115,0.058c0,0.039,0,0.076,0,0.115c0.038,0.019,0.076,0.038,0.115,0.058
				c0.019,0.075,0.038,0.152,0.058,0.229c0.038,0.019,0.076,0.038,0.115,0.058c0,0.037,0,0.076,0,0.114
				c0.038,0.02,0.076,0.038,0.115,0.057c0,0.039,0,0.077,0,0.115c0.038,0.019,0.077,0.039,0.115,0.058c0,0.039,0,0.076,0,0.115
				c0.038,0.019,0.076,0.038,0.115,0.057c0,0.039,0,0.076,0,0.115c0.038,0.019,0.076,0.038,0.115,0.058c0,0.038,0,0.076,0,0.114
				c0.038,0.02,0.076,0.038,0.115,0.058c0,0.038,0,0.077,0,0.115c0.057,0.038,0.115,0.075,0.172,0.114c0,0.038,0,0.076,0,0.115
				c0.057,0.038,0.115,0.076,0.172,0.114c0,0.039,0,0.077,0,0.114c0.057,0.039,0.115,0.077,0.172,0.115c0,0.039,0,0.076,0,0.115
				c0.076,0.058,0.153,0.115,0.229,0.173c0,0.037,0,0.075,0,0.114c0.076,0.058,0.153,0.114,0.23,0.172c0,0.038,0,0.077,0,0.114
				c0.096,0.076,0.191,0.154,0.287,0.23c0,0.038,0,0.076,0,0.115c0.115,0.095,0.23,0.19,0.345,0.286
				c0.038,0.058,0.076,0.115,0.115,0.172c0.02,0,0.039,0,0.058,0c0,0.039,0,0.076,0,0.115c0.172,0.153,0.344,0.307,0.517,0.46
				c0.191,0.21,0.383,0.421,0.574,0.632c0.038,0,0.076,0,0.115,0c0.153,0.173,0.306,0.344,0.459,0.517c0.039,0,0.076,0,0.115,0
				c0.076,0.097,0.153,0.191,0.23,0.288c0.038,0,0.076,0,0.115,0c0.058,0.076,0.115,0.152,0.172,0.229c0.038,0,0.076,0,0.115,0
				c0.058,0.076,0.115,0.152,0.173,0.229c0.038,0,0.076,0,0.115,0c0.038,0.058,0.077,0.115,0.115,0.173c0.038,0,0.076,0,0.115,0
				c0.038,0.058,0.076,0.115,0.115,0.172c0.038,0,0.076,0,0.115,0c0.038,0.058,0.076,0.115,0.115,0.173c0.038,0,0.077,0,0.115,0
				c0.019,0.038,0.038,0.075,0.057,0.115c0.058,0.018,0.115,0.037,0.173,0.057c0,0.019,0,0.038,0,0.058c0.039,0,0.077,0,0.115,0
				c0.019,0.038,0.038,0.076,0.057,0.114c0.039,0,0.076,0,0.115,0c0.019,0.038,0.038,0.077,0.058,0.114
				c0.058,0.021,0.115,0.039,0.172,0.058c0,0.02,0,0.039,0,0.058c0.039,0,0.077,0,0.115,0c0.02,0.039,0.038,0.077,0.058,0.115
				c0.076,0.019,0.153,0.039,0.229,0.058c0.019,0.038,0.039,0.075,0.058,0.114c0.058,0.019,0.115,0.038,0.172,0.058
				c0,0.019,0,0.038,0,0.058c0.039,0,0.077,0,0.115,0c0,0.019,0,0.038,0,0.058c0.039,0,0.076,0,0.115,0c0,0.019,0,0.038,0,0.057
				c0.038,0,0.076,0,0.115,0c0.019,0.038,0.038,0.077,0.058,0.115c0.038,0,0.077,0,0.115,0c0,0.02,0,0.038,0,0.058
				c0.038,0,0.076,0,0.115,0c0,0.02,0,0.038,0,0.057c0.038,0,0.076,0,0.115,0c0,0.019,0,0.039,0,0.058c0.038,0,0.076,0,0.115,0
				c0.019,0.039,0.038,0.076,0.058,0.115c0.115,0.038,0.229,0.076,0.345,0.114c0,0.02,0,0.039,0,0.058c0.038,0,0.076,0,0.115,0
				c0,0.019,0,0.039,0,0.058c0.038,0,0.076,0,0.115,0c0,0.019,0,0.038,0,0.057c0.115,0.039,0.229,0.077,0.345,0.115
				c0,0.02,0,0.038,0,0.058c0.057,0,0.115,0,0.172,0c0,0.019,0,0.038,0,0.058c0.039,0,0.076,0,0.115,0c0,0.018,0,0.038,0,0.058
				c0.076,0.018,0.153,0.038,0.229,0.058c0,0.018,0,0.037,0,0.057c0.058,0,0.115,0,0.173,0c0,0.019,0,0.038,0,0.058
				c0.076,0.019,0.153,0.038,0.229,0.057c0,0.02,0,0.039,0,0.058c0.058,0,0.115,0,0.172,0c0,0.02,0,0.039,0,0.058
				c0.038,0,0.076,0,0.115,0c0,0.02,0,0.039,0,0.057c0.096,0.021,0.192,0.04,0.288,0.058c0,0.02,0,0.039,0,0.058
				c0.115,0.019,0.23,0.039,0.344,0.058c0,0.019,0,0.039,0,0.058c0.038,0,0.076,0,0.115,0c0,0.019,0,0.039,0,0.058
				c0.88,0.249,1.761,0.497,2.641,0.746c0.688,0.115,1.377,0.229,2.066,0.345c0.19,0,0.382,0,0.574,0c0,0.019,0,0.038,0,0.058
				c0.728,0.019,1.454,0.038,2.181,0.058c0.307,0,0.614,0,0.919,0c0-0.02,0-0.039,0-0.058c0.268,0,0.536,0,0.804,0
				c0-0.02,0-0.039,0-0.058c0.19,0,0.383,0,0.574,0c0-0.02,0-0.038,0-0.058c0.152,0,0.307,0,0.46,0
				c0.394-0.114,0.936-0.168,1.319-0.287c0.097,0,0.192,0,0.287,0c0-0.019,0-0.038,0-0.058c0.172-0.019,0.345-0.038,0.518-0.058
				c0-0.018,0-0.037,0-0.057c0.075,0,0.152,0,0.229,0c0-0.019,0-0.038,0-0.058c0.058,0,0.115,0,0.172,0c0-0.019,0-0.038,0-0.058
				c0.154-0.019,0.307-0.038,0.461-0.058c0-0.019,0-0.037,0-0.057c0.057,0,0.114,0,0.172,0c0-0.02,0-0.038,0-0.058
				c0.057,0,0.114,0,0.172,0c0-0.02,0-0.038,0-0.057c0.077,0,0.152,0,0.229,0c0-0.021,0-0.039,0-0.058c0.058,0,0.114,0,0.172,0
				c0-0.02,0-0.039,0-0.058c0.057,0,0.114,0,0.172,0c0-0.02,0-0.039,0-0.058c0.057,0,0.113,0,0.171,0c0-0.02,0-0.039,0-0.058
				c0.058,0,0.115,0,0.173,0c0-0.019,0-0.038,0-0.058c0.038,0,0.076,0,0.115,0c0-0.019,0-0.038,0-0.057
				c0.115-0.02,0.229-0.039,0.344-0.058c0-0.019,0-0.039,0-0.058c0.096-0.019,0.191-0.038,0.287-0.058c0-0.019,0-0.038,0-0.058
				c0.038,0,0.076,0,0.114,0c0-0.019,0-0.038,0-0.058c0.058,0,0.115,0,0.172,0c0-0.019,0-0.037,0-0.057
				c0.076-0.02,0.153-0.038,0.229-0.058c0-0.02,0-0.038,0-0.058c0.058,0,0.115,0,0.173,0c0-0.019,0-0.038,0-0.057
				c0.077-0.019,0.153-0.039,0.23-0.058c0-0.019,0-0.039,0-0.058c0.037,0,0.075,0,0.114,0c0-0.019,0-0.038,0-0.058
				c0.057,0,0.114,0,0.172,0c0-0.019,0-0.038,0-0.057c0.114-0.039,0.229-0.077,0.344-0.115c0-0.02,0-0.039,0-0.057
				c0.039,0,0.077,0,0.115,0c0-0.02,0-0.039,0-0.058c0.038,0,0.076,0,0.114,0c0-0.02,0-0.039,0-0.058
				c0.115-0.039,0.229-0.077,0.345-0.115c0.02-0.038,0.038-0.075,0.058-0.115c0.038,0,0.076,0,0.114,0c0-0.018,0-0.038,0-0.058
				c0.038,0,0.077,0,0.115,0c0-0.018,0-0.037,0-0.057c0.038,0,0.077,0,0.114,0c0-0.019,0-0.038,0-0.058c0.039,0,0.076,0,0.115,0
				c0.019-0.038,0.039-0.076,0.058-0.114c0.113-0.039,0.229-0.077,0.344-0.115c0-0.02,0-0.038,0-0.057
				c0.058-0.021,0.115-0.039,0.173-0.058c0.018-0.039,0.037-0.076,0.058-0.115c0.074-0.019,0.152-0.039,0.228-0.058
				c0.02-0.038,0.04-0.076,0.058-0.115c0.038,0,0.076,0,0.115,0c0.019-0.038,0.038-0.075,0.058-0.114c0.037,0,0.076,0,0.114,0
				c0.02-0.038,0.038-0.076,0.058-0.114c0.038,0,0.076,0,0.114,0c0.019-0.039,0.039-0.077,0.058-0.115c0.038,0,0.076,0,0.114,0
				c0-0.018,0-0.038,0-0.058c0.058-0.018,0.114-0.038,0.172-0.057c0.02-0.039,0.039-0.076,0.058-0.115c0.039,0,0.077,0,0.115,0
				c0.038-0.058,0.075-0.115,0.115-0.173c0.037,0,0.075,0,0.115,0c0.037-0.056,0.074-0.113,0.113-0.171c0.039,0,0.076,0,0.115,0
				c0.039-0.058,0.075-0.115,0.114-0.173c0.038,0,0.076,0,0.114,0c0.058-0.075,0.115-0.152,0.172-0.229c0.039,0,0.077,0,0.115,0
				c0.058-0.076,0.114-0.153,0.172-0.229c0.039,0,0.077,0,0.115,0c0.076-0.097,0.153-0.191,0.229-0.287c0.038,0,0.075,0,0.115,0
				c0.152-0.173,0.306-0.344,0.458-0.517c0.039,0,0.077,0,0.115,0c0.173-0.192,0.345-0.384,0.518-0.575
				c0.191-0.172,0.382-0.345,0.574-0.518c0-0.038,0-0.075,0-0.115c0.172-0.152,0.344-0.306,0.516-0.458c0-0.039,0-0.077,0-0.115
				c0.096-0.076,0.192-0.154,0.288-0.23c0-0.037,0-0.076,0-0.114c0.075-0.058,0.152-0.114,0.229-0.172c0-0.039,0-0.077,0-0.114
				c0.076-0.058,0.153-0.115,0.229-0.173c0-0.039,0-0.076,0-0.115c0.058-0.038,0.115-0.076,0.173-0.115c0-0.037,0-0.075,0-0.114
				c0.057-0.038,0.114-0.076,0.172-0.115c0-0.038,0-0.076,0-0.114c0.057-0.039,0.114-0.076,0.171-0.114c0-0.038,0-0.077,0-0.115
				c0.04-0.02,0.077-0.038,0.115-0.058c0-0.038,0-0.076,0-0.114c0.039-0.02,0.077-0.039,0.114-0.058
				c0.02-0.058,0.038-0.115,0.058-0.172c0.019,0,0.038,0,0.058,0c0-0.039,0-0.076,0-0.115c0.038-0.019,0.076-0.039,0.115-0.058
				c0-0.038,0-0.076,0-0.115c0.038-0.019,0.075-0.037,0.113-0.057c0-0.038,0-0.077,0-0.114c0.039-0.02,0.077-0.039,0.115-0.058
				c0.019-0.077,0.039-0.154,0.058-0.229c0.039-0.02,0.076-0.039,0.114-0.058c0-0.039,0-0.076,0-0.115
				c0.039-0.019,0.077-0.038,0.115-0.058c0.038-0.114,0.076-0.229,0.115-0.344c0.037-0.02,0.076-0.039,0.114-0.058
				c0-0.038,0-0.077,0-0.114c0.02,0,0.038,0,0.058,0c0-0.039,0-0.077,0-0.115c0.018,0,0.038,0,0.057,0c0-0.038,0-0.077,0-0.114
				c0.019,0,0.039,0,0.058,0c0-0.039,0-0.077,0-0.115c0.039-0.019,0.076-0.039,0.115-0.058c0.038-0.115,0.076-0.229,0.113-0.345
				c0.021,0,0.04,0,0.058,0c0-0.038,0-0.076,0-0.114c0.021,0,0.04,0,0.058,0c0-0.038,0-0.077,0-0.114c0.02,0,0.04,0,0.058,0
				c0.038-0.115,0.076-0.23,0.115-0.345c0.019,0,0.038,0,0.058,0c0-0.058,0-0.115,0-0.173c0.019,0,0.038,0,0.058,0
				c0-0.038,0-0.076,0-0.114c0.018,0,0.038,0,0.056,0c0.02-0.076,0.039-0.153,0.058-0.229c0.02,0,0.039,0,0.058,0
				c0-0.058,0-0.115,0-0.172c0.019,0,0.039,0,0.058,0c0.019-0.077,0.039-0.154,0.057-0.23c0.02,0,0.039,0,0.058,0
				c0-0.058,0-0.114,0-0.172c0.02,0,0.038,0,0.058,0c0-0.038,0-0.076,0-0.115c0.019,0,0.038,0,0.058,0
				c0.019-0.095,0.038-0.191,0.058-0.287c0.019,0,0.037,0,0.058,0c0.019-0.114,0.037-0.229,0.057-0.344c0.02,0,0.038,0,0.058,0
				c0-0.039,0-0.076,0-0.115c0.019,0,0.038,0,0.058,0c0.018-0.114,0.038-0.229,0.057-0.345c0.019,0,0.039,0,0.058,0
				c0-0.058,0-0.114,0-0.172c0.019,0,0.038,0,0.058,0c0-0.057,0-0.114,0-0.172c0.019,0,0.038,0,0.057,0
				c0.039-0.191,0.077-0.383,0.114-0.575c0.021,0,0.04,0,0.058,0c0.039-0.21,0.077-0.42,0.115-0.632c0.02,0,0.038,0,0.058,0
				c0.019-0.172,0.038-0.344,0.058-0.517c0.019,0,0.038,0,0.058,0c0-0.076,0-0.153,0-0.229c0.019,0,0.038,0,0.058,0
				c0-0.096,0-0.191,0-0.287c0.018,0,0.038,0,0.058,0c0-0.096,0-0.191,0-0.287c0.018,0,0.037,0,0.056,0c0-0.114,0-0.229,0-0.345
				c0.1-0.33,0.132-0.806,0.229-1.148c0-0.191,0-0.383,0-0.574c0.019,0,0.038,0,0.058,0c0-0.269,0-0.538,0-0.806
				C43.583,22.695,43.579,21.313,43.453,20.855z M41.788,22.464c0,0.191,0,0.382,0,0.574c-0.019,0-0.038,0-0.057,0
				c0,0.268,0,0.537,0,0.805c-0.02,0-0.039,0-0.058,0c0,0.173,0,0.344,0,0.517c-0.098,0.344-0.133,0.819-0.229,1.149
				c0,0.115,0,0.229,0,0.345c-0.02,0-0.038,0-0.058,0c-0.02,0.172-0.038,0.344-0.057,0.518c-0.02,0-0.039,0-0.058,0
				c0,0.075,0,0.152,0,0.229c-0.02,0-0.039,0-0.058,0c0,0.076,0,0.153,0,0.229c-0.02,0-0.038,0-0.058,0c0,0.077,0,0.154,0,0.23
				c-0.019,0-0.038,0-0.058,0c-0.018,0.152-0.038,0.307-0.057,0.46c-0.019,0-0.039,0-0.058,0c0,0.058,0,0.114,0,0.172
				c-0.019,0-0.039,0-0.058,0c0,0.058,0,0.115,0,0.173c-0.019,0-0.038,0-0.058,0c0,0.057,0,0.114,0,0.172c-0.019,0-0.038,0-0.056,0
				c0,0.058,0,0.114,0,0.172c-0.02,0-0.04,0-0.058,0c0,0.058,0,0.114,0,0.172c-0.02,0-0.039,0-0.058,0c0,0.058,0,0.115,0,0.173
				c-0.02,0-0.039,0-0.058,0c-0.02,0.114-0.039,0.229-0.058,0.345c-0.02,0-0.038,0-0.058,0c0,0.037,0,0.075,0,0.114
				c-0.018,0-0.038,0-0.058,0c-0.018,0.114-0.037,0.229-0.058,0.344c-0.018,0-0.037,0-0.057,0c-0.019,0.076-0.038,0.154-0.057,0.23
				c-0.02,0-0.039,0-0.058,0c0,0.058,0,0.115,0,0.172c-0.019,0-0.039,0-0.058,0c-0.019,0.076-0.039,0.153-0.058,0.229
				c-0.019,0-0.039,0-0.058,0c0,0.058,0,0.115,0,0.172c-0.019,0-0.037,0-0.057,0c-0.038,0.115-0.077,0.23-0.114,0.344
				c-0.021,0-0.039,0-0.058,0c0,0.04,0,0.077,0,0.115c-0.02,0-0.039,0-0.058,0c0,0.039,0,0.077,0,0.115c-0.02,0-0.038,0-0.058,0
				c0,0.038,0,0.076,0,0.115c-0.02,0-0.038,0-0.058,0c0,0.038,0,0.075,0,0.115c-0.019,0-0.038,0-0.057,0c0,0.037,0,0.075,0,0.114
				c-0.019,0-0.039,0-0.058,0c0,0.038,0,0.076,0,0.114c-0.019,0-0.039,0-0.058,0c0,0.039,0,0.077,0,0.114c-0.019,0-0.039,0-0.058,0
				c0,0.04,0,0.076,0,0.115c-0.019,0-0.038,0-0.058,0c0,0.039,0,0.076,0,0.115c-0.038,0.019-0.075,0.038-0.113,0.058
				c-0.039,0.115-0.077,0.229-0.115,0.344c-0.039,0.02-0.077,0.039-0.115,0.058c-0.018,0.075-0.038,0.153-0.058,0.229
				c-0.037,0.019-0.075,0.038-0.114,0.058c0,0.038,0,0.076,0,0.114c-0.018,0-0.038,0-0.058,0c0,0.039,0,0.077,0,0.114
				c-0.038,0.02-0.075,0.04-0.114,0.058c0,0.04,0,0.076,0,0.115c-0.039,0.019-0.076,0.039-0.114,0.058c0,0.038,0,0.076,0,0.115
				c-0.04,0.018-0.077,0.038-0.115,0.058c0,0.037,0,0.075,0,0.114c-0.038,0.019-0.076,0.038-0.114,0.057c0,0.039,0,0.077,0,0.115
				c-0.038,0.02-0.077,0.039-0.114,0.058c0,0.039,0,0.076,0,0.114c-0.039,0.019-0.077,0.04-0.115,0.058c0,0.038,0,0.076,0,0.115
				c-0.039,0.019-0.076,0.038-0.115,0.058c-0.019,0.056-0.038,0.113-0.058,0.171c-0.057,0.039-0.113,0.077-0.171,0.115
				c0,0.039,0,0.076,0,0.115c-0.039,0.019-0.077,0.039-0.115,0.058c-0.02,0.058-0.038,0.114-0.058,0.172
				c-0.077,0.058-0.152,0.114-0.229,0.172c0,0.039,0,0.077,0,0.114c-0.096,0.077-0.191,0.154-0.286,0.23c0,0.038,0,0.076,0,0.115
				c-0.135,0.113-0.269,0.229-0.403,0.344c0,0.039,0,0.076,0,0.114c-0.248,0.229-0.496,0.461-0.746,0.69
				c-0.21,0.229-0.421,0.459-0.631,0.689c-0.038,0-0.076,0-0.115,0c-0.114,0.134-0.229,0.268-0.344,0.402c-0.039,0-0.076,0-0.113,0
				c-0.077,0.096-0.154,0.191-0.23,0.287c-0.038,0-0.076,0-0.115,0c-0.058,0.076-0.115,0.153-0.172,0.229c-0.038,0-0.076,0-0.114,0
				c-0.039,0.058-0.077,0.115-0.115,0.173c-0.038,0-0.076,0-0.114,0c-0.038,0.058-0.077,0.115-0.115,0.173
				c-0.057,0.018-0.114,0.038-0.172,0.058c-0.02,0.037-0.039,0.075-0.058,0.113c-0.038,0-0.075,0-0.114,0
				c-0.019,0.039-0.039,0.077-0.058,0.115c-0.058,0.02-0.113,0.039-0.171,0.058c0,0.018,0,0.039,0,0.058c-0.039,0-0.077,0-0.115,0
				c-0.02,0.038-0.038,0.075-0.058,0.114c-0.038,0-0.075,0-0.115,0c-0.018,0.038-0.037,0.076-0.058,0.115c-0.037,0-0.075,0-0.114,0
				c-0.019,0.038-0.038,0.076-0.057,0.115c-0.058,0.019-0.115,0.038-0.173,0.056c0,0.021,0,0.04,0,0.058
				c-0.076,0.02-0.152,0.04-0.229,0.058c-0.02,0.039-0.039,0.077-0.058,0.115c-0.077,0.019-0.153,0.039-0.229,0.058
				c-0.019,0.039-0.039,0.075-0.058,0.115c-0.115,0.037-0.229,0.075-0.344,0.114c-0.02,0.038-0.039,0.076-0.058,0.114
				c-0.038,0-0.075,0-0.115,0c0,0.02,0,0.039,0,0.058c-0.037,0-0.075,0-0.114,0c0,0.02,0,0.039,0,0.058c-0.038,0-0.075,0-0.114,0
				c0,0.02,0,0.039,0,0.058c-0.039,0-0.076,0-0.115,0c0,0.019,0,0.039,0,0.057c-0.039,0-0.076,0-0.114,0c0,0.02,0,0.04,0,0.058
				c-0.038,0-0.076,0-0.114,0c0,0.02,0,0.04,0,0.058c-0.039,0-0.077,0-0.115,0c0,0.019,0,0.039,0,0.058c-0.038,0-0.077,0-0.114,0
				c0,0.019,0,0.038,0,0.058c-0.039,0-0.077,0-0.115,0c0,0.019,0,0.038,0,0.058c-0.115,0.038-0.229,0.075-0.345,0.113
				c0,0.02,0,0.039,0,0.058c-0.058,0-0.115,0-0.172,0c0,0.02,0,0.039,0,0.058c-0.077,0.02-0.153,0.039-0.229,0.058
				c0,0.02,0,0.039,0,0.058c-0.058,0-0.115,0-0.172,0c0,0.019,0,0.039,0,0.058c-0.077,0.019-0.154,0.039-0.229,0.058
				c0,0.019,0,0.039,0,0.058c-0.115,0.018-0.23,0.037-0.345,0.057c0,0.019,0,0.038,0,0.058c-0.038,0-0.075,0-0.114,0
				c0,0.019,0,0.038,0,0.058c-0.172,0.038-0.344,0.076-0.518,0.114c0,0.02,0,0.039,0,0.057c-0.058,0-0.115,0-0.172,0
				c0,0.021,0,0.04,0,0.058c-0.057,0-0.114,0-0.172,0c0,0.02,0,0.04,0,0.058c-0.057,0-0.114,0-0.171,0c0,0.02,0,0.039,0,0.058
				c-0.058,0-0.115,0-0.173,0c0,0.02,0,0.039,0,0.058c-0.058,0-0.115,0-0.172,0c0,0.019,0,0.039,0,0.058
				c-0.153,0.019-0.307,0.038-0.459,0.058c0,0.019,0,0.038,0,0.058c-0.077,0-0.153,0-0.23,0c0,0.018,0,0.038,0,0.058
				c-0.075,0-0.152,0-0.229,0c0,0.018,0,0.037,0,0.058c-0.076,0-0.153,0-0.229,0c0,0.018,0,0.037,0,0.057
				c-0.173,0.019-0.345,0.038-0.518,0.057c0,0.02,0,0.039,0,0.058c-0.114,0-0.229,0-0.344,0c0,0.02,0,0.039,0,0.058
				c-0.115,0-0.229,0-0.344,0c0,0.019,0,0.039,0,0.058c-0.115,0-0.229,0-0.344,0c0,0.019,0,0.039,0,0.057c-0.153,0-0.308,0-0.46,0
				c0,0.02,0,0.04,0,0.058c-0.172,0-0.344,0-0.518,0c0,0.02,0,0.038,0,0.058c-0.268,0-0.536,0-0.804,0c0,0.02,0,0.038,0,0.058
				c-0.191,0-0.382,0-0.574,0c-0.479,0-1.109,0.048-1.493-0.058c-0.268,0-0.536,0-0.803,0c0-0.02,0-0.038,0-0.058
				c-0.172,0-0.344,0-0.517,0c-0.343-0.098-0.818-0.132-1.148-0.229c-0.115,0-0.23,0-0.344,0c0-0.019,0-0.038,0-0.058
				c-0.172-0.019-0.345-0.038-0.517-0.057c0-0.02,0-0.039,0-0.057c-0.076,0-0.153,0-0.229,0c0-0.021,0-0.04,0-0.058
				c-0.077,0-0.153,0-0.23,0c0-0.02,0-0.04,0-0.058c-0.077,0-0.153,0-0.229,0c0-0.02,0-0.039,0-0.058
				c-0.153-0.02-0.306-0.039-0.46-0.058c0-0.019,0-0.039,0-0.058c-0.058,0-0.115,0-0.172,0c0-0.019,0-0.038,0-0.058
				c-0.057,0-0.115,0-0.172,0c0-0.019,0-0.038,0-0.058c-0.058,0-0.115,0-0.172,0c0-0.018,0-0.038,0-0.058c-0.057,0-0.115,0-0.172,0
				c0-0.018,0-0.037,0-0.058c-0.058,0-0.115,0-0.172,0c0-0.018,0-0.037,0-0.057c-0.057,0-0.115,0-0.172,0c0-0.019,0-0.038,0-0.058
				c-0.058,0-0.115,0-0.172,0c0-0.019,0-0.038,0-0.057c-0.058,0-0.115,0-0.172,0c0-0.02,0-0.039,0-0.058c-0.039,0-0.077,0-0.115,0
				c0-0.02,0-0.039,0-0.058c-0.115-0.02-0.23-0.039-0.344-0.057c0-0.019,0-0.039,0-0.058c-0.076-0.019-0.153-0.039-0.229-0.058
				c0-0.019,0-0.039,0-0.058c-0.058,0-0.115,0-0.173,0c0-0.019,0-0.038,0-0.058c-0.038,0-0.076,0-0.115,0c0-0.019,0-0.038,0-0.058
				c-0.096-0.019-0.192-0.038-0.288-0.058c0-0.019,0-0.038,0-0.058c-0.114-0.038-0.229-0.075-0.344-0.113c0-0.02,0-0.039,0-0.058
				c-0.038,0-0.076,0-0.115,0c0-0.02,0-0.039,0-0.058c-0.306-0.135-0.613-0.268-0.919-0.402c-0.019-0.039-0.039-0.076-0.058-0.115
				c-0.114-0.038-0.229-0.076-0.344-0.114c-0.02-0.039-0.039-0.076-0.057-0.115c-0.076-0.019-0.153-0.038-0.23-0.058
				c-0.019-0.037-0.038-0.076-0.058-0.114c-0.039,0-0.077,0-0.115,0c0-0.02,0-0.038,0-0.058c-0.038,0-0.076,0-0.115,0
				c-0.019-0.038-0.038-0.076-0.057-0.114c-0.038,0-0.076,0-0.115,0c-0.02-0.039-0.039-0.077-0.058-0.115c-0.038,0-0.076,0-0.115,0
				c-0.019-0.038-0.038-0.077-0.057-0.114c-0.038,0-0.076,0-0.115,0c-0.019-0.039-0.038-0.077-0.057-0.115c-0.038,0-0.077,0-0.115,0
				c-0.019-0.039-0.038-0.076-0.057-0.115c-0.038,0-0.077,0-0.115,0c-0.019-0.038-0.038-0.076-0.057-0.114c-0.039,0-0.077,0-0.115,0
				c-0.038-0.058-0.076-0.115-0.115-0.173c-0.038,0-0.076,0-0.115,0c-0.038-0.058-0.077-0.114-0.115-0.172c-0.038,0-0.076,0-0.115,0
				c-0.039-0.058-0.077-0.114-0.115-0.172c-0.038,0-0.077,0-0.115,0c-0.058-0.077-0.115-0.153-0.172-0.229c-0.038,0-0.077,0-0.115,0
				c-0.076-0.097-0.153-0.191-0.229-0.287c-0.039,0-0.077,0-0.115,0c-0.115-0.134-0.23-0.268-0.344-0.401c-0.038,0-0.076,0-0.115,0
				c-0.268-0.288-0.536-0.575-0.804-0.863c-0.192-0.172-0.383-0.344-0.574-0.517c0-0.039,0-0.077,0-0.114
				c-0.134-0.115-0.268-0.23-0.402-0.345c0-0.038,0-0.076,0-0.115c-0.095-0.076-0.192-0.153-0.287-0.229c0-0.038,0-0.076,0-0.114
				c-0.076-0.058-0.153-0.114-0.229-0.172c0-0.039,0-0.077,0-0.115c-0.058-0.039-0.115-0.076-0.172-0.115c0-0.038,0-0.076,0-0.114
				c-0.058-0.039-0.115-0.076-0.173-0.115c0-0.038,0-0.076,0-0.115c-0.057-0.037-0.115-0.076-0.172-0.114c0-0.038,0-0.077,0-0.114
				c-0.039-0.02-0.076-0.039-0.115-0.058c-0.019-0.058-0.038-0.115-0.058-0.172c-0.019,0-0.038,0-0.057,0c0-0.039,0-0.077,0-0.115
				c-0.039-0.019-0.077-0.039-0.115-0.058c0-0.038,0-0.076,0-0.115c-0.039-0.019-0.076-0.038-0.115-0.057c0-0.038,0-0.076,0-0.115
				c-0.038-0.019-0.076-0.038-0.115-0.058c0-0.038,0-0.076,0-0.114c-0.038-0.02-0.076-0.038-0.115-0.058
				c-0.019-0.077-0.039-0.153-0.058-0.229c-0.039-0.02-0.076-0.038-0.115-0.058c0-0.038,0-0.076,0-0.114c-0.019,0-0.038,0-0.057,0
				c0-0.039,0-0.076,0-0.115c-0.038-0.019-0.076-0.038-0.115-0.058c-0.039-0.115-0.076-0.229-0.115-0.344
				c-0.038-0.02-0.076-0.038-0.115-0.058c0-0.038,0-0.076,0-0.114c-0.019,0-0.038,0-0.057,0c0-0.039,0-0.077,0-0.115
				c-0.019,0-0.038,0-0.057,0c0-0.039,0-0.077,0-0.115c-0.02,0-0.039,0-0.058,0c0-0.038,0-0.076,0-0.114c-0.02,0-0.039,0-0.058,0
				c0-0.039,0-0.076,0-0.115c-0.019,0-0.038,0-0.058,0c0-0.038,0-0.075,0-0.115c-0.019,0-0.039,0-0.058,0c0-0.037,0-0.075,0-0.114
				c-0.019,0-0.038,0-0.057,0c0-0.038,0-0.076,0-0.115c-0.019,0-0.038,0-0.058,0c0-0.038,0-0.076,0-0.114c-0.019,0-0.038,0-0.057,0
				c-0.039-0.114-0.077-0.229-0.115-0.345c-0.019,0-0.038,0-0.058,0c0-0.058,0-0.114,0-0.172c-0.019,0-0.039,0-0.057,0
				c-0.019-0.076-0.038-0.153-0.058-0.229c-0.019,0-0.038,0-0.057,0c0-0.058,0-0.115,0-0.173c-0.02,0-0.039,0-0.058,0
				c-0.02-0.075-0.038-0.152-0.058-0.229c-0.019,0-0.038,0-0.058,0c-0.019-0.115-0.039-0.229-0.057-0.345c-0.02,0-0.038,0-0.058,0
				c0-0.039,0-0.076,0-0.115c-0.019,0-0.038,0-0.057,0c-0.019-0.115-0.039-0.229-0.058-0.344c-0.02,0-0.038,0-0.058,0
				c0-0.058,0-0.115,0-0.172c-0.019,0-0.038,0-0.058,0c0-0.058,0-0.115,0-0.173c-0.019,0-0.038,0-0.057,0c0-0.058,0-0.115,0-0.173
				c-0.02,0-0.039,0-0.058,0c0-0.057,0-0.114,0-0.171c-0.02,0-0.038,0-0.057,0c0-0.058,0-0.115,0-0.173c-0.019,0-0.039,0-0.058,0
				c0-0.058,0-0.115,0-0.172c-0.02,0-0.039,0-0.058,0c-0.038-0.229-0.076-0.46-0.115-0.689c-0.019,0-0.039,0-0.057,0
				c0-0.076,0-0.153,0-0.229c-0.02,0-0.038,0-0.057,0c0-0.077,0-0.153,0-0.229c-0.019,0-0.039,0-0.058,0
				c-0.019-0.173-0.038-0.345-0.058-0.517c-0.019,0-0.038,0-0.058,0c-0.019-0.23-0.038-0.461-0.058-0.69c-0.019,0-0.038,0-0.057,0
				c-0.02-0.268-0.039-0.536-0.057-0.804c-0.02,0-0.039,0-0.058,0c-0.019-0.44-0.038-0.881-0.058-1.321
				c-0.107-0.382-0.058-1.018-0.058-1.494c0-0.191,0-0.384,0-0.576c0.019,0,0.039,0,0.058,0c0-0.268,0-0.536,0-0.804
				c0.019,0,0.038,0,0.058,0c0-0.172,0-0.344,0-0.517c0.019,0,0.038,0,0.058,0c0-0.153,0-0.307,0-0.46c0.019,0,0.038,0,0.057,0
				c0-0.115,0-0.229,0-0.344c0.019,0,0.038,0,0.057,0c0-0.115,0-0.23,0-0.345c0.02,0,0.039,0,0.058,0c0-0.114,0-0.229,0-0.344
				c0.02,0,0.039,0,0.058,0c0-0.076,0-0.153,0-0.229c0.019,0,0.038,0,0.058,0c0-0.096,0-0.192,0-0.287c0.019,0,0.039,0,0.058,0
				c0.038-0.229,0.076-0.46,0.114-0.689c0.019,0,0.039,0,0.058,0c0.02-0.153,0.039-0.307,0.058-0.46c0.019,0,0.038,0,0.058,0
				c0-0.057,0-0.114,0-0.172c0.019,0,0.038,0,0.058,0c0-0.058,0-0.115,0-0.172c0.019,0,0.038,0,0.057,0c0-0.058,0-0.115,0-0.172
				c0.019,0,0.038,0,0.058,0c0-0.058,0-0.115,0-0.171c0.019,0,0.038,0,0.057,0c0-0.058,0-0.115,0-0.173c0.02,0,0.039,0,0.058,0
				c0.038-0.172,0.076-0.345,0.115-0.517c0.019,0,0.039,0,0.057,0c0-0.039,0-0.077,0-0.115c0.02,0,0.038,0,0.058,0
				c0.019-0.115,0.038-0.229,0.057-0.345c0.019,0,0.039,0,0.058,0c0.02-0.076,0.038-0.153,0.058-0.229c0.019,0,0.038,0,0.058,0
				c0-0.058,0-0.115,0-0.172c0.019,0,0.038,0,0.057,0c0.02-0.076,0.039-0.153,0.058-0.23c0.019,0,0.038,0,0.057,0
				c0-0.058,0-0.114,0-0.172c0.019,0,0.039,0,0.058,0c0-0.039,0-0.077,0-0.115c0.02,0,0.038,0,0.058,0
				c0.019-0.076,0.038-0.154,0.058-0.23c0.019,0,0.038,0,0.057,0c0-0.038,0-0.076,0-0.115c0.02,0,0.039,0,0.058,0
				c0-0.038,0-0.076,0-0.114c0.02,0,0.038,0,0.057,0c0-0.039,0-0.077,0-0.115c0.019,0,0.039,0,0.058,0c0-0.039,0-0.077,0-0.115
				c0.019,0,0.038,0,0.058,0c0.019-0.077,0.038-0.154,0.058-0.23c0.019,0,0.038,0,0.058,0c0.038-0.115,0.076-0.229,0.114-0.344
				c0.039-0.019,0.077-0.039,0.115-0.058c0.039-0.115,0.077-0.229,0.115-0.345c0.038-0.019,0.076-0.038,0.115-0.057
				c0.02-0.077,0.038-0.154,0.057-0.23c0.038-0.019,0.076-0.039,0.115-0.057c0-0.039,0-0.076,0-0.115c0.019,0,0.039,0,0.058,0
				c0-0.039,0-0.077,0-0.115c0.038-0.019,0.076-0.038,0.115-0.058c0-0.038,0-0.076,0-0.114c0.039-0.019,0.077-0.039,0.115-0.057
				c0-0.039,0-0.077,0-0.115c0.038-0.019,0.076-0.039,0.115-0.058c0-0.039,0-0.076,0-0.115c0.038-0.019,0.076-0.038,0.115-0.057
				c0-0.038,0-0.076,0-0.115c0.038-0.019,0.076-0.039,0.115-0.057c0-0.039,0-0.077,0-0.115c0.038-0.02,0.076-0.039,0.115-0.057
				c0-0.039,0-0.076,0-0.115c0.057-0.039,0.115-0.076,0.172-0.115c0-0.038,0-0.076,0-0.114c0.058-0.039,0.115-0.077,0.173-0.115
				c0-0.038,0-0.076,0-0.114c0.057-0.039,0.115-0.077,0.172-0.115c0-0.039,0-0.076,0-0.115C6.453,9.716,6.53,9.658,6.606,9.601
				c0-0.038,0-0.076,0-0.115C6.701,9.41,6.798,9.333,6.893,9.256c0-0.039,0-0.076,0-0.114c0.134-0.115,0.268-0.23,0.402-0.344
				c0-0.039,0-0.077,0-0.115C7.43,8.568,7.563,8.453,7.698,8.338c0.325-0.344,0.65-0.689,0.975-1.033c0.039,0,0.077,0,0.115,0
				C8.903,7.17,9.018,7.037,9.132,6.902c0.038,0,0.076,0,0.115,0C9.323,6.806,9.4,6.71,9.476,6.615c0.038,0,0.077,0,0.115,0
				c0.058-0.076,0.115-0.153,0.172-0.23c0.038,0,0.076,0,0.115,0c0.038-0.057,0.076-0.114,0.115-0.172c0.038,0,0.076,0,0.115,0
				c0.038-0.057,0.076-0.115,0.115-0.172c0.039,0,0.077,0,0.115,0c0.038-0.058,0.076-0.115,0.115-0.173c0.038,0,0.076,0,0.115,0
				c0.019-0.038,0.038-0.076,0.057-0.115c0.038,0,0.077,0,0.115,0c0.019-0.038,0.038-0.076,0.057-0.114
				c0.058-0.02,0.115-0.039,0.172-0.057c0-0.02,0-0.039,0-0.058c0.039,0,0.077,0,0.115,0c0.019-0.039,0.038-0.077,0.057-0.115
				c0.039,0,0.077,0,0.115,0c0.019-0.039,0.038-0.076,0.058-0.115c0.038,0,0.076,0,0.115,0c0.019-0.039,0.038-0.076,0.057-0.115
				c0.076-0.019,0.153-0.039,0.23-0.058c0.019-0.038,0.038-0.076,0.058-0.114c0.038,0,0.076,0,0.115,0c0-0.02,0-0.039,0-0.057
				c0.039,0,0.077,0,0.115,0c0.019-0.039,0.038-0.077,0.057-0.115c0.115-0.039,0.229-0.076,0.344-0.115
				c0.019-0.039,0.039-0.076,0.058-0.115c0.038,0,0.076,0,0.115,0c0-0.019,0-0.039,0-0.058c0.038,0,0.076,0,0.115,0
				c0-0.019,0-0.038,0-0.058c0.038,0,0.077,0,0.115,0c0-0.019,0-0.038,0-0.058c0.038,0,0.076,0,0.115,0c0-0.019,0-0.038,0-0.057
				c0.038,0,0.076,0,0.115,0c0-0.02,0-0.039,0-0.058c0.038,0,0.076,0,0.115,0c0-0.019,0-0.039,0-0.057c0.038,0,0.076,0,0.115,0
				c0-0.02,0-0.039,0-0.058c0.038,0,0.077,0,0.115,0c0-0.02,0-0.039,0-0.057c0.038,0,0.076,0,0.115,0c0-0.019,0-0.039,0-0.058
				c0.115-0.039,0.23-0.076,0.344-0.115c0-0.019,0-0.038,0-0.057c0.058,0,0.115,0,0.172,0c0-0.019,0-0.038,0-0.058
				c0.077-0.019,0.153-0.038,0.23-0.057c0-0.019,0-0.039,0-0.058c0.057,0,0.115,0,0.172,0c0-0.019,0-0.038,0-0.057
				c0.076-0.019,0.153-0.039,0.229-0.057c0-0.02,0-0.039,0-0.057c0.115-0.02,0.23-0.039,0.344-0.058c0-0.019,0-0.039,0-0.058
				c0.038,0,0.076,0,0.115,0c0-0.019,0-0.039,0-0.058c0.172-0.039,0.344-0.076,0.516-0.115c0-0.019,0-0.038,0-0.057
				c0.058,0,0.115,0,0.172,0c0-0.019,0-0.039,0-0.058c0.058,0,0.115,0,0.172,0c0-0.019,0-0.039,0-0.057c0.058,0,0.115,0,0.172,0
				c0-0.019,0-0.039,0-0.057c0.058,0,0.115,0,0.172,0c0-0.02,0-0.039,0-0.058c0.058,0,0.115,0,0.172,0c0-0.02,0-0.039,0-0.058
				c0.153-0.02,0.306-0.039,0.46-0.058c0-0.019,0-0.039,0-0.057c0.229-0.039,0.459-0.076,0.688-0.115c0-0.019,0-0.039,0-0.058
				c0.096,0,0.192,0,0.288,0c0-0.019,0-0.038,0-0.058c0.076,0,0.153,0,0.229,0c0-0.019,0-0.038,0-0.057c0.115,0,0.229,0,0.344,0
				c0-0.019,0-0.038,0-0.058c0.115,0,0.23,0,0.344,0c0-0.019,0-0.038,0-0.057c0.115,0,0.23,0,0.344,0c0-0.02,0-0.039,0-0.058
				c0.153,0,0.306,0,0.459,0c0-0.02,0-0.039,0-0.058c0.173,0,0.344,0,0.517,0c0-0.019,0-0.039,0-0.058
				c0.256-0.075,0.63,0.084,0.804-0.057c0.649,0.004,1.521-0.097,2.066,0.057c0.269,0,0.536,0,0.804,0c0,0.019,0,0.039,0,0.058
				c0.326,0.019,0.651,0.038,0.977,0.058c0,0.019,0,0.038,0,0.058c0.115,0,0.229,0,0.344,0c0,0.019,0,0.038,0,0.057
				c0.114,0,0.229,0,0.344,0c0,0.02,0,0.039,0,0.058c0.115,0,0.23,0,0.345,0c0,0.019,0,0.039,0,0.057
				c0.172,0.02,0.344,0.039,0.517,0.058c0,0.019,0,0.039,0,0.058c0.076,0,0.153,0,0.229,0c0,0.019,0,0.039,0,0.057
				c0.076,0,0.153,0,0.229,0c0,0.019,0,0.039,0,0.058c0.077,0,0.152,0,0.229,0c0,0.019,0,0.039,0,0.057
				c0.153,0.019,0.307,0.038,0.459,0.058c0,0.019,0,0.038,0,0.058c0.058,0,0.115,0,0.173,0c0,0.019,0,0.038,0,0.058
				c0.058,0,0.115,0,0.172,0c0,0.019,0,0.038,0,0.057c0.058,0,0.115,0,0.172,0c0,0.019,0,0.038,0,0.057c0.058,0,0.115,0,0.171,0
				c0,0.019,0,0.039,0,0.058c0.058,0,0.115,0,0.173,0c0,0.019,0,0.039,0,0.057c0.058,0,0.114,0,0.172,0c0,0.02,0,0.039,0,0.057
				c0.115,0.019,0.229,0.039,0.344,0.058c0,0.019,0,0.039,0,0.058c0.039,0,0.077,0,0.115,0c0,0.019,0,0.039,0,0.058
				c0.115,0.019,0.229,0.038,0.345,0.058c0,0.019,0,0.038,0,0.057c0.076,0.019,0.152,0.038,0.229,0.057c0,0.019,0,0.039,0,0.057
				c0.057,0,0.114,0,0.171,0c0,0.019,0,0.039,0,0.058c0.077,0.019,0.154,0.039,0.229,0.057c0,0.02,0,0.039,0,0.058
				c0.058,0,0.115,0,0.173,0c0,0.02,0,0.039,0,0.057c0.113,0.039,0.229,0.076,0.344,0.115c0,0.019,0,0.039,0,0.058
				c0.039,0,0.077,0,0.115,0c0,0.019,0,0.038,0,0.057c0.039,0,0.077,0,0.115,0c0,0.019,0,0.038,0,0.058c0.037,0,0.075,0,0.114,0
				c0,0.019,0,0.038,0,0.057c0.038,0,0.076,0,0.115,0c0,0.019,0,0.038,0,0.058c0.038,0,0.076,0,0.114,0c0,0.019,0,0.038,0,0.057
				c0.039,0,0.076,0,0.114,0c0,0.02,0,0.039,0,0.058c0.04,0,0.077,0,0.114,0c0,0.02,0,0.039,0,0.058c0.039,0,0.077,0,0.115,0
				c0,0.019,0,0.039,0,0.058c0.039,0,0.076,0,0.115,0c0.019,0.039,0.038,0.076,0.058,0.115c0.114,0.039,0.229,0.076,0.345,0.115
				c0.018,0.038,0.037,0.076,0.056,0.115c0.039,0,0.077,0,0.115,0c0,0.019,0,0.038,0,0.057c0.039,0,0.077,0,0.115,0
				c0.02,0.038,0.037,0.076,0.057,0.114c0.076,0.019,0.153,0.039,0.23,0.058c0.018,0.039,0.038,0.076,0.056,0.115
				c0.04,0,0.077,0,0.115,0c0.02,0.039,0.04,0.076,0.057,0.115c0.04,0,0.077,0,0.115,0c0.02,0.038,0.039,0.076,0.058,0.115
				c0.039,0,0.076,0,0.115,0c0.019,0.038,0.038,0.076,0.057,0.115c0.039,0,0.076,0,0.115,0c0.019,0.038,0.038,0.076,0.058,0.114
				c0.038,0,0.075,0,0.114,0c0.019,0.039,0.038,0.077,0.058,0.115c0.038,0,0.076,0,0.114,0c0.039,0.058,0.077,0.115,0.115,0.173
				c0.038,0,0.077,0,0.114,0c0.038,0.057,0.076,0.115,0.115,0.172c0.038,0,0.076,0,0.115,0c0.038,0.058,0.075,0.115,0.113,0.172
				c0.04,0,0.076,0,0.115,0c0.057,0.077,0.114,0.154,0.172,0.23c0.039,0,0.076,0,0.114,0c0.076,0.095,0.153,0.192,0.23,0.287
				c0.038,0,0.075,0,0.114,0c0.115,0.134,0.229,0.268,0.344,0.402c0.039,0,0.077,0,0.115,0c0.306,0.325,0.612,0.65,0.918,0.976
				c0.153,0.134,0.307,0.269,0.46,0.403c0,0.038,0,0.076,0,0.115c0.134,0.114,0.268,0.229,0.401,0.344c0,0.039,0,0.076,0,0.115
				c0.097,0.076,0.192,0.153,0.287,0.229c0,0.039,0,0.077,0,0.114c0.076,0.058,0.153,0.115,0.229,0.173c0,0.039,0,0.076,0,0.115
				c0.058,0.038,0.115,0.076,0.173,0.115c0,0.039,0,0.076,0,0.114c0.058,0.039,0.114,0.077,0.172,0.115c0,0.039,0,0.077,0,0.115
				c0.058,0.039,0.113,0.076,0.171,0.115c0,0.039,0,0.076,0,0.115c0.039,0.019,0.077,0.038,0.115,0.057c0,0.038,0,0.077,0,0.115
				c0.038,0.019,0.077,0.038,0.115,0.057c0.018,0.058,0.037,0.115,0.057,0.172c0.019,0,0.038,0,0.058,0c0,0.039,0,0.076,0,0.115
				c0.038,0.019,0.076,0.039,0.115,0.058c0,0.038,0,0.076,0,0.115c0.038,0.019,0.076,0.038,0.113,0.057c0,0.038,0,0.076,0,0.114
				c0.04,0.019,0.077,0.039,0.115,0.058c0,0.039,0,0.077,0,0.115c0.02,0,0.039,0,0.058,0c0,0.039,0,0.076,0,0.115
				c0.038,0.019,0.076,0.039,0.114,0.058c0.02,0.076,0.039,0.153,0.058,0.23c0.039,0.019,0.076,0.038,0.115,0.057
				c0.038,0.115,0.076,0.23,0.115,0.345c0.037,0.019,0.075,0.038,0.114,0.057c0,0.039,0,0.076,0,0.115c0.018,0,0.038,0,0.058,0
				c0,0.038,0,0.076,0,0.114c0.018,0,0.038,0,0.058,0c0,0.039,0,0.077,0,0.115c0.018,0,0.037,0,0.056,0c0,0.039,0,0.076,0,0.115
				c0.02,0,0.039,0,0.058,0c0,0.039,0,0.076,0,0.115c0.02,0,0.039,0,0.058,0c0,0.038,0,0.076,0,0.115c0.02,0,0.039,0,0.058,0
				c0,0.038,0,0.076,0,0.115c0.02,0,0.039,0,0.058,0c0,0.038,0,0.076,0,0.114c0.02,0,0.037,0,0.057,0c0,0.039,0,0.077,0,0.115
				c0.019,0,0.038,0,0.058,0c0.038,0.115,0.076,0.23,0.115,0.345c0.019,0,0.038,0,0.058,0c0,0.057,0,0.114,0,0.172
				c0.018,0,0.038,0,0.057,0c0.019,0.077,0.039,0.153,0.057,0.229c0.02,0,0.04,0,0.058,0c0,0.058,0,0.115,0,0.172
				c0.02,0,0.04,0,0.058,0c0.02,0.076,0.039,0.153,0.057,0.229c0.02,0,0.039,0,0.058,0c0.02,0.115,0.039,0.23,0.058,0.345
				c0.02,0,0.039,0,0.058,0c0,0.038,0,0.076,0,0.115c0.019,0,0.038,0,0.058,0c0.019,0.114,0.038,0.229,0.058,0.344
				c0.019,0,0.038,0,0.057,0c0,0.057,0,0.114,0,0.172c0.02,0,0.039,0,0.058,0c0,0.058,0,0.115,0,0.173c0.019,0,0.038,0,0.058,0
				c0,0.057,0,0.114,0,0.171c0.018,0,0.038,0,0.058,0c0,0.058,0,0.115,0,0.172c0.018,0,0.038,0,0.058,0c0,0.057,0,0.115,0,0.172
				c0.018,0,0.037,0,0.058,0c0,0.058,0,0.115,0,0.172c0.018,0,0.037,0,0.057,0c0.019,0.153,0.038,0.307,0.057,0.46
				c0.02,0,0.039,0,0.058,0c0,0.077,0,0.153,0,0.229c0.02,0,0.039,0,0.058,0c0,0.077,0,0.153,0,0.229c0.02,0,0.038,0,0.058,0
				c0,0.076,0,0.153,0,0.23c0.02,0,0.038,0,0.057,0c0.019,0.172,0.038,0.344,0.058,0.517c0.019,0,0.038,0,0.058,0
				c0,0.115,0,0.23,0,0.344c0.099,0.33,0.131,0.807,0.229,1.15c0,0.171,0,0.344,0,0.517c0.02,0,0.04,0,0.058,0
				c0,0.268,0,0.536,0,0.804C41.839,21.352,41.789,21.985,41.788,22.464z"/>
		</g>
	</g>
</g>
</svg>
