<?xml version="1.0" encoding="utf-8"?>
<!-- Generator: Adobe Illustrator 17.0.0, SVG Export Plug-In . SVG Version: 6.00 Build 0)  -->
<!DOCTYPE svg PUBLIC "-//W3C//DTD SVG 1.1//EN" "http://www.w3.org/Graphics/SVG/1.1/DTD/svg11.dtd" [
	<!ENTITY st0 "fill:#E6352D;">
]>
<svg version="1.1" id="SVG" xmlns="http://www.w3.org/2000/svg" xmlns:xlink="http://www.w3.org/1999/xlink" x="0px" y="0px"
	 width="60px" height="45px" viewBox="0 0 60 45" style="enable-background:new 0 0 60 45;" xml:space="preserve">
<path id="calendar" style="&st0;" d="M48.587,45H11.413C9.252,45,7.5,43.248,7.5,41.087V7.826c0-2.161,1.752-3.913,3.913-3.913
	h4.891V5.87h-4.891c-1.081,0-1.957,0.876-1.957,1.957v33.261c0,1.08,0.876,1.957,1.957,1.957h37.174
	c1.081,0,1.957-0.877,1.957-1.957V7.826c0-1.081-0.876-1.957-1.957-1.957h-4.891V3.913h4.891c2.161,0,3.913,1.752,3.913,3.913
	v33.261C52.5,43.248,50.748,45,48.587,45z M33.913,28.37h7.826c1.081,0,1.957,0.876,1.957,1.957v3.913
	c0,1.081-0.876,1.957-1.957,1.957h-7.826c-1.081,0-1.957-0.876-1.957-1.957v-3.913C31.957,29.245,32.832,28.37,33.913,28.37z
	 M33.913,33.75c0,0.27,0.219,0.489,0.489,0.489h6.848c0.27,0,0.489-0.219,0.489-0.489v-2.935c0-0.27-0.219-0.489-0.489-0.489h-6.848
	c-0.27,0-0.489,0.219-0.489,0.489V33.75z M43.696,21.522c0,1.081-0.876,1.957-1.957,1.957h-7.826c-1.081,0-1.957-0.876-1.957-1.957
	v-3.913c0-1.081,0.876-1.957,1.957-1.957h7.826c1.081,0,1.957,0.876,1.957,1.957V21.522z M41.739,18.098
	c0-0.27-0.219-0.489-0.489-0.489h-6.848c-0.27,0-0.489,0.219-0.489,0.489v2.935c0,0.27,0.219,0.489,0.489,0.489h6.848
	c0.27,0,0.489-0.219,0.489-0.489V18.098z M39.293,9.783h-0.978c-1.351,0-2.446-1.095-2.446-2.446V2.446
	C35.87,1.095,36.964,0,38.315,0h0.978c1.351,0,2.446,1.095,2.446,2.446v4.891C41.739,8.688,40.644,9.783,39.293,9.783z
	 M39.783,2.446c0-0.27-0.219-0.489-0.489-0.489h-0.978c-0.27,0-0.489,0.219-0.489,0.489v4.891c0,0.27,0.219,0.489,0.489,0.489h0.978
	c0.27,0,0.489-0.219,0.489-0.489V2.446z M26.087,3.913h7.826V5.87h-7.826V3.913z M21.685,9.783h-0.978
	c-1.351,0-2.446-1.095-2.446-2.446V2.446C18.261,1.095,19.356,0,20.707,0h0.978c1.351,0,2.446,1.095,2.446,2.446v4.891
	C24.13,8.688,23.036,9.783,21.685,9.783z M22.174,2.446c0-0.27-0.219-0.489-0.489-0.489h-0.978c-0.27,0-0.489,0.219-0.489,0.489
	v4.891c0,0.27,0.219,0.489,0.489,0.489h0.978c0.27,0,0.489-0.219,0.489-0.489V2.446z M18.261,28.37h7.826
	c1.081,0,1.957,0.876,1.957,1.957v3.913c0,1.081-0.876,1.957-1.957,1.957h-7.826c-1.081,0-1.957-0.876-1.957-1.957v-3.913
	C16.304,29.245,17.18,28.37,18.261,28.37z M18.261,33.75c0,0.27,0.219,0.489,0.489,0.489h6.848c0.27,0,0.489-0.219,0.489-0.489
	v-2.935c0-0.27-0.219-0.489-0.489-0.489H18.75c-0.27,0-0.489,0.219-0.489,0.489V33.75z M26.087,15.652
	c1.081,0,1.957,0.876,1.957,1.957v3.913c0,1.081-0.876,1.957-1.957,1.957h-7.826c-1.081,0-1.957-0.876-1.957-1.957v-3.913
	c0-1.081,0.876-1.957,1.957-1.957H26.087z M18.261,21.033c0,0.27,0.219,0.489,0.489,0.489h6.848c0.27,0,0.489-0.219,0.489-0.489
	v-2.935c0-0.27-0.219-0.489-0.489-0.489H18.75c-0.27,0-0.489,0.219-0.489,0.489V21.033z"/>
<g>
</g>
<g>
</g>
<g>
</g>
<g>
</g>
<g>
</g>
<g>
</g>
</svg>
