<?xml version="1.0" encoding="utf-8"?>
<!-- Generator: Adobe Illustrator 17.0.0, SVG Export Plug-In . SVG Version: 6.00 Build 0)  -->
<!DOCTYPE svg PUBLIC "-//W3C//DTD SVG 1.1//EN" "http://www.w3.org/Graphics/SVG/1.1/DTD/svg11.dtd">
<svg version="1.1" id="SVG" xmlns="http://www.w3.org/2000/svg" xmlns:xlink="http://www.w3.org/1999/xlink" x="0px" y="0px"
	 width="60px" height="45px" viewBox="0 0 60 45" enable-background="new 0 0 60 45" xml:space="preserve">
<path id="coin" fill="#006AD3" d="M53,6.5v27c0,0.172-0.092,0.316-0.224,0.406C51.667,36.234,46.374,38,40,38
	c-2.582,0-4.979-0.294-7-0.793V40.5c0,0.172-0.092,0.316-0.224,0.406C31.667,43.234,26.374,45,20,45S8.333,43.234,7.224,40.906
	C7.092,40.816,7,40.672,7,40.5V40l0,0l0,0v-7l0,0l0,0v-7l0,0l0,0v-5.5c0-0.201,0.12-0.372,0.292-0.451C7.104,19.71,7,19.36,7,19
	c0-2.761,5.82-5,13-5c2.58,0,4.978,0.293,7,0.791V12l0,0l0,0V6.5c0-0.201,0.12-0.372,0.292-0.451C27.104,5.71,27,5.36,27,5
	c0-2.761,5.82-5,13-5s13,2.239,13,5c0,0.36-0.104,0.71-0.292,1.049C52.88,6.128,53,6.299,53,6.5z M9,40c0,1.657,4.925,3,11,3
	s11-1.343,11-3l0,0v-4.344C28.699,37.062,24.639,38,20,38s-8.699-0.938-11-2.344V40L9,40z M20,31c-4.639,0-8.699-0.938-11-2.344V33
	l0,0c0,1.657,4.925,3,11,3s11-1.343,11-3l0,0v-4.344C28.699,30.062,24.639,31,20,31z M31,26v-4.344C28.699,23.062,24.639,24,20,24
	s-8.699-0.938-11-2.344V26l0,0c0,1.657,4.925,3,11,3S31,27.657,31,26L31,26z M20,16c-6.075,0-11,1.343-11,3s4.925,3,11,3
	s11-1.343,11-3S26.075,16,20,16z M40,2c-6.075,0-11,1.343-11,3c0,1.657,4.925,3,11,3s11-1.343,11-3C51,3.343,46.075,2,40,2z
	 M51,7.656C48.699,9.062,44.639,10,40,10s-8.699-0.938-11-2.344V12c0.001,1.657,4.925,3,11,3s11-1.343,11-3l0,0V7.656z M51,14.656
	C48.699,16.062,44.639,17,40,17s-8.699-0.938-11-2.344v0.741c2.461,0.91,4,2.186,4,3.603c0,0.36-0.104,0.71-0.292,1.049
	C32.88,20.128,33,20.299,33,20.5v0.814C34.902,21.742,37.341,22,40,22c6.075,0,11-1.343,11-3l0,0V14.656z M51,21.656
	C48.699,23.062,44.639,24,40,24c-2.586,0-4.978-0.299-7-0.801v5.115C34.902,28.742,37.341,29,40,29c6.075,0,11-1.343,11-3l0,0
	V21.656z M51,28.656C48.699,30.062,44.639,31,40,31c-2.586,0-4.978-0.3-7-0.801v5.115C34.902,35.742,37.341,36,40,36
	c6.075,0,11-1.343,11-3l0,0V28.656z"/>
</svg>
