<?xml version="1.0" encoding="utf-8"?>
<!-- Generator: Adobe Illustrator 17.0.0, SVG Export Plug-In . SVG Version: 6.00 Build 0)  -->
<!DOCTYPE svg PUBLIC "-//W3C//DTD SVG 1.1//EN" "http://www.w3.org/Graphics/SVG/1.1/DTD/svg11.dtd">
<svg version="1.1" id="SVG" xmlns="http://www.w3.org/2000/svg" xmlns:xlink="http://www.w3.org/1999/xlink" x="0px" y="0px"
	 width="60px" height="45px" viewBox="0 0 60 45" enable-background="new 0 0 60 45" xml:space="preserve">
<path id="fly" fill="#006AD3" d="M53.623,2.035L35.83,43.238c-0.941,0.945-2.465,0.945-3.405,0L21.893,31.252
	c-0.94-0.946-0.94-2.479,0-3.425L44.925,7.998L17.709,26.011L6.356,16.884c-0.266-0.465-0.361-0.981-0.314-1.479l-0.038-0.037
	l0.046-0.012c0.087-0.755,0.506-1.463,1.208-1.872L52.304,0.133c0.159-0.081,0.33-0.137,0.52-0.137c0.647,0,1.171,0.529,1.171,1.182
	C53.995,1.518,53.85,1.819,53.623,2.035z M49.57,2.812L10.046,14.755c-1.184,0.691-2.422,0.681-0.641,2.301l7.872,5.91L48.406,5.391
	L24.713,28.748c-1.061,0.855-1.28,1.342,0.306,2.933l7.461,8.522c1.389,1.271,0.947,1.944,2.433-0.066L50.726,4.481
	C51.264,3.533,51.691,2.226,49.57,2.812z M17.17,32.978l5.013,5.308c0.607,0.613,0.607,1.608,0,2.221l-5.013,4.011
	c-0.614,0.595-2.199,0.672-2.813,0.077V32.899C14.971,32.285,16.555,32.364,17.17,32.978z M16.43,41.673
	c0.291,0.282,1.041,0.245,1.332-0.036l2.611-2.127c0.287-0.29,0.287-0.14,0-0.43l-2.611-2.742c-0.291-0.29-1.041-0.949-1.332-0.659
	V41.673z"/>
</svg>
