<?xml version="1.0" encoding="utf-8"?>
<!-- Generator: Adobe Illustrator 17.0.0, SVG Export Plug-In . SVG Version: 6.00 Build 0)  -->
<!DOCTYPE svg PUBLIC "-//W3C//DTD SVG 1.1//EN" "http://www.w3.org/Graphics/SVG/1.1/DTD/svg11.dtd">
<svg version="1.1" id="黑信搜索" xmlns="http://www.w3.org/2000/svg" xmlns:xlink="http://www.w3.org/1999/xlink" x="0px"
	 y="0px" width="214px" height="40px" viewBox="13 12 214 40" enable-background="new 13 12 214 40" xml:space="preserve">
<g id="XIN.BLACK">
	<g id="SEARCH">
		<path id="SUO" d="M224.298,18.642h-15.039v3.402h12.477c2.479,0,4.537,2.017,4.537,4.495v2.688h-2.856V26.54
			c0-0.924-0.757-1.639-1.681-1.639h-27.851c-0.925,0-1.681,0.714-1.681,1.639v2.688h-2.856V26.54c0-2.479,2.059-4.495,4.537-4.495
			h12.518v-3.402h-15.08v-2.856h15.08v-2.941h2.856v2.941h15.039L224.298,18.642L224.298,18.642z M202.076,45.064
			c-3.697,2.688-7.1,4.201-11.216,5.629l-0.925-2.688c3.781-1.344,6.974-2.73,10.418-5.25L202.076,45.064z M202.706,48.341h2.143
			c1.176,0,2.143-0.882,2.143-3.023v-3.613h-13.905l3.739-7.268h-4.075l4.285-8.443l2.563,1.302l-2.185,4.285h19.239v2.856h-16.593
			l-2.227,4.411h21.886c1.219,0,1.849-0.84,1.849-2.017v-2.898h2.898v2.898c0,2.856-1.681,4.873-4.747,4.873h-9.871v3.613
			c0,4.158-2.269,5.88-4.999,5.88h-2.143L202.706,48.341L202.706,48.341z M215.436,42.629l10.586,5.586l-1.303,2.521l-10.586-5.545
			L215.436,42.629z"/>
		<path id="SOU" d="M148.063,48.383h2.227c1.303,0,2.353-1.092,2.353-2.394v-8.065l-4.537,2.521l-1.386-2.479l5.923-3.318V21.415
			h-5.293v-2.856h5.293v-5.587h2.856v5.587h3.318v2.856h-3.318v11.636l3.486-1.975l1.387,2.479l-4.873,2.772v9.662
			c0,2.94-2.353,5.25-5.209,5.25h-2.227V48.383z M175.829,22.128h5.419v-3.444c0-0.924-0.673-1.681-1.597-1.681h-3.78v-2.856h3.78
			c2.437,0,4.453,2.059,4.453,4.537v9.662c0,2.479-2.017,4.495-4.453,4.495h-5.503v2.856h10.166
			c-1.765,3.402-4.579,6.469-8.275,9.031l8.905,3.654l-1.05,2.646l-10.839-4.41c-3.318,1.848-7.267,3.36-11.678,4.536l-0.672-2.772
			c3.402-0.882,6.469-1.932,9.115-3.108l-8.023-3.318l1.093-2.646l10.292,4.243c2.604-1.513,4.704-3.192,6.133-4.999h-17.979v-2.856
			h9.956v-2.856h-5.545c-2.521,0-4.495-2.017-4.495-4.495v-9.662c0-2.479,1.975-4.537,4.495-4.537h3.402v2.856h-3.402
			c-0.883,0-1.597,0.756-1.597,1.681v3.444h5.041v2.856h-5.041v3.361c0,0.924,0.714,1.638,1.597,1.638h5.545V12.845h2.856v17.139
			h5.503c0.924,0,1.597-0.714,1.597-1.638v-3.361h-5.419V22.128z"/>
	</g>
	<g id="LOGO_1_">
		<circle id="_x2E_" cx="119.999" cy="32" r="19.24"/>
		<path id="X" fill="#FFFFFF" d="M124.34,32l-4.341,4.341L115.658,32l4.341-4.341L124.34,32z M115.658,32L104.41,43.248
			c1.184,1.677,2.664,3.157,4.341,4.341l11.248-11.248L115.658,32z M124.34,32l-4.341,4.341l11.248,11.248
			c1.677-1.184,3.157-2.664,4.341-4.341L124.34,32z M131.247,16.411l-11.248,11.248L124.34,32l11.248-11.248
			C134.404,19.075,132.924,17.595,131.247,16.411z M108.751,16.411c-1.677,1.184-3.157,2.664-4.341,4.341L115.658,32l4.341-4.341
			L108.751,16.411z"/>
	</g>
	<g id="XIN">
		<path id="XIN_1_" d="M54.592,20.532l8.443-7.771V51.24H60.18V19.23c-1.261,1.218-2.395,2.185-3.655,3.361L54.592,20.532z
			 M66.102,15.954h12.056v-3.109h2.856v3.109h12.057v2.856H66.102V15.954z M66.773,40.15c0-2.479,2.017-4.537,4.495-4.537h16.635
			c2.479,0,4.537,2.059,4.537,4.537v6.595c0,2.437-2.059,4.494-4.537,4.494H71.269c-2.479,0-4.495-2.058-4.495-4.494L66.773,40.15
			L66.773,40.15z M67.067,22.843h25.037v2.856H67.067V22.843z M67.067,29.648h25.037v2.856H67.067V29.648z M69.63,46.745
			c0,0.924,0.715,1.638,1.639,1.638h16.635c0.924,0,1.639-0.714,1.639-1.638V40.15c0-0.925-0.715-1.639-1.639-1.639H71.269
			c-0.924,0-1.639,0.714-1.639,1.639V46.745z"/>
		<path id="HEI" d="M18.389,43.595l-1.849,7.561l-2.814-0.672l1.891-7.603L18.389,43.595z M49.432,42.25H14.188v-2.856h16.173
			v-3.822H15.532v-2.899h14.829V29.06H19.943c-2.479,0-4.537-2.058-4.537-4.537v-7.267c0-2.437,2.059-4.495,4.537-4.495h23.86
			c2.478,0,4.536,2.059,4.536,4.495v7.267c0,2.479-2.058,4.537-4.536,4.537H33.217v3.613h14.828v2.899H33.217v3.822h16.215V42.25z
			 M30.361,26.203V15.617H19.943c-0.924,0-1.68,0.714-1.68,1.639v7.267c0,0.924,0.756,1.68,1.68,1.68
			C19.943,26.203,30.361,26.203,30.361,26.203z M24.312,24.985l-2.856-6.511l2.646-1.176l2.856,6.553L24.312,24.985z M24.773,51.113
			V43.3h2.857v7.813H24.773z M33.217,15.617v10.586h10.586c0.924,0,1.68-0.756,1.68-1.68v-7.267c0-0.924-0.756-1.639-1.68-1.639
			C43.804,15.617,33.217,15.617,33.217,15.617z M35.991,51.113V43.3h2.856v7.813H35.991z M36.243,23.851l2.898-6.553l2.604,1.176
			l-2.898,6.511L36.243,23.851z M48.004,42.881l1.891,7.603l-2.814,0.672l-1.848-7.561L48.004,42.881z"/>
	</g>
</g>
</svg>
