<?xml version="1.0" encoding="utf-8"?>
<!-- Generator: Adobe Illustrator 17.0.0, SVG Export Plug-In . SVG Version: 6.00 Build 0)  -->
<!DOCTYPE svg PUBLIC "-//W3C//DTD SVG 1.1//EN" "http://www.w3.org/Graphics/SVG/1.1/DTD/svg11.dtd" [
	<!ENTITY st0 "display:none;">
	<!ENTITY st1 "display:inline;">
	<!ENTITY st2 "fill:#E80909;">
	<!ENTITY st3 "fill:#FF8900;">
	<!ENTITY st4 "stroke:#000000;stroke-width:4;stroke-miterlimit:10;">
	<!ENTITY st5 "fill:#006AD3;">
]>
<svg version="1.1" xmlns="http://www.w3.org/2000/svg" xmlns:xlink="http://www.w3.org/1999/xlink" x="0px" y="0px" width="430px"
	 height="100px" viewBox="0 0 430 100" style="enable-background:new 0 0 430 100;" xml:space="preserve">
<g id="OLD" style="&st0;">
	<g style="&st1;">
		<path d="M24.895-16.306l4.219,3.375C18.989,1.136,8.297,13.647-2.949,24.616l-3.797-3.375C-1.683,15.058,6.471,5.355,17.723-7.868
			C20.254-10.96,22.641-13.774,24.895-16.306z M51.895,62.585l3.797,2.531c-3.098,4.786-6.051,9.703-8.859,14.766
			c-1.127,0-4.08,0-8.859,0c-2.814,0-6.051,0-9.703,0c-7.877,0-14.344,0-19.406,0c0-11.245,0-24.607,0-40.078
			c-0.283-10.686-0.145-17.436,0.422-20.25h5.484c0,1.688,0,4.08,0,7.172c0.277,2.531,0.422,6.895,0.422,13.078
			c0,3.375-0.145,10.83-0.422,22.359c0,6.75,0,10.824,0,12.234c4.779,0,9.281,0,13.5,0c7.027,0,11.951,0,14.766,0
			c0.561-1.127,1.688-2.531,3.375-4.219C48.659,66.804,50.484,64.272,51.895,62.585z M21.52,51.616v-5.484
			c7.594,0.844,13.355,1.549,17.297,2.109c0.277-2.808,0.699-9.136,1.266-18.984c0-1.121,0.139-1.964,0.422-2.531
			c-5.629,0-12.801,0-21.516,0v-5.484c5.339,0,10.125,0,14.344,0s8.859,0,13.922,0C45.844,41.214,45,52.605,44.723,55.413
			C34.031,54.293,26.299,53.027,21.52,51.616z M56.114,11.116l-3.375,4.219c-5.629-3.652-13.361-10.402-23.203-20.25l3.375-3.797
			C39.661-3.083,47.393,3.522,56.114,11.116z M59.911,11.96h5.906c0.277,5.063,0.422,11.813,0.422,20.25
			c0,5.346-0.145,9.564-0.422,12.656c0,3.375,0,6.611,0,9.703h-5.906c0-7.871,0-15.326,0-22.359
			C59.911,25.46,59.911,18.71,59.911,11.96z M81.004-12.931h6.328c0,2.814,0,7.455,0,13.922c0.277,4.786,0.422,15.754,0.422,32.906
			c0,6.75-0.145,16.453-0.422,29.109c0,8.721,0,15.043,0,18.984c-2.531-0.566-6.75-1.41-12.656-2.531
			c-3.942-0.566-7.739-1.127-11.391-1.688l0.422-5.063c8.154,0.277,13.922,0.699,17.297,1.266c0-13.776,0-27.699,0-41.766
			C81.004,18.433,81.004,3.384,81.004-12.931z"/>
		<path d="M198.286,72.288v4.641c-2.254,0-8.582,0-18.984,0c-14.91,0.277-24.613,0.422-29.109,0.422
			c-3.375,0-9.281-0.145-17.719-0.422c-12.096,0-21.239,0-27.422,0v-4.641c4.219,0,12.933,0,26.156,0
			c9.842-0.276,16.17-0.422,18.984-0.422c6.467,0,15.887,0.146,28.266,0.422C187.739,72.288,194.344,72.288,198.286,72.288z
			 M129.52,51.616l-4.641,2.531c-4.219-8.998-9.564-21.654-16.031-37.969l4.641-2.109C120.239,28.413,125.579,40.931,129.52,51.616z
			 M136.27-11.665h5.906c0,14.344,0,27,0,37.969c0,12.379,0,26.302,0,41.766h-5.906c0-14.62,0-28.542,0-41.766
			C136.27,15.618,136.27,2.962,136.27-11.665z M162.004-12.087h5.484c0,5.906,0,12.939,0,21.094
			c0.277,7.033,0.422,12.656,0.422,16.875c0,3.942-0.145,10.125-0.422,18.563c0,10.125,0,17.864,0,23.203h-5.484
			c0-4.779-0.145-12.089-0.422-21.938c0-8.998,0-15.609,0-19.828c0-3.936,0-9.281,0-16.031
			C161.86,1.136,162.004-6.181,162.004-12.087z M192.801,15.335l4.641,2.531c-6.75,14.627-13.361,26.439-19.828,35.438l-3.797-2.531
			C180.567,37.839,186.895,26.027,192.801,15.335z"/>
	</g>
	<g style="&st1;">
		<path style="&st2;" d="M228.992,59.436c3.983,2.157,7.886,3.751,11.707,4.781c3.82,1.032,7.675,1.547,11.566,1.547
			c6.281,0,11.331-1.733,15.152-5.203c3.82-3.468,5.73-8.038,5.73-13.71c0-5.812-2.039-10.09-6.117-12.832
			s-10.477-4.113-19.195-4.113c-0.141,0-0.715,0.035-1.723,0.105c-1.009,0.07-1.958,0.13-2.848,0.176l-0.07-9.07l24.188-24.75
			h-38.391v-10.969h54.141v12.375L259.93,20.975c8.25,0.329,14.73,2.872,19.441,7.629c4.711,4.758,7.066,11.099,7.066,19.02
			c0,9.047-3.129,16.196-9.387,21.445c-6.258,5.251-14.801,7.875-25.629,7.875c-3.375,0-6.938-0.376-10.688-1.125
			c-3.751-0.749-7.664-1.898-11.742-3.445V59.436z"/>
		<path style="&st2;" d="M336.514-15.306h16.453c-5.579,4.876-10.875,10.149-15.891,15.82c-5.017,5.672-10.079,12.141-15.188,19.406
			c1.781-0.703,3.609-1.23,5.484-1.582c1.874-0.352,3.772-0.527,5.695-0.527c8.016,0,14.684,2.719,20.004,8.156
			c5.319,5.438,7.98,12.259,7.98,20.461c0,8.954-2.789,16.231-8.367,21.832c-5.579,5.603-12.821,8.402-21.727,8.402
			c-9.328,0-16.781-2.858-22.359-8.578c-5.579-5.718-8.367-13.359-8.367-22.921c0-9.046,2.929-18.457,8.789-28.23
			C314.881,7.159,324.044-3.587,336.514-15.306z M330.959,65.482c5.344,0,9.527-1.675,12.551-5.027
			c3.023-3.351,4.535-7.98,4.535-13.886c0-5.484-1.547-9.832-4.641-13.043c-3.094-3.21-7.359-4.816-12.797-4.816
			c-5.298,0-9.517,1.665-12.656,4.992c-3.141,3.329-4.711,7.759-4.711,13.289c0,5.625,1.593,10.114,4.781,13.464
			C321.209,63.808,325.521,65.482,330.959,65.482z"/>
		<path style="&st2;" d="M380.755-14.603h45.211v10.828h-33.961l-0.984,18.703c0.703-0.046,1.477-0.081,2.32-0.105
			c0.844-0.023,2.133-0.035,3.867-0.035c9.234,0,16.793,2.696,22.676,8.086c5.882,5.391,8.824,12.375,8.824,20.953
			c0,10.219-4.219,18.246-12.656,24.082s-20.109,8.754-35.016,8.754h-3.445v-11.18c0.563,0.048,1.171,0.083,1.828,0.105
			c0.656,0.024,1.641,0.035,2.953,0.035c10.593,0,18.809-1.969,24.645-5.906s8.754-9.467,8.754-16.593
			c0-5.437-2.016-9.726-6.047-12.867c-4.032-3.14-9.609-4.711-16.734-4.711c-1.782,0-3.927,0.105-6.434,0.316
			c-2.508,0.211-5.403,0.527-8.684,0.949L380.755-14.603z"/>
	</g>
</g>
<g id="LOGO">
	<g id="CY365">
		<g id="_x33_65">
			<rect id="D" x="411.698" y="4.585" style="&st3;" width="12.14" height="10.83"/>
			<path id="_x35_" style="&st2;" d="M426.578,63.015c0,10.22-4.22,18.24-12.66,24.08c-8.44,5.83-20.11,8.75-35.01,8.75h-3.45
				v-11.18c0.56,0.05,1.17,0.09,1.83,0.11c0.66,0.02,1.64,0.03,2.95,0.03c10.59,0,18.81-1.97,24.65-5.9
				c5.83-3.94,8.75-9.47,8.75-16.6c0-5.43-2.02-9.72-6.05-12.86c-4.03-3.14-9.61-4.71-16.73-4.71c-1.78,0-3.93,0.1-6.43,0.31
				c-2.51,0.21-5.41,0.53-8.69,0.95l2.88-41.41h23.08v10.83h-11.83l-0.98,18.7c0.7-0.05,1.48-0.08,2.32-0.11
				c0.84-0.02,2.13-0.03,3.87-0.03c9.23,0,16.79,2.69,22.67,8.08C423.638,47.445,426.578,54.435,426.578,63.015z"/>
			<path id="_x36_" style="&st2;" d="M350.938,45.155c-5.32-5.44-11.99-8.16-20-8.16c-1.92,0-3.82,0.18-5.7,0.53
				c-1.87,0.35-3.7,0.88-5.48,1.58c3.7-5.25,7.37-10.09,11.03-14.52h-15.81c-3.18,3.98-5.87,7.82-8.09,11.53
				c-5.86,9.78-8.79,19.19-8.79,28.23c0,9.56,2.79,17.21,8.37,22.92c5.58,5.72,13.03,8.58,22.36,8.58c8.9,0,16.15-2.8,21.73-8.4
				c5.57-5.6,8.36-12.88,8.36-21.83C358.918,57.415,356.258,50.595,350.938,45.155z M341.378,79.645
				c-3.02,3.35-7.21,5.02-12.55,5.02c-5.44,0-9.75-1.67-12.94-5.02c-3.19-3.36-4.78-7.84-4.78-13.47c0-5.53,1.57-9.96,4.71-13.29
				c3.14-3.33,7.36-4.99,12.66-4.99c5.43,0,9.7,1.61,12.79,4.82c3.1,3.21,4.64,7.55,4.64,13.04
				C345.908,71.655,344.398,76.285,341.378,79.645z M350.838,3.875c-3.87,3.38-7.6,6.95-11.19,10.71h-16
				c3.26-3.47,6.83-7.04,10.73-10.71H350.838z"/>
			<path id="_x33_" style="&st2;" d="M267.758,92.685c-5.16,2.3-11.31,3.44-18.47,3.44c-3.37,0-6.94-0.37-10.69-1.12
				s-7.66-1.9-11.74-3.45v-12.93c3.99,2.15,7.89,3.75,11.71,4.78c3.82,1.03,7.67,1.54,11.57,1.54c3.17,0,6.02-0.44,8.56-1.32
				L267.758,92.685z M277.238,47.785c-4.71-4.75-11.19-7.3-19.44-7.62l23.2-23.21V4.585h-54.14v10.97h38.39l-24.18,24.75l0.07,9.07
				c0.89-0.05,1.83-0.11,2.84-0.18c1.01-0.07,1.59-0.11,1.73-0.11c8.71,0,15.11,1.38,19.19,4.12c4.08,2.74,6.12,7.02,6.12,12.83
				c0,4.7-1.31,8.64-3.94,11.82l9.19,9.19c5.36-5.12,8.04-11.87,8.04-20.24C284.308,58.885,281.948,52.545,277.238,47.785z"/>
		</g>
		<g id="CY">
			<path id="Y" style="&st4;" d="M208.453,89.445v4.641c-2.254,0-8.582,0-18.984,0c-14.91,0.277-24.613,0.422-29.109,0.422
				c-3.375,0-9.281-0.145-17.719-0.422c-12.096,0-21.239,0-27.422,0v-4.641c4.219,0,12.933,0,26.156,0
				c9.842-0.276,16.17-0.422,18.984-0.422c6.467,0,15.887,0.146,28.266,0.422C197.907,89.445,204.512,89.445,208.453,89.445z
				 M139.688,68.773l-4.641,2.531c-4.219-8.998-9.564-21.654-16.031-37.969l4.641-2.109
				C130.407,45.57,135.746,58.088,139.688,68.773z M146.438,5.492h5.906c0,14.344,0,27,0,37.969c0,12.379,0,26.302,0,41.766h-5.906
				c0-14.62,0-28.542,0-41.766C146.438,32.775,146.438,20.119,146.438,5.492z M172.172,5.07h5.484c0,5.906,0,12.939,0,21.094
				c0.277,7.033,0.422,12.656,0.422,16.875c0,3.942-0.145,10.125-0.422,18.563c0,10.125,0,17.864,0,23.203h-5.484
				c0-4.779-0.145-12.089-0.422-21.938c0-8.998,0-15.609,0-19.828c0-3.936,0-9.281,0-16.031
				C172.028,18.293,172.172,10.977,172.172,5.07z M202.969,32.492l4.641,2.531c-6.75,14.627-13.361,26.439-19.828,35.438
				l-3.797-2.531C190.735,54.997,197.063,43.184,202.969,32.492z"/>
			<path id="C" style="&st4;" d="M35.063,0.852l4.219,3.375C29.157,18.293,18.465,30.805,7.219,41.773l-3.797-3.375
				c5.063-6.183,13.217-15.886,24.469-29.109C30.422,6.197,32.808,3.383,35.063,0.852z M62.063,79.742l3.797,2.531
				C62.762,87.06,59.808,91.977,57,97.039c-1.127,0-4.08,0-8.859,0c-2.814,0-6.051,0-9.703,0c-7.877,0-14.344,0-19.406,0
				c0-11.245,0-24.607,0-40.078c-0.283-10.686-0.145-17.436,0.422-20.25h5.484c0,1.688,0,4.08,0,7.172
				c0.277,2.531,0.422,6.895,0.422,13.078c0,3.375-0.145,10.83-0.422,22.359c0,6.75,0,10.824,0,12.234c4.779,0,9.281,0,13.5,0
				c7.027,0,11.951,0,14.766,0c0.561-1.127,1.688-2.531,3.375-4.219C58.827,83.961,60.652,81.43,62.063,79.742z M31.688,68.773
				v-5.484c7.594,0.844,13.355,1.549,17.297,2.109c0.277-2.808,0.699-9.136,1.266-18.984c0-1.121,0.139-1.964,0.422-2.531
				c-5.629,0-12.801,0-21.516,0v-5.484c5.339,0,10.125,0,14.344,0s8.859,0,13.922,0c-1.411,19.973-2.254,31.364-2.531,34.172
				C44.199,71.45,36.467,70.185,31.688,68.773z M66.282,28.273l-3.375,4.219c-5.629-3.652-13.361-10.402-23.203-20.25l3.375-3.797
				C49.828,14.075,57.561,20.68,66.282,28.273z M70.078,29.117h5.906c0.277,5.063,0.422,11.813,0.422,20.25
				c0,5.346-0.145,9.564-0.422,12.656c0,3.375,0,6.611,0,9.703h-5.906c0-7.871,0-15.326,0-22.359
				C70.078,42.617,70.078,35.867,70.078,29.117z M91.172,4.227H97.5c0,2.814,0,7.455,0,13.922
				c0.277,4.786,0.422,15.754,0.422,32.906c0,6.75-0.145,16.453-0.422,29.109c0,8.721,0,15.043,0,18.984
				c-2.531-0.566-6.75-1.41-12.656-2.531c-3.942-0.566-7.739-1.127-11.391-1.688l0.422-5.063c8.154,0.277,13.922,0.699,17.297,1.266
				c0-13.776,0-27.699,0-41.766C91.172,35.59,91.172,20.541,91.172,4.227z"/>
		</g>
	</g>
</g>
<g id="LOGO_x5F_BLUE" style="&st0;">
	<g id="CY365_1_" style="&st1;">
		<g id="_x33_65_1_">
			<rect id="D_1_" x="411.698" y="4.585" style="&st3;" width="12.14" height="10.83"/>
			<path id="_x35__1_" style="&st5;" d="M426.578,63.015c0,10.22-4.22,18.24-12.66,24.08c-8.44,5.83-20.11,8.75-35.01,8.75h-3.45
				v-11.18c0.56,0.05,1.17,0.09,1.83,0.11c0.66,0.02,1.64,0.03,2.95,0.03c10.59,0,18.81-1.97,24.65-5.9
				c5.83-3.94,8.75-9.47,8.75-16.6c0-5.43-2.02-9.72-6.05-12.86c-4.03-3.14-9.61-4.71-16.73-4.71c-1.78,0-3.93,0.1-6.43,0.31
				c-2.51,0.21-5.41,0.53-8.69,0.95l2.88-41.41h23.08v10.83h-11.83l-0.98,18.7c0.7-0.05,1.48-0.08,2.32-0.11
				c0.84-0.02,2.13-0.03,3.87-0.03c9.23,0,16.79,2.69,22.67,8.08C423.638,47.445,426.578,54.435,426.578,63.015z"/>
			<path id="_x36__1_" style="&st5;" d="M350.938,45.155c-5.32-5.44-11.99-8.16-20-8.16c-1.92,0-3.82,0.18-5.7,0.53
				c-1.87,0.35-3.7,0.88-5.48,1.58c3.7-5.25,7.37-10.09,11.03-14.52h-15.81c-3.18,3.98-5.87,7.82-8.09,11.53
				c-5.86,9.78-8.79,19.19-8.79,28.23c0,9.56,2.79,17.21,8.37,22.92c5.58,5.72,13.03,8.58,22.36,8.58c8.9,0,16.15-2.8,21.73-8.4
				c5.57-5.6,8.36-12.88,8.36-21.83C358.918,57.415,356.258,50.595,350.938,45.155z M341.378,79.645
				c-3.02,3.35-7.21,5.02-12.55,5.02c-5.44,0-9.75-1.67-12.94-5.02c-3.19-3.36-4.78-7.84-4.78-13.47c0-5.53,1.57-9.96,4.71-13.29
				c3.14-3.33,7.36-4.99,12.66-4.99c5.43,0,9.7,1.61,12.79,4.82c3.1,3.21,4.64,7.55,4.64,13.04
				C345.908,71.655,344.398,76.285,341.378,79.645z M350.838,3.875c-3.87,3.38-7.6,6.95-11.19,10.71h-16
				c3.26-3.47,6.83-7.04,10.73-10.71H350.838z"/>
			<path id="_x33__1_" style="&st5;" d="M267.758,92.685c-5.16,2.3-11.31,3.44-18.47,3.44c-3.37,0-6.94-0.37-10.69-1.12
				s-7.66-1.9-11.74-3.45v-12.93c3.99,2.15,7.89,3.75,11.71,4.78c3.82,1.03,7.67,1.54,11.57,1.54c3.17,0,6.02-0.44,8.56-1.32
				L267.758,92.685z M277.238,47.785c-4.71-4.75-11.19-7.3-19.44-7.62l23.2-23.21V4.585h-54.14v10.97h38.39l-24.18,24.75l0.07,9.07
				c0.89-0.05,1.83-0.11,2.84-0.18c1.01-0.07,1.59-0.11,1.73-0.11c8.71,0,15.11,1.38,19.19,4.12c4.08,2.74,6.12,7.02,6.12,12.83
				c0,4.7-1.31,8.64-3.94,11.82l9.19,9.19c5.36-5.12,8.04-11.87,8.04-20.24C284.308,58.885,281.948,52.545,277.238,47.785z"/>
		</g>
		<g id="CY_1_">
			<path id="Y_1_" style="&st4;" d="M208.453,89.445v4.641c-2.254,0-8.582,0-18.984,0c-14.91,0.277-24.613,0.422-29.109,0.422
				c-3.375,0-9.281-0.145-17.719-0.422c-12.096,0-21.239,0-27.422,0v-4.641c4.219,0,12.933,0,26.156,0
				c9.842-0.276,16.17-0.422,18.984-0.422c6.467,0,15.887,0.146,28.266,0.422C197.907,89.445,204.512,89.445,208.453,89.445z
				 M139.688,68.773l-4.641,2.531c-4.219-8.998-9.564-21.654-16.031-37.969l4.641-2.109
				C130.407,45.57,135.746,58.088,139.688,68.773z M146.438,5.492h5.906c0,14.344,0,27,0,37.969c0,12.379,0,26.302,0,41.766h-5.906
				c0-14.62,0-28.542,0-41.766C146.438,32.775,146.438,20.119,146.438,5.492z M172.172,5.07h5.484c0,5.906,0,12.939,0,21.094
				c0.277,7.033,0.422,12.656,0.422,16.875c0,3.942-0.145,10.125-0.422,18.563c0,10.125,0,17.864,0,23.203h-5.484
				c0-4.779-0.145-12.089-0.422-21.938c0-8.998,0-15.609,0-19.828c0-3.936,0-9.281,0-16.031
				C172.028,18.293,172.172,10.977,172.172,5.07z M202.969,32.492l4.641,2.531c-6.75,14.627-13.361,26.439-19.828,35.438
				l-3.797-2.531C190.735,54.997,197.063,43.184,202.969,32.492z"/>
			<path id="C_1_" style="&st4;" d="M35.063,0.852l4.219,3.375C29.157,18.293,18.465,30.805,7.219,41.773l-3.797-3.375
				c5.063-6.183,13.217-15.886,24.469-29.109C30.422,6.197,32.808,3.383,35.063,0.852z M62.063,79.742l3.797,2.531
				C62.762,87.06,59.808,91.977,57,97.039c-1.127,0-4.08,0-8.859,0c-2.814,0-6.051,0-9.703,0c-7.877,0-14.344,0-19.406,0
				c0-11.245,0-24.607,0-40.078c-0.283-10.686-0.145-17.436,0.422-20.25h5.484c0,1.688,0,4.08,0,7.172
				c0.277,2.531,0.422,6.895,0.422,13.078c0,3.375-0.145,10.83-0.422,22.359c0,6.75,0,10.824,0,12.234c4.779,0,9.281,0,13.5,0
				c7.027,0,11.951,0,14.766,0c0.561-1.127,1.688-2.531,3.375-4.219C58.827,83.961,60.652,81.43,62.063,79.742z M31.688,68.773
				v-5.484c7.594,0.844,13.355,1.549,17.297,2.109c0.277-2.808,0.699-9.136,1.266-18.984c0-1.121,0.139-1.964,0.422-2.531
				c-5.629,0-12.801,0-21.516,0v-5.484c5.339,0,10.125,0,14.344,0s8.859,0,13.922,0c-1.411,19.973-2.254,31.364-2.531,34.172
				C44.199,71.45,36.467,70.185,31.688,68.773z M66.282,28.273l-3.375,4.219c-5.629-3.652-13.361-10.402-23.203-20.25l3.375-3.797
				C49.828,14.075,57.561,20.68,66.282,28.273z M70.078,29.117h5.906c0.277,5.063,0.422,11.813,0.422,20.25
				c0,5.346-0.145,9.564-0.422,12.656c0,3.375,0,6.611,0,9.703h-5.906c0-7.871,0-15.326,0-22.359
				C70.078,42.617,70.078,35.867,70.078,29.117z M91.172,4.227H97.5c0,2.814,0,7.455,0,13.922
				c0.277,4.786,0.422,15.754,0.422,32.906c0,6.75-0.145,16.453-0.422,29.109c0,8.721,0,15.043,0,18.984
				c-2.531-0.566-6.75-1.41-12.656-2.531c-3.942-0.566-7.739-1.127-11.391-1.688l0.422-5.063c8.154,0.277,13.922,0.699,17.297,1.266
				c0-13.776,0-27.699,0-41.766C91.172,35.59,91.172,20.541,91.172,4.227z"/>
		</g>
	</g>
</g>
</svg>
