<?xml version="1.0" encoding="utf-8"?>
<!-- Generator: Adobe Illustrator 17.0.0, SVG Export Plug-In . SVG Version: 6.00 Build 0)  -->
<!DOCTYPE svg PUBLIC "-//W3C//DTD SVG 1.1//EN" "http://www.w3.org/Graphics/SVG/1.1/DTD/svg11.dtd">
<svg version="1.1" id="LOGO_x5F_BLUE" xmlns="http://www.w3.org/2000/svg" xmlns:xlink="http://www.w3.org/1999/xlink" x="0px"
	 y="0px" width="430px" height="100px" viewBox="0 0 430 100" enable-background="new 0 0 430 100" xml:space="preserve">
<g id="CY365_1_">
	<g id="_x33_65_1_">
		<rect id="D_1_" x="411.698" y="4.585" fill="#FF8900" width="12.14" height="10.83"/>
		<path id="_x35__1_" fill="#006AD3" d="M426.578,63.015c0,10.22-4.22,18.24-12.66,24.08c-8.44,5.83-20.11,8.75-35.01,8.75h-3.45
			v-11.18c0.56,0.05,1.17,0.09,1.83,0.11c0.66,0.02,1.64,0.03,2.95,0.03c10.59,0,18.81-1.97,24.65-5.9
			c5.83-3.94,8.75-9.47,8.75-16.6c0-5.43-2.02-9.72-6.05-12.86c-4.03-3.14-9.61-4.71-16.73-4.71c-1.78,0-3.93,0.1-6.43,0.31
			c-2.51,0.21-5.41,0.53-8.69,0.95l2.88-41.41h23.08v10.83h-11.83l-0.98,18.7c0.7-0.05,1.48-0.08,2.32-0.11
			c0.84-0.02,2.13-0.03,3.87-0.03c9.23,0,16.79,2.69,22.67,8.08C423.638,47.445,426.578,54.435,426.578,63.015z"/>
		<path id="_x36__1_" fill="#006AD3" d="M350.938,45.155c-5.32-5.44-11.99-8.16-20-8.16c-1.92,0-3.82,0.18-5.7,0.53
			c-1.87,0.35-3.7,0.88-5.48,1.58c3.7-5.25,7.37-10.09,11.03-14.52h-15.81c-3.18,3.98-5.87,7.82-8.09,11.53
			c-5.86,9.78-8.79,19.19-8.79,28.23c0,9.56,2.79,17.21,8.37,22.92c5.58,5.72,13.03,8.58,22.36,8.58c8.9,0,16.15-2.8,21.73-8.4
			c5.57-5.6,8.36-12.88,8.36-21.83C358.918,57.415,356.258,50.595,350.938,45.155z M341.378,79.645c-3.02,3.35-7.21,5.02-12.55,5.02
			c-5.44,0-9.75-1.67-12.94-5.02c-3.19-3.36-4.78-7.84-4.78-13.47c0-5.53,1.57-9.96,4.71-13.29c3.14-3.33,7.36-4.99,12.66-4.99
			c5.43,0,9.7,1.61,12.79,4.82c3.1,3.21,4.64,7.55,4.64,13.04C345.908,71.655,344.398,76.285,341.378,79.645z M350.838,3.875
			c-3.87,3.38-7.6,6.95-11.19,10.71h-16c3.26-3.47,6.83-7.04,10.73-10.71H350.838z"/>
		<path id="_x33__1_" fill="#006AD3" d="M267.758,92.685c-5.16,2.3-11.31,3.44-18.47,3.44c-3.37,0-6.94-0.37-10.69-1.12
			s-7.66-1.9-11.74-3.45v-12.93c3.99,2.15,7.89,3.75,11.71,4.78c3.82,1.03,7.67,1.54,11.57,1.54c3.17,0,6.02-0.44,8.56-1.32
			L267.758,92.685z M277.238,47.785c-4.71-4.75-11.19-7.3-19.44-7.62l23.2-23.21V4.585h-54.14v10.97h38.39l-24.18,24.75l0.07,9.07
			c0.89-0.05,1.83-0.11,2.84-0.18c1.01-0.07,1.59-0.11,1.73-0.11c8.71,0,15.11,1.38,19.19,4.12c4.08,2.74,6.12,7.02,6.12,12.83
			c0,4.7-1.31,8.64-3.94,11.82l9.19,9.19c5.36-5.12,8.04-11.87,8.04-20.24C284.308,58.885,281.948,52.545,277.238,47.785z"/>
	</g>
	<g id="CY_1_">
		<path id="Y_1_" stroke="#000000" stroke-width="4" stroke-miterlimit="10" d="M208.453,89.445v4.641c-2.254,0-8.582,0-18.984,0
			c-14.91,0.277-24.613,0.422-29.109,0.422c-3.375,0-9.281-0.145-17.719-0.422c-12.096,0-21.239,0-27.422,0v-4.641
			c4.219,0,12.933,0,26.156,0c9.842-0.276,16.17-0.422,18.984-0.422c6.467,0,15.887,0.146,28.266,0.422
			C197.907,89.445,204.512,89.445,208.453,89.445z M139.688,68.773l-4.641,2.531c-4.219-8.998-9.564-21.654-16.031-37.969
			l4.641-2.109C130.407,45.57,135.746,58.088,139.688,68.773z M146.438,5.492h5.906c0,14.344,0,27,0,37.969
			c0,12.379,0,26.302,0,41.766h-5.906c0-14.62,0-28.542,0-41.766C146.438,32.775,146.438,20.119,146.438,5.492z M172.172,5.07h5.484
			c0,5.906,0,12.939,0,21.094c0.277,7.033,0.422,12.656,0.422,16.875c0,3.942-0.145,10.125-0.422,18.563c0,10.125,0,17.864,0,23.203
			h-5.484c0-4.779-0.145-12.089-0.422-21.938c0-8.998,0-15.609,0-19.828c0-3.936,0-9.281,0-16.031
			C172.028,18.293,172.172,10.977,172.172,5.07z M202.969,32.492l4.641,2.531c-6.75,14.627-13.361,26.439-19.828,35.438
			l-3.797-2.531C190.735,54.997,197.063,43.184,202.969,32.492z"/>
		<path id="C_1_" stroke="#000000" stroke-width="4" stroke-miterlimit="10" d="M35.063,0.852l4.219,3.375
			C29.157,18.293,18.465,30.805,7.219,41.773l-3.797-3.375c5.063-6.183,13.217-15.886,24.469-29.109
			C30.422,6.197,32.808,3.383,35.063,0.852z M62.063,79.742l3.797,2.531C62.762,87.06,59.808,91.977,57,97.039
			c-1.127,0-4.08,0-8.859,0c-2.814,0-6.051,0-9.703,0c-7.877,0-14.344,0-19.406,0c0-11.245,0-24.607,0-40.078
			c-0.283-10.686-0.145-17.436,0.422-20.25h5.484c0,1.688,0,4.08,0,7.172c0.277,2.531,0.422,6.895,0.422,13.078
			c0,3.375-0.145,10.83-0.422,22.359c0,6.75,0,10.824,0,12.234c4.779,0,9.281,0,13.5,0c7.027,0,11.951,0,14.766,0
			c0.561-1.127,1.688-2.531,3.375-4.219C58.827,83.961,60.652,81.43,62.063,79.742z M31.688,68.773v-5.484
			c7.594,0.844,13.355,1.549,17.297,2.109c0.277-2.808,0.699-9.136,1.266-18.984c0-1.121,0.139-1.964,0.422-2.531
			c-5.629,0-12.801,0-21.516,0v-5.484c5.339,0,10.125,0,14.344,0s8.859,0,13.922,0c-1.411,19.973-2.254,31.364-2.531,34.172
			C44.199,71.45,36.467,70.185,31.688,68.773z M66.282,28.273l-3.375,4.219c-5.629-3.652-13.361-10.402-23.203-20.25l3.375-3.797
			C49.828,14.075,57.561,20.68,66.282,28.273z M70.078,29.117h5.906c0.277,5.063,0.422,11.813,0.422,20.25
			c0,5.346-0.145,9.564-0.422,12.656c0,3.375,0,6.611,0,9.703h-5.906c0-7.871,0-15.326,0-22.359
			C70.078,42.617,70.078,35.867,70.078,29.117z M91.172,4.227H97.5c0,2.814,0,7.455,0,13.922c0.277,4.786,0.422,15.754,0.422,32.906
			c0,6.75-0.145,16.453-0.422,29.109c0,8.721,0,15.043,0,18.984c-2.531-0.566-6.75-1.41-12.656-2.531
			c-3.942-0.566-7.739-1.127-11.391-1.688l0.422-5.063c8.154,0.277,13.922,0.699,17.297,1.266c0-13.776,0-27.699,0-41.766
			C91.172,35.59,91.172,20.541,91.172,4.227z"/>
	</g>
</g>
</svg>
