<?xml version="1.0" encoding="utf-8"?>
<!-- Generator: Adobe Illustrator 17.0.0, SVG Export Plug-In . SVG Version: 6.00 Build 0)  -->
<!DOCTYPE svg PUBLIC "-//W3C//DTD SVG 1.1//EN" "http://www.w3.org/Graphics/SVG/1.1/DTD/svg11.dtd" [
	<!ENTITY st0 "fill:#E6352D;">
]>
<svg version="1.1" id="SVG" xmlns="http://www.w3.org/2000/svg" xmlns:xlink="http://www.w3.org/1999/xlink" x="0px" y="0px"
	 width="60px" height="45px" viewBox="0 0 60 45" style="enable-background:new 0 0 60 45;" xml:space="preserve">
<path id="money" style="&st0;" d="M59.771,0C59.847,0.765,59.924,1.531,60,2.296C40.078,3.826,20.151,5.357,0.229,6.888
	C0.096,6.532,0.109,5.92,0.115,5.395c-0.039,0-0.077,0-0.115,0C0,5.128,0,4.86,0,4.592C19.922,3.061,39.849,1.53,59.771,0z
	 M59.885,8.036C59.879,8.844,59.936,9.682,60,10.332c-0.749,0.277-2.145,0.12-3.098,0.114c-0.468,0.402-2.251-0.091-2.982,0.115
	c0,0.038,0,0.077,0,0.115c-0.994,0-1.989,0-2.983,0c0,0.038,0,0.077,0,0.115c-0.497,0-0.994,0-1.491,0c-0.498,0-0.995,0-1.492,0
	c0,0.038,0,0.076,0,0.115c-0.115,0-0.229,0-0.344,0c-0.88,0-1.759,0-2.639,0c-0.641,0.18-1.699,0.095-2.524,0.114
	c-0.153,0-0.306,0-0.458,0c0,0.039,0,0.077,0,0.115c-0.345,0-0.689,0-1.033,0c-0.65,0-1.3,0-1.95,0c0,0.038,0,0.077,0,0.115
	c-0.039,0-0.077,0-0.115,0c-0.928,0.154-2.103-0.102-2.868,0.115c-0.956,0-1.912,0-2.868,0c0,0.038,0,0.076,0,0.115
	c-0.994,0-1.989,0-2.983,0c0,0.038,0,0.076,0,0.114c-0.421,0-0.841,0-1.262,0c-0.573,0-1.147,0-1.721,0c0,0.039,0,0.077,0,0.115
	c-0.994,0-1.988,0-2.982,0c0,0.038,0,0.077,0,0.115c-0.421,0-0.842,0-1.262,0c-0.574,0-1.148,0-1.721,0c0,0.038,0,0.077,0,0.115
	c-0.994,0-1.989,0-2.983,0c0,0.038,0,0.076,0,0.115c-0.994,0-1.989,0-2.983,0c0,0.038,0,0.076,0,0.114c-0.497,0-0.994,0-1.491,0
	c-0.727,0.039-1.453,0.077-2.18,0.115c-0.765,0-1.53,0-2.294,0c0,0.038,0,0.077,0,0.115c-0.115,0-0.23,0-0.345,0
	c-0.863,0.039-1.958-0.077-2.638,0.115c-0.994,0-1.989,0-2.983,0c0,0.038,0,0.076,0,0.115c-0.395,0.111-3.098,0-3.098,0
	c-0.038,0-0.076,0-0.114,0c0-0.613,0-1.225,0-1.837c-0.039,0-0.077,0-0.115,0c0-0.115,0-0.23,0-0.345
	c0.663-0.245,1.894-0.12,2.753-0.114c0.469-0.402,2.251,0.09,2.983-0.115c0-0.038,0-0.077,0-0.115c0.994,0,1.989,0,2.983,0
	c1.657-0.465,4.308,0.121,5.966-0.344c0.994,0,1.988,0,2.982,0c0-0.039,0-0.077,0-0.115c0.956,0,1.912,0,2.868,0
	c1.657-0.466,4.309,0.121,5.966-0.345c0.994,0,1.989,0,2.983,0c0-0.038,0-0.076,0-0.114c0.994,0,1.988,0,2.983,0
	c0-0.039,0-0.077,0-0.115c0.994,0,1.988,0,2.982,0c0-0.038,0-0.077,0-0.115c0.497,0,0.995,0,1.492,0s0.994,0,1.491,0
	c0-0.038,0-0.076,0-0.115c0.115,0,0.23,0,0.344,0c0.88,0,1.759,0,2.639,0c0-0.038,0-0.076,0-0.115c0.994,0,1.989,0,2.983,0
	c0-0.038,0-0.076,0-0.114c0.42,0,0.841,0,1.262,0c0.573,0,1.147,0,1.72,0c0-0.039,0-0.077,0-0.115c0.995,0,1.989,0,2.983,0
	c0-0.038,0-0.077,0-0.115c0.994,0,1.989,0,2.983,0c0-0.038,0-0.076,0-0.115c0.994,0,1.989,0,2.983,0c0-0.038,0-0.076,0-0.114
	c0.497,0,0.994,0,1.491,0C58.509,8.112,59.197,8.074,59.885,8.036z M0.115,16.186c19.921,0,39.849,0,59.77,0
	c0,9.604,0,19.21,0,28.814c-19.921,0-39.849,0-59.77,0C0.115,35.396,0.115,25.79,0.115,16.186z M2.524,18.482
	c0,1.339,0,2.679,0,4.018c2.382,0.015,4.058-1.568,4.015-4.018C5.201,18.482,3.862,18.482,2.524,18.482z M8.948,18.482
	c0.039,3.727-2.723,6.348-6.424,6.314c0,3.864,0,7.73,0,11.594c3.778-0.044,6.469,2.529,6.424,6.314c14.033,0,28.071,0,42.104,0
	c-0.042-3.788,2.643-6.355,6.424-6.314c0-3.864,0-7.73,0-11.594c-3.693,0.04-6.469-2.594-6.424-6.314
	C37.019,18.482,22.981,18.482,8.948,18.482z M53.461,18.482c-0.036,2.458,1.625,4.025,4.015,4.018c0-1.339,0-2.679,0-4.018
	C56.138,18.482,54.799,18.482,53.461,18.482z M30.172,23.533c2.624-0.036,4.762,0.914,5.851,2.411
	c0.191,0.153,0.382,0.306,0.574,0.459c0,0.077,0,0.153,0,0.23c0.076,0.038,0.153,0.076,0.229,0.114c0,0.077,0,0.154,0,0.23
	c0.076,0.038,0.153,0.077,0.229,0.115c0,0.076,0,0.153,0,0.229c0.039,0,0.077,0,0.115,0c0.038,0.153,0.077,0.307,0.115,0.46
	c0.038,0,0.076,0,0.115,0c0.038,0.229,0.076,0.459,0.114,0.688c0.039,0,0.077,0,0.115,0c0,0.115,0,0.23,0,0.345
	c0.038,0,0.077,0,0.115,0c0.192,0.58,0.193,2.757,0,3.329c-0.038,0-0.077,0-0.115,0c-0.038,0.268-0.076,0.536-0.115,0.803
	c-0.038,0-0.076,0-0.114,0c0,0.077,0,0.153,0,0.23c-0.039,0-0.077,0-0.115,0c0,0.077,0,0.153,0,0.23c-0.038,0-0.077,0-0.115,0
	c0,0.076,0,0.153,0,0.229c-0.038,0-0.076,0-0.115,0c0,0.077,0,0.153,0,0.23c-0.038,0-0.076,0-0.114,0c0,0.076,0,0.153,0,0.229
	c-0.077,0.039-0.153,0.077-0.23,0.115c0,0.077,0,0.153,0,0.23c-0.114,0.076-0.229,0.153-0.344,0.229c0,0.077,0,0.153,0,0.23
	c-0.076,0.038-0.153,0.076-0.229,0.115c-0.192,0.229-0.383,0.459-0.574,0.689c-0.076,0-0.153,0-0.229,0
	c-0.115,0.153-0.23,0.306-0.345,0.459c-0.153,0.038-0.306,0.076-0.458,0.115c-0.039,0.076-0.077,0.153-0.115,0.229
	c-0.077,0-0.153,0-0.23,0c0,0.038,0,0.077,0,0.115c-0.153,0.038-0.306,0.076-0.459,0.115c0,0.038,0,0.076,0,0.114
	c-0.114,0-0.229,0-0.344,0c0,0.039,0,0.077,0,0.115c-0.076,0-0.153,0-0.229,0c0,0.039,0,0.077,0,0.115c-0.115,0-0.23,0-0.344,0
	c0,0.038,0,0.077,0,0.115c-0.153,0-0.306,0-0.459,0c0,0.038,0,0.076,0,0.115c-0.23,0-0.459,0-0.689,0c0,0.038,0,0.076,0,0.114
	c-0.856,0.242-3.16-0.237-3.671-0.459c0-0.038,0-0.076,0-0.115c-0.076,0-0.153,0-0.229,0c0-0.038,0-0.076,0-0.114
	c-0.115,0-0.23,0-0.344,0c-0.038-0.077-0.077-0.153-0.115-0.23c-0.229-0.076-0.459-0.153-0.688-0.229
	c-0.077-0.115-0.153-0.23-0.23-0.345c-0.076,0-0.153,0-0.229,0c-0.115-0.153-0.23-0.306-0.344-0.459
	c-0.306-0.268-0.612-0.536-0.918-0.804c0-0.076,0-0.153,0-0.229c-0.077-0.038-0.153-0.077-0.23-0.115c0-0.077,0-0.153,0-0.23
	c-0.076-0.038-0.153-0.076-0.229-0.114c-0.077-0.23-0.153-0.46-0.229-0.689c-0.039,0-0.077,0-0.115,0c0-0.077,0-0.153,0-0.23
	c-0.038,0-0.077,0-0.115,0c-0.076-0.382-0.153-0.765-0.229-1.148c-0.147-0.459-0.435-1.464-0.23-2.181c0.038,0,0.077,0,0.115,0
	c0-0.229,0-0.459,0-0.689c0.038,0,0.076,0,0.115,0c0.038-0.267,0.076-0.535,0.114-0.803c0.039,0,0.077,0,0.115,0
	c0-0.077,0-0.153,0-0.23c0.038,0,0.077,0,0.115,0c0-0.115,0-0.229,0-0.344c0.038,0,0.076,0,0.115,0c0-0.077,0-0.153,0-0.23
	c0.038,0,0.076,0,0.114,0c0-0.076,0-0.153,0-0.229c0.077-0.039,0.153-0.077,0.23-0.115c0.038-0.153,0.076-0.306,0.114-0.459
	c0.115-0.077,0.23-0.153,0.345-0.23c0-0.076,0-0.153,0-0.23c0.114-0.076,0.229-0.153,0.344-0.229
	c0.229-0.268,0.459-0.536,0.688-0.804c0.077,0,0.153,0,0.23,0c0.076-0.114,0.152-0.229,0.229-0.344c0.076,0,0.153,0,0.229,0
	c0-0.038,0-0.077,0-0.115c0.077,0,0.153,0,0.23,0c0.038-0.076,0.076-0.153,0.115-0.229c0.153-0.039,0.306-0.077,0.458-0.115
	c0-0.039,0-0.077,0-0.115c0.077,0,0.153,0,0.23,0c0-0.038,0-0.077,0-0.115c0.115,0,0.229,0,0.344,0c0-0.038,0-0.076,0-0.115
	c0.115,0,0.23,0,0.344,0c0-0.038,0-0.076,0-0.114c0.115,0,0.23,0,0.344,0c0-0.039,0-0.077,0-0.115c0.153,0,0.306,0,0.459,0
	c0-0.039,0-0.077,0-0.115c0.306,0,0.612,0,0.918,0C30.172,23.61,30.172,23.571,30.172,23.533z M30.631,25.829
	c0,0.038,0,0.077,0,0.115c-0.344,0-0.688,0-1.033,0c0,0.038,0,0.076,0,0.115c-0.114,0-0.229,0-0.344,0c0,0.038,0,0.076,0,0.114
	c-0.114,0-0.229,0-0.344,0c0,0.039,0,0.077,0,0.115c-0.229,0.077-0.459,0.153-0.688,0.23c0,0.038,0,0.076,0,0.115
	c-0.077,0-0.153,0-0.23,0c-0.038,0.076-0.076,0.153-0.114,0.229c-0.077,0-0.153,0-0.23,0c-0.153,0.192-0.306,0.383-0.459,0.574
	c-0.114,0.077-0.229,0.153-0.344,0.23c0,0.076,0,0.153,0,0.229c-0.076,0.039-0.153,0.077-0.229,0.115
	c-0.077,0.23-0.153,0.459-0.23,0.689c-0.038,0-0.076,0-0.114,0c0,0.077,0,0.153,0,0.23c-0.039,0-0.077,0-0.115,0
	c-0.038,0.306-0.077,0.612-0.115,0.918c-0.038,0-0.076,0-0.115,0c-0.211,0.74,0.178,1.769,0.345,2.181
	c0.038,0.191,0.076,0.383,0.114,0.574c0.038,0,0.077,0,0.115,0c0.038,0.115,0.076,0.23,0.115,0.344
	c0.076,0.039,0.153,0.077,0.229,0.115c0,0.077,0,0.153,0,0.23c0.23,0.191,0.459,0.382,0.688,0.574
	c0.077,0.115,0.153,0.229,0.23,0.344c0.076,0,0.153,0,0.229,0c0.039,0.077,0.077,0.153,0.115,0.23
	c0.344,0.115,0.688,0.229,1.033,0.344c0.361,0.143,1.531,0.535,2.179,0.345c0-0.039,0-0.077,0-0.115c0.191,0,0.383,0,0.574,0
	c0-0.039,0-0.077,0-0.115c0.153,0,0.306,0,0.459,0c0-0.038,0-0.077,0-0.115c0.229-0.076,0.459-0.153,0.688-0.229
	c0-0.039,0-0.077,0-0.115c0.077,0,0.153,0,0.23,0c0-0.038,0-0.077,0-0.115c0.076,0,0.153,0,0.229,0
	c0.077-0.115,0.153-0.23,0.229-0.344c0.077,0,0.153,0,0.23,0c0.115-0.153,0.229-0.307,0.344-0.46c0.038,0,0.077,0,0.115,0
	c0-0.076,0-0.153,0-0.229c0.115-0.077,0.229-0.153,0.344-0.23c0-0.076,0-0.153,0-0.229c0.076-0.039,0.153-0.077,0.229-0.115
	c0-0.077,0-0.153,0-0.23c0.039,0,0.077,0,0.115,0c0-0.115,0-0.229,0-0.344c0.038,0,0.077,0,0.115,0c0-0.077,0-0.153,0-0.23
	c0.038,0,0.076,0,0.115,0c0.116-0.302,0.256-1.969,0.114-2.41c-0.038,0-0.076,0-0.114,0c-0.039-0.23-0.077-0.46-0.115-0.689
	c-0.038,0-0.077,0-0.115,0c-0.038-0.153-0.076-0.306-0.115-0.459c-0.038,0-0.076,0-0.114,0c0-0.077,0-0.153,0-0.23
	c-0.077-0.038-0.153-0.077-0.23-0.115c0-0.076,0-0.153,0-0.229c-0.114-0.077-0.229-0.153-0.344-0.23
	c-0.229-0.268-0.459-0.536-0.688-0.804c-0.077,0-0.153,0-0.23,0c-0.038-0.076-0.076-0.153-0.114-0.229
	c-0.153-0.038-0.306-0.077-0.459-0.115c0-0.038,0-0.076,0-0.115c-0.077,0-0.153,0-0.23,0c0-0.038,0-0.076,0-0.115
	c-0.114,0-0.229,0-0.344,0c0-0.038,0-0.076,0-0.114C31.772,25.894,31.075,25.986,30.631,25.829z M14.455,28.24
	c0.497,0,0.994,0,1.491,0c0,0.038,0,0.076,0,0.115c0.555,0.25,1.104,0.399,1.262,1.033c0.254,0.216,0.109,0.24,0.23,0.574
	c0.365,1.006-0.268,1.934-0.803,2.41c-0.115,0.039-0.23,0.077-0.344,0.115c0,0.039,0,0.077,0,0.115c-0.077,0-0.153,0-0.23,0
	c0,0.038,0,0.077,0,0.115c-0.42,0.038-0.841,0.076-1.262,0.115c-0.788-0.242-1.736-0.676-1.835-1.608
	c-0.106-0.102-0.319-0.747-0.23-1.033c0.038,0,0.077,0,0.115,0c0-0.153,0-0.306,0-0.459c0.038,0,0.076,0,0.115,0
	c0.089-0.423,0.303-0.679,0.573-0.918c0-0.038,0-0.077,0-0.115c0.077,0,0.153,0,0.23,0c0.038-0.077,0.076-0.153,0.114-0.23
	c0.192-0.038,0.383-0.076,0.574-0.114C14.455,28.316,14.455,28.278,14.455,28.24z M44.283,28.24c2.137-0.047,3.229,0.574,3.212,2.64
	c-0.038,0-0.076,0-0.115,0c-0.038,0.23-0.076,0.459-0.114,0.689c-0.077,0.038-0.153,0.076-0.23,0.115c0,0.076,0,0.153,0,0.229
	c-0.153,0.115-0.306,0.23-0.459,0.345c0,0.038,0,0.076,0,0.114c-0.076,0-0.153,0-0.229,0c-0.038,0.077-0.076,0.154-0.115,0.23
	c-0.114,0-0.229,0-0.344,0c-0.525,0.521-1.615,0.01-2.18-0.115c-0.315-0.523-1.419-1.327-1.032-2.525
	c0.082-0.255,0.273-0.484,0.344-0.804c0.191-0.153,0.382-0.306,0.574-0.459c0-0.038,0-0.077,0-0.115c0.076,0,0.153,0,0.229,0
	c0-0.038,0-0.076,0-0.115C44.053,28.338,44.104,28.449,44.283,28.24z M2.524,38.686c0,1.339,0,2.679,0,4.018
	c1.338,0,2.677,0,4.015,0C6.578,40.234,4.977,38.652,2.524,38.686z M53.461,42.704c1.338,0,2.677,0,4.015,0c0-1.339,0-2.679,0-4.018
	C55.025,38.65,53.42,40.236,53.461,42.704z"/>
<g>
</g>
<g>
</g>
<g>
</g>
<g>
</g>
<g>
</g>
<g>
</g>
</svg>
