<?xml version="1.0" encoding="utf-8"?>
<!-- Generator: Adobe Illustrator 17.0.0, SVG Export Plug-In . SVG Version: 6.00 Build 0)  -->
<!DOCTYPE svg PUBLIC "-//W3C//DTD SVG 1.1//EN" "http://www.w3.org/Graphics/SVG/1.1/DTD/svg11.dtd" [
	<!ENTITY st0 "fill:#E6352D;">
]>
<svg version="1.1" id="SVG" xmlns="http://www.w3.org/2000/svg" xmlns:xlink="http://www.w3.org/1999/xlink" x="0px" y="0px"
	 width="60px" height="45px" viewBox="0 0 60 45" style="enable-background:new 0 0 60 45;" xml:space="preserve">
<path id="more" style="&st0;" d="M44.766,15.469c4.264,0,7.734-3.471,7.734-7.734S49.03,0,44.766,0s-7.734,3.471-7.734,7.734
	c0,0.377,0.036,0.746,0.089,1.11l-16.262,6.254c-1.411-1.5-3.408-2.442-5.624-2.442c-4.264,0-7.734,3.47-7.734,7.734
	c0,4.264,3.47,7.734,7.734,7.734c1.662,0,3.201-0.533,4.463-1.429l11.016,7.345C30.26,35.024,30,36.113,30,37.266
	C30,41.529,33.47,45,37.734,45s7.734-3.471,7.734-7.734c0-4.264-3.47-7.734-7.734-7.734c-2.101,0-4.006,0.844-5.401,2.209
	l-10.646-7.097c0.807-1.223,1.281-2.682,1.281-4.253c0-1.017-0.202-1.985-0.56-2.874l15.614-6.006
	C39.348,13.869,41.872,15.469,44.766,15.469z M15.234,25.312c-2.713,0-4.922-2.208-4.922-4.921c0-2.714,2.209-4.922,4.922-4.922
	s4.922,2.208,4.922,4.922C20.156,23.104,17.948,25.312,15.234,25.312z M37.734,32.344c2.713,0,4.922,2.208,4.922,4.922
	c0,2.713-2.209,4.921-4.922,4.921c-2.713,0-4.922-2.208-4.922-4.921C32.812,34.551,35.021,32.344,37.734,32.344z M44.766,2.812
	c2.713,0,4.921,2.209,4.921,4.922c0,2.713-2.208,4.922-4.921,4.922c-2.713,0-4.922-2.209-4.922-4.922
	C39.844,5.021,42.052,2.812,44.766,2.812z"/>
<g>
</g>
<g>
</g>
<g>
</g>
<g>
</g>
<g>
</g>
<g>
</g>
</svg>
