<?xml version="1.0" encoding="utf-8"?>
<!-- Generator: Adobe Illustrator 17.0.0, SVG Export Plug-In . SVG Version: 6.00 Build 0)  -->
<!DOCTYPE svg PUBLIC "-//W3C//DTD SVG 1.1//EN" "http://www.w3.org/Graphics/SVG/1.1/DTD/svg11.dtd" [
	<!ENTITY st0 "fill:#0074FF;">
	<!ENTITY st1 "fill-rule:evenodd;clip-rule:evenodd;fill:url(#麦穗_1_);">
]>
<svg version="1.1" id="LOGO_1_" xmlns="http://www.w3.org/2000/svg" xmlns:xlink="http://www.w3.org/1999/xlink" x="0px" y="0px"
	 width="86px" height="32.953px" viewBox="0 0 86 32.953" style="enable-background:new 0 0 86 32.953;" xml:space="preserve">
<path id="I_3_" style="&st0;" d="M83.496,32.392V18.264c0-0.228,0.185-0.412,0.412-0.412h1.679c0.228,0,0.412,0.185,0.412,0.412
	v14.128c0,0.228-0.185,0.412-0.412,0.412h-1.679C83.681,32.804,83.496,32.619,83.496,32.392z"/>
<path id="U_1_" style="&st0;" d="M79.06,32.804H66.495c-0.228,0-0.412-0.184-0.412-0.412V18.263c0-0.228,0.184-0.412,0.412-0.412
	h1.793c0.228,0,0.412,0.184,0.412,0.412v11.993c0,0.228,0.184,0.412,0.412,0.412h7.431c0.228,0,0.412-0.184,0.412-0.412V18.263
	c0-0.228,0.184-0.412,0.412-0.412h1.693c0.228,0,0.412,0.184,0.412,0.412v14.129C79.472,32.62,79.288,32.804,79.06,32.804z"/>
<path id="S_1_" style="&st0;" d="M61.647,32.804H48.679c-0.228,0-0.412-0.184-0.412-0.412V31.08c0-0.228,0.184-0.412,0.412-0.412
	h10.451c0.228,0,0.412-0.184,0.412-0.412v-3.448c0-0.228-0.184-0.412-0.412-0.412H48.679c-0.228,0-0.412-0.184-0.412-0.412v-7.72
	c0-0.228,0.184-0.412,0.412-0.412h12.867c0.228,0,0.412,0.184,0.412,0.412v1.312c0,0.228-0.184,0.412-0.412,0.412H51.196
	c-0.228,0-0.412,0.184-0.412,0.412v3.355c0,0.228,0.184,0.412,0.412,0.412h10.451c0.228,0,0.412,0.184,0.412,0.412v7.813
	C62.059,32.62,61.875,32.804,61.647,32.804z"/>
<path id="I_2_" style="&st0;" d="M41.74,32.392V18.264c0-0.228,0.185-0.412,0.412-0.412h1.679c0.228,0,0.412,0.185,0.412,0.412
	v14.128c0,0.228-0.185,0.412-0.412,0.412h-1.679C41.924,32.804,41.74,32.619,41.74,32.392z"/>
<path id="A_1_" style="&st0;" d="M22.441,32.194l6.368-14.128c0.06-0.132,0.174-0.215,0.299-0.215h1.805
	c0.124,0,0.238,0.081,0.298,0.212l6.478,14.128c0.126,0.275-0.038,0.612-0.298,0.612h-1.481c-0.127,0-0.244-0.086-0.302-0.222
	l-1.386-3.233c-0.059-0.137-0.175-0.222-0.302-0.222h-7.938c-0.127,0-0.244,0.086-0.302,0.222l-1.386,3.233
	c-0.059,0.137-0.175,0.222-0.302,0.222H22.74C22.482,32.804,22.318,32.469,22.441,32.194z M27.203,27.216h5.519
	c0.256,0,0.421-0.33,0.301-0.604l-2.764-6.355c-0.128-0.294-0.475-0.293-0.602,0.001l-2.755,6.355
	C26.783,26.887,26.947,27.216,27.203,27.216z"/>
<path id="M_2_" style="&st0;" d="M2.402,21.345c-0.086-0.155-0.32-0.086-0.309,0.091c0,0.003,0,0.006,0.001,0.01
	c0.019,0.321,0.028,0.745,0.028,1.273v9.674c0,0.228-0.184,0.412-0.412,0.412H0.412C0.184,32.804,0,32.62,0,32.392l0-14.128
	c0-0.228,0.184-0.412,0.412-0.412h1.418c0.13,0,0.252,0.061,0.33,0.165l6.806,9.109c0.168,0.225,0.508,0.22,0.668-0.011l6.327-9.087
	c0.077-0.111,0.203-0.177,0.338-0.177h1.664c0.228,0,0.412,0.184,0.412,0.412v14.128c0,0.228-0.184,0.412-0.412,0.412h-1.468
	c-0.228,0-0.412-0.184-0.412-0.412v-9.674c0-0.132,0.016-0.464,0.05-0.997c0.009-0.15,0.018-0.289,0.025-0.418
	c0.01-0.177-0.228-0.242-0.31-0.086c-0.053,0.102-6.208,9.167-6.208,9.167c-0.031,0.045-0.082,0.072-0.136,0.072H9.038
	c-0.052,0-0.102-0.025-0.133-0.067C8.905,30.388,2.686,21.857,2.402,21.345z"/>
<linearGradient id="麦穗_1_" gradientUnits="userSpaceOnUse" x1="20.9279" y1="7.1559" x2="65.0509" y2="7.1559">
	<stop  offset="0" style="stop-color:#FFD63F"/>
	<stop  offset="0.5" style="stop-color:#FF9F00"/>
	<stop  offset="1" style="stop-color:#FFD63F"/>
</linearGradient>
<path id="麦穗_2_" style="&st1;" d="M62.303,13.692c-0.629,0.629-1.648,0.629-2.276,0c-0.629-0.629-0.629-1.648,0-2.276
	l2.276-2.276c0.629-0.629,1.648-0.629,2.276,0c0.629,0.629,0.629,1.648,0,2.276L62.303,13.692z M42.989,6.587
	c-0.889,0-1.61-0.721-1.61-1.61V1.759c0-0.889,0.721-1.61,1.61-1.61s1.609,0.721,1.609,1.61v3.219
	C44.599,5.866,43.878,6.587,42.989,6.587z M23.675,13.692l-2.276-2.276c-0.629-0.629-0.629-1.648,0-2.276
	c0.629-0.629,1.648-0.629,2.276,0l2.276,2.276c0.628,0.629,0.628,1.648,0,2.276C25.323,14.32,24.304,14.32,23.675,13.692z"/>
<g>
</g>
<g>
</g>
<g>
</g>
<g>
</g>
<g>
</g>
<g>
</g>
<g>
</g>
<g>
</g>
<g>
</g>
<g>
</g>
<g>
</g>
<g>
</g>
<g>
</g>
<g>
</g>
<g>
</g>
</svg>
