<?xml version="1.0" encoding="utf-8"?>
<!-- Generator: Adobe Illustrator 17.0.0, SVG Export Plug-In . SVG Version: 6.00 Build 0)  -->
<!DOCTYPE svg PUBLIC "-//W3C//DTD SVG 1.1//EN" "http://www.w3.org/Graphics/SVG/1.1/DTD/svg11.dtd" [
	<!ENTITY st0 "fill:#B4BBBF;">
	<!ENTITY st1 "fill:#282828;">
]>
<svg version="1.1" id="SVG" xmlns="http://www.w3.org/2000/svg" xmlns:xlink="http://www.w3.org/1999/xlink" x="0px" y="0px"
	 width="134px" height="38px" viewBox="-10 0 134 38" style="enable-background:new -10 0 134 38;" xml:space="preserve">
<g id="qq_1_">
	<circle id="bg" style="&st0;" cx="105" cy="19" r="17"/>
	<path id="qq" style="&st1;" d="M114.48,21.43h-0.03V21.3h-0.03v-0.09h-0.03c-0.01-0.08-0.02-0.15-0.03-0.22h-0.03v-0.07h-0.04
		v-0.09h-0.03c-0.01-0.07-0.02-0.13-0.03-0.19h-0.03v-0.07h-0.03v-0.09h-0.04c-0.02-0.07-0.04-0.13-0.06-0.19h-0.03v-0.07h-0.03
		v-0.09h-0.03c-0.03-0.07-0.05-0.13-0.07-0.19h-0.03v-0.07h-0.03v-0.06h-0.03v-0.06h-0.03v-0.07h-0.04v-0.06h-0.03v-0.07
		c-0.02-0.01-0.04-0.02-0.06-0.03v-0.06h-0.03V19.4h-0.04v-0.07h-0.03v-0.06h-0.03V19.2l-0.06-0.03v-0.06
		c-0.02-0.01-0.04-0.02-0.07-0.03v-0.07c-0.02-0.01-0.04-0.02-0.06-0.03c-0.01-0.04-0.02-0.08-0.03-0.13
		c-0.02-0.01-0.04-0.02-0.06-0.03c-0.02-0.03-0.03-0.06-0.04-0.09c-0.05-0.04-0.1-0.09-0.16-0.13v-0.06
		c-0.08-0.08-0.17-0.15-0.25-0.23v-0.06h-0.03c-0.03-0.04-0.07-0.08-0.1-0.13c-0.12-0.08-0.37-0.1-0.54-0.12v-0.04h0.03
		c0.08-0.08,0.34-0.19,0.48-0.22c-0.03-0.11-0.1-0.14-0.13-0.25c-0.15-0.02-0.22-0.08-0.38-0.1v-0.35c0.27-0.04,0.5-0.17,0.8-0.19
		c-0.05-0.19-0.09-0.38-0.13-0.57h-0.03c-0.02-0.06-0.04-0.13-0.07-0.19h-0.03v-0.07c-0.02-0.01-0.04-0.02-0.06-0.03v-0.06h-0.03
		v-0.06h-0.03V15.8h-0.04v-0.06c-0.02-0.01-0.04-0.02-0.06-0.03c-0.01-0.05-0.02-0.09-0.03-0.13c-0.02-0.01-0.04-0.02-0.06-0.03
		v-0.1h-0.04c-0.02-0.22-0.04-0.44-0.06-0.67h-0.03v-0.22h-0.03V14.4h-0.04v-0.16h-0.03c-0.01-0.07-0.02-0.14-0.03-0.22h-0.03v-0.13
		h-0.03v-0.12h-0.03v-0.1h-0.04v-0.13h-0.03v-0.09h-0.03v-0.1h-0.03v-0.09h-0.03v-0.1h-0.03c-0.02-0.06-0.03-0.13-0.04-0.19h-0.03
		v-0.06h-0.03v-0.1h-0.03c-0.01-0.04-0.02-0.08-0.03-0.12h-0.04v-0.07h-0.03v-0.09h-0.03c-0.01-0.05-0.02-0.09-0.03-0.13h-0.03
		c-0.01-0.04-0.02-0.09-0.03-0.13c-0.03-0.01-0.05-0.02-0.07-0.03c-0.01-0.04-0.02-0.08-0.03-0.13c-0.02-0.01-0.04-0.02-0.06-0.03
		c-0.01-0.04-0.02-0.08-0.03-0.13c-0.03-0.01-0.05-0.02-0.07-0.03c-0.01-0.04-0.02-0.08-0.03-0.12c-0.02-0.02-0.04-0.03-0.06-0.04
		V11.7h-0.04v-0.06c-0.05-0.05-0.1-0.09-0.15-0.13v-0.07c-0.04-0.02-0.07-0.04-0.1-0.06v-0.06c-0.08-0.08-0.17-0.15-0.25-0.22v-0.07
		c-0.02-0.01-0.05-0.02-0.07-0.03c-0.02-0.03-0.04-0.06-0.06-0.1h-0.06c-0.09-0.09-0.17-0.19-0.26-0.28
		c-0.04-0.01-0.08-0.02-0.13-0.03c-0.03-0.05-0.06-0.09-0.09-0.13h-0.07c-0.01-0.02-0.02-0.04-0.03-0.06
		c-0.03-0.01-0.06-0.03-0.09-0.04v-0.03h-0.07c-0.01-0.02-0.02-0.04-0.03-0.06h-0.06c-0.01-0.02-0.02-0.04-0.03-0.06
		c-0.03-0.02-0.07-0.03-0.1-0.04v-0.03c-0.06-0.02-0.13-0.04-0.19-0.06c-0.01-0.02-0.02-0.05-0.03-0.07
		c-0.04-0.01-0.09-0.02-0.13-0.03V9.95c-0.04-0.01-0.08-0.02-0.12-0.03V9.89h-0.1V9.85c-0.04-0.01-0.08-0.02-0.13-0.03V9.79h-0.09
		V9.76c-0.04-0.01-0.09-0.02-0.13-0.03V9.7h-0.09V9.66h-0.07V9.63h-0.09V9.6h-0.1V9.57h-0.09V9.54h-0.13V9.51h-0.13V9.47h-0.13V9.44
		h-0.12V9.41h-0.16c-0.15-0.05-0.57-0.16-0.8-0.1v0.04c-0.1,0.01-0.21,0.02-0.31,0.03v0.03h-0.07v0.03
		c-0.06,0.02-0.12,0.04-0.19,0.07v0.03h-0.92V9.51c-0.04-0.02-0.08-0.03-0.13-0.04V9.44h-0.06c-0.01-0.02-0.02-0.04-0.03-0.06h-0.06
		V9.35h-0.07V9.31h-0.06V9.28h-0.07V9.25h-0.06V9.22c-0.24,0.03-0.49,0.06-0.73,0.09v0.04h-0.19v0.03h-0.13v0.03h-0.12v0.03h-0.1
		v0.03h-0.1v0.04h-0.09v0.03h-0.1v0.03h-0.09V9.6h-0.1v0.03c-0.06,0.01-0.12,0.02-0.19,0.03V9.7c-0.04,0.01-0.08,0.02-0.12,0.03
		v0.03h-0.07v0.03h-0.09v0.03c-0.05,0.01-0.09,0.02-0.13,0.03v0.04h-0.1c-0.01,0.02-0.02,0.04-0.03,0.06
		c-0.06,0.02-0.12,0.04-0.19,0.06c-0.01,0.02-0.02,0.05-0.03,0.07c-0.04,0.01-0.08,0.02-0.13,0.03v0.03
		c-0.03,0.01-0.06,0.02-0.09,0.03c-0.01,0.02-0.02,0.05-0.03,0.07h-0.07c-0.01,0.02-0.02,0.04-0.03,0.06
		c-0.03,0.01-0.06,0.02-0.09,0.03c-0.05,0.06-0.09,0.11-0.13,0.16h-0.06c-0.09,0.1-0.17,0.19-0.26,0.29h-0.06
		c-0.04,0.06-0.09,0.12-0.13,0.19c-0.14,0.13-0.27,0.25-0.41,0.38v0.06c-0.04,0.03-0.09,0.07-0.13,0.1v0.06
		c-0.04,0.03-0.08,0.07-0.13,0.1c-0.01,0.03-0.02,0.06-0.03,0.09c-0.02,0.01-0.04,0.02-0.06,0.04v0.06H100
		c-0.02,0.03-0.03,0.06-0.04,0.09c-0.02,0.01-0.04,0.03-0.06,0.04v0.06c-0.03,0.02-0.06,0.04-0.1,0.06v0.07
		c-0.02,0.01-0.04,0.02-0.06,0.03c-0.01,0.04-0.02,0.08-0.03,0.13c-0.02,0.01-0.04,0.02-0.06,0.03v0.06
		c-0.03,0.01-0.05,0.02-0.07,0.03v0.07c-0.02,0.01-0.04,0.02-0.06,0.03c-0.02,0.06-0.04,0.13-0.06,0.19h-0.04v0.06h-0.03
		c-0.02,0.07-0.04,0.13-0.06,0.19H99.3v0.1h-0.04v0.06h-0.03c-0.01,0.05-0.02,0.09-0.03,0.13h-0.03c-0.01,0.05-0.02,0.11-0.03,0.16
		h-0.03c-0.03,0.09-0.05,0.19-0.07,0.28h-0.03v0.07h-0.03v0.09h-0.03v0.1h-0.03v0.09h-0.04c-0.01,0.08-0.02,0.15-0.03,0.23h-0.03
		c-0.03,0.15-0.06,0.29-0.1,0.44h-0.03c-0.01,0.05-0.02,0.09-0.03,0.13h-0.03v0.64c-0.11,0.06-0.09,0.09-0.16,0.19
		c-0.03,0.02-0.06,0.04-0.09,0.06v0.06h-0.04c-0.01,0.02-0.02,0.05-0.03,0.07c-0.29,0.22-0.79,0.35-1.27,0.38v0.13
		c0.37,0.1,0.74,0.21,1.11,0.31c-0.02,0.11-0.06,0.09-0.09,0.19c-0.14,0.04-0.11,0.11-0.19,0.16c-0.06,0.01-0.11,0.03-0.16,0.04
		v0.03c-0.04,0.01-0.09,0.02-0.13,0.03v0.03h-0.09v0.03h-0.13v0.03c-0.1,0.04-0.22,0.01-0.29,0.07c-0.05,0.05-0.03,0.21-0.03,0.32
		h0.03v0.03c0.41,0,0.67,0.17,1.02,0.19c0.01,0.05,0.02,0.11,0.03,0.16c-0.11,0.05-0.23,0.14-0.32,0.22
		c-0.02,0.03-0.04,0.06-0.06,0.1c-0.03,0.01-0.06,0.02-0.1,0.03c-0.05,0.06-0.1,0.13-0.15,0.19h-0.07c-0.05,0.06-0.1,0.13-0.16,0.19
		c-0.11,0.11-0.23,0.21-0.35,0.32v0.06c-0.07,0.06-0.14,0.13-0.22,0.19v0.07c-0.02,0.01-0.04,0.02-0.06,0.03v0.06
		c-0.03,0.02-0.07,0.04-0.1,0.06v0.07l-0.06,0.03v0.06c-0.03,0.02-0.06,0.05-0.1,0.07v0.06c-0.02,0.01-0.04,0.02-0.06,0.03
		c-0.01,0.03-0.02,0.07-0.03,0.1h-0.03c-0.01,0.04-0.02,0.08-0.04,0.13c-0.02,0.01-0.04,0.02-0.06,0.03
		c-0.01,0.04-0.02,0.08-0.03,0.12c-0.02,0.01-0.04,0.03-0.06,0.04v0.06h-0.04v0.09h-0.03v0.07h-0.03v0.06h-0.03v0.07H95.9
		c-0.02,0.06-0.05,0.12-0.07,0.19H95.8v0.09h-0.03c-0.01,0.04-0.02,0.09-0.03,0.13h-0.03c-0.02,0.09-0.05,0.19-0.07,0.29h-0.03v0.09
		h-0.03v0.1h-0.03v0.09h-0.03v0.07h-0.04v0.09h-0.03v0.06h-0.03c-0.01,0.07-0.02,0.13-0.03,0.19c-0.02,0.02-0.04,0.03-0.06,0.04
		v0.06c-0.03,0.01-0.05,0.02-0.07,0.03v0.07c-0.04,0.03-0.08,0.06-0.13,0.09c-0.01,0.02-0.02,0.04-0.03,0.07h-0.06
		c-0.06,0.07-0.13,0.14-0.19,0.22c-0.06,0.05-0.13,0.1-0.19,0.16v0.51c0.13,0.04,0.25,0.08,0.38,0.12c0.01,0.02,0.02,0.04,0.03,0.07
		c0.04,0.01,0.09,0.02,0.13,0.03c0.01,0.02,0.02,0.04,0.03,0.06h0.06c0.01,0.02,0.02,0.04,0.04,0.06h0.06v0.04
		c0.02,0.01,0.04,0.02,0.06,0.03c0.01,0.07,0.02,0.15,0.03,0.22c0.04,0.09,0.11,0.16,0.13,0.26h0.03v-0.04
		c0.07-0.06,0.07-0.16,0.07-0.28h0.06v0.03c0.02,0.01,0.04,0.02,0.06,0.03v0.07c0.02,0.01,0.05,0.02,0.07,0.03
		c0.07,0.11,0.07,0.21,0.22,0.25v-0.03h0.09c0.02-0.02,0.03-0.04,0.04-0.06h0.06c0.01-0.03,0.02-0.05,0.03-0.07h0.07
		c0.02-0.03,0.04-0.06,0.06-0.09h0.06c0.03-0.05,0.07-0.09,0.1-0.13c0.06-0.05,0.12-0.11,0.19-0.16v-0.06
		c0.03-0.02,0.06-0.05,0.09-0.07v-0.06c0.03-0.01,0.05-0.02,0.07-0.03v-0.03c0.02-0.01,0.04-0.03,0.06-0.04
		c0.01-0.04,0.02-0.08,0.03-0.12h0.03v-0.07c0.03-0.01,0.05-0.02,0.07-0.03c0.03-0.08,0.06-0.17,0.09-0.25
		c0.02,0.01,0.05,0.02,0.07,0.03c0.03,0.03-0.04,0.07,0.03,0.06v-0.03h0.06c0.01,0.15,0.08,0.27,0.13,0.38v0.1h0.03
		c0.01,0.04,0.02,0.08,0.03,0.12h0.03v0.1h0.04v0.06h0.03v0.1h0.03v0.06c0.02,0.01,0.04,0.02,0.06,0.04v0.06h0.04v0.06h0.03v0.07
		h0.03v0.06h0.03v0.06h0.03v0.07c0.02,0.01,0.04,0.02,0.07,0.03v0.06c0.03,0.02,0.06,0.04,0.09,0.07c0.01,0.04,0.02,0.08,0.03,0.12
		c0.02,0.01,0.05,0.02,0.07,0.03c0.01,0.04,0.02,0.07,0.03,0.1c0.05,0.04,0.1,0.08,0.16,0.13v0.06c0.04,0.03,0.08,0.06,0.12,0.1
		v0.06c0.04,0.02,0.07,0.04,0.1,0.06c0.13,0.14,0.39,0.38,0.44,0.58c-0.14,0.02-0.25,0.06-0.44,0.06v0.03h0.03v0.03
		c0.02,0.02,0.2,0.03,0.1,0.07v0.03c-0.08,0.01-0.15,0.02-0.23,0.03v0.03h-0.06v0.03c-0.2,0.11-0.51,0.18-0.57,0.42h-0.06
		c-0.16,0.26-0.45,0.38-0.8,0.44v0.48c0.04,0.03,0.01,0,0.03,0.03c0.21,0.04,0.43,0.09,0.64,0.13c0.05,0.15,0.16,0.4,0.32,0.44v0.07
		c0.03,0.01,0.06,0.02,0.09,0.03v0.03h0.06c0.02,0.02,0.03,0.04,0.04,0.06h0.06c0.01,0.03,0.02,0.05,0.03,0.07
		c0.07,0.02,0.13,0.04,0.19,0.06v0.03c0.07,0.01,0.13,0.03,0.19,0.04v0.03c0.05,0.01,0.09,0.02,0.13,0.03v0.03
		c0.08,0.01,0.17,0.02,0.25,0.03v0.03h0.1v0.04h0.13v0.03h0.12v0.03h0.19c0.24,0.07,0.55,0.06,0.86,0.06h0.35v-0.03h0.16v-0.03h0.13
		v-0.03h0.16v-0.03h0.89v0.03c0.04,0.01,0.08,0.02,0.12,0.03v0.03h0.1v0.03c0.04,0.01,0.08,0.02,0.13,0.04v0.03h0.06v0.03
		c0.14-0.01,0.27-0.02,0.41-0.03v-0.03c0.18-0.04,0.36-0.07,0.54-0.1v-0.03h0.1v-0.03c0.05-0.01,0.1-0.02,0.16-0.04v-0.03h0.06
		v-0.03h0.1v-0.03H104v-0.03h0.09c0.16-0.1,0.32-0.19,0.48-0.29h0.06v-0.03h0.07c0.01-0.02,0.02-0.04,0.03-0.06h0.06
		c0.01-0.03,0.02-0.05,0.04-0.07c0.03-0.01,0.06-0.02,0.09-0.03v-0.06c0.06-0.01,0.06-0.04,0.06-0.04h0.23v-0.03h0.09v-0.03h0.54
		c0.05,0.09,0.13,0.11,0.16,0.22c0.12,0.02,0.2,0.06,0.29,0.1c0.06,0.01,0.12,0.02,0.19,0.03v0.03h0.09v0.03h0.1v0.04h0.09v0.03h0.1
		v0.03h0.09v0.03h0.13v0.03h0.1v0.04h0.16v0.03h0.15v0.03h0.13v0.03h0.13v0.03c0.16,0.01,0.32,0.02,0.47,0.03v0.04h0.35v0.03
		c0.19,0.05,0.65-0.02,0.8-0.03h0.79v0.03h0.48c0.01,0,0.01,0.04,0.06,0.03v-0.03h0.23v-0.03h0.12v-0.04h0.16v-0.03h0.16v-0.03h0.13
		v-0.03c0.08-0.01,0.17-0.02,0.25-0.03V28.4c0.07-0.01,0.13-0.03,0.19-0.04v-0.03c0.04-0.01,0.09-0.02,0.13-0.03v-0.03h0.06v-0.03
		h0.1V28.2h0.06v-0.03h0.07c0.01-0.02,0.02-0.04,0.03-0.06c0.04-0.01,0.08-0.02,0.12-0.03c0.01-0.02,0.03-0.05,0.04-0.07h0.06
		c0.02-0.03,0.04-0.06,0.06-0.09h0.03v-0.07c0.04-0.02,0.07-0.04,0.1-0.06v-0.06h0.03c0.01-0.06,0.02-0.11,0.03-0.16
		c-0.11-0.02-0.19-0.1-0.28-0.13h-0.19c-0.06-0.02-0.19-0.05-0.26-0.06v-0.07c0.3-0.05,0.6-0.1,0.89-0.15
		c-0.02-0.24-0.15-0.41-0.28-0.55c-0.01-0.02-0.02-0.04-0.04-0.06h-0.06c-0.04-0.05-0.08-0.11-0.13-0.16h-0.06
		c-0.02-0.03-0.04-0.06-0.06-0.09h-0.07c-0.01-0.02-0.02-0.05-0.03-0.07c-0.04-0.01-0.08-0.02-0.13-0.03
		c-0.01-0.02-0.02-0.04-0.03-0.06c-0.06-0.02-0.12-0.04-0.19-0.07c-0.01-0.02-0.02-0.04-0.03-0.06h-0.06v-0.03
		c-0.22-0.1-0.52-0.16-0.64-0.35c0.09-0.06,0.17-0.13,0.26-0.19c0.01-0.03,0.02-0.07,0.03-0.1c0.04-0.03,0.08-0.06,0.12-0.09v-0.07
		c0.04-0.02,0.07-0.04,0.1-0.06v-0.06c0.02-0.01,0.04-0.03,0.06-0.04v-0.06c0.02-0.01,0.05-0.02,0.07-0.03v-0.06
		c0.02-0.02,0.04-0.03,0.06-0.04v-0.06c0.02-0.01,0.04-0.02,0.06-0.03v-0.07c0.03-0.01,0.05-0.02,0.07-0.03v-0.06h0.03v-0.06
		c0.02-0.02,0.04-0.03,0.06-0.04c0.01-0.04,0.02-0.08,0.03-0.12c0.03-0.01,0.05-0.02,0.07-0.04v-0.09h0.03v-0.06h0.03v-0.1h0.03
		v-0.06h0.04v-0.1h0.03v-0.06h0.03v-0.1h0.03v-0.06h0.03c0.01-0.07,0.02-0.13,0.03-0.19c0.06-0.15,0.13-0.3,0.19-0.45h0.04v0.03
		c0.08,0.21,0.17,0.41,0.25,0.61c0.02,0.01,0.04,0.02,0.06,0.03c0.01,0.04,0.03,0.09,0.04,0.13c0.02,0.01,0.04,0.02,0.06,0.03v0.06
		c0.02,0.01,0.04,0.02,0.06,0.04v0.06h0.04v0.06c0.02,0.01,0.04,0.02,0.06,0.03v0.07c0.02,0.01,0.04,0.02,0.06,0.03
		c0.08,0.11,0.13,0.26,0.16,0.41c0.04-0.02,0.01,0.01,0.03-0.03c0.06-0.06,0.03-0.17,0.07-0.25h0.03c0.06-0.15,0.09-0.31,0.09-0.51
		h0.1v0.03c0.04,0.19,0.08,0.38,0.13,0.57h0.03c0.03-0.03,0-0.01,0.06-0.03c0.1-0.18,0.24-0.23,0.26-0.51
		c-0.07-0.05-0.08-0.12-0.13-0.19c-0.02-0.01-0.04-0.02-0.07-0.03v-0.07h-0.03c-0.02-0.03-0.04-0.06-0.06-0.09h-0.06V23.5h-0.07
		c-0.01-0.02-0.02-0.04-0.03-0.07h-0.06V23.4c-0.03-0.01-0.07-0.02-0.1-0.03v-0.92c0.04-0.02,0.09-0.04,0.13-0.06
		c0.01-0.03,0.02-0.05,0.03-0.07h0.06c0.03-0.03,0.05-0.06,0.07-0.09h0.06c0.02-0.04,0.04-0.07,0.06-0.1h0.04
		c0.01-0.02,0.02-0.04,0.03-0.06h0.06c0.03-0.05,0.07-0.09,0.1-0.13c0.07-0.07,0.16-0.08,0.19-0.19
		C114.48,21.67,114.52,21.55,114.48,21.43z M98.85,25.98v-0.03h0.03c0.03-0.02,0.29-0.07,0.29-0.07v0.03
		c0.1,0.06,0.18,0.14,0.19,0.29C99.19,26.13,99.02,26.05,98.85,25.98z"/>
</g>
<g id="wechat_1_">
	<circle id="bg_2_" style="&st0;" cx="57" cy="19" r="17"/>
	<g id="wechat">
		<path id="R" style="&st1;" d="M68.83,20.26c-0.02-0.09-0.04-0.19-0.07-0.29h-0.03c-0.01-0.06-0.02-0.11-0.03-0.16h-0.03v-0.07
			h-0.04v-0.1H68.6c-0.02-0.07-0.04-0.13-0.06-0.2H68.5v-0.06h-0.03c-0.02-0.07-0.04-0.13-0.07-0.2c-0.02-0.01-0.04-0.02-0.06-0.03
			c-0.01-0.05-0.02-0.09-0.04-0.13c-0.02-0.01-0.04-0.03-0.06-0.04c-0.01-0.04-0.02-0.08-0.03-0.13c-0.03-0.01-0.05-0.02-0.07-0.03
			v-0.07c-0.03-0.02-0.06-0.04-0.1-0.06v-0.07c-0.02-0.01-0.04-0.02-0.06-0.03v-0.07c-0.04-0.02-0.07-0.04-0.1-0.06v-0.07
			c-0.03-0.02-0.07-0.04-0.1-0.06c-0.01-0.04-0.02-0.07-0.03-0.1c-0.09-0.08-0.18-0.16-0.26-0.23v-0.07
			c-0.04-0.02-0.07-0.04-0.1-0.06c-0.07-0.08-0.14-0.16-0.2-0.23h-0.07c-0.07-0.09-0.15-0.18-0.23-0.27h-0.06
			c-0.03-0.04-0.07-0.08-0.1-0.13h-0.07c-0.02-0.03-0.04-0.06-0.06-0.1h-0.07c-0.02-0.03-0.04-0.06-0.06-0.1H66.4
			c-0.01-0.02-0.02-0.04-0.03-0.06H66.3c-0.01-0.02-0.02-0.04-0.03-0.07H66.2c-0.01-0.02-0.02-0.04-0.03-0.06h-0.06
			c-0.01-0.02-0.03-0.05-0.04-0.07h-0.06l-0.03-0.06c-0.05-0.01-0.09-0.03-0.14-0.04c-0.01-0.02-0.02-0.04-0.03-0.06h-0.06v-0.03
			h-0.07v-0.04h-0.07v-0.03h-0.06v-0.03h-0.07v-0.04h-0.06v-0.03h-0.07v-0.03h-0.06v-0.04h-0.07v-0.03
			c-0.07-0.02-0.13-0.04-0.2-0.06v-0.04h-0.09v-0.03h-0.07v-0.03h-0.1v-0.03H64.7v-0.04c-0.07-0.01-0.14-0.02-0.2-0.03v-0.03h-0.07
			v-0.04c-0.06-0.01-0.13-0.02-0.19-0.03v-0.03H64.1V15.9h-0.09v-0.04h-0.13v-0.03h-0.14V15.8h-0.13v-0.04h-0.13v-0.03h-0.16V15.7
			c-0.15-0.01-0.29-0.02-0.43-0.03c-0.41-0.12-0.96-0.1-1.48-0.1c-0.11,0.09-0.57,0.01-0.75,0.06c-0.16,0.05-0.4,0.09-0.56,0.13
			h-0.16v0.04h-0.13v0.03h-0.14v0.03h-0.13v0.04h-0.09v0.03h-0.14v0.03h-0.1v0.03h-0.09v0.04h-0.1v0.03h-0.1v0.03h-0.07v0.04h-0.09
			v0.03c-0.06,0.01-0.11,0.02-0.17,0.03v0.03h-0.06v0.04h-0.1v0.03c-0.07,0.02-0.13,0.04-0.2,0.06v0.04h-0.07v0.03H58.1v0.03h-0.07
			v0.04h-0.06v0.03H57.9v0.03h-0.06c-0.01,0.02-0.02,0.05-0.04,0.07c-0.06,0.02-0.13,0.04-0.19,0.06c-0.01,0.03-0.02,0.05-0.04,0.07
			h-0.06c-0.01,0.02-0.02,0.04-0.03,0.07h-0.07c-0.01,0.02-0.02,0.04-0.03,0.06h-0.07c-0.01,0.02-0.02,0.04-0.03,0.07h-0.07
			c-0.01,0.02-0.02,0.04-0.03,0.06h-0.07c-0.02,0.03-0.04,0.07-0.06,0.1h-0.07c-0.02,0.03-0.04,0.07-0.06,0.1h-0.07
			c-0.03,0.04-0.06,0.09-0.1,0.13h-0.06c-0.08,0.09-0.16,0.18-0.23,0.26h-0.07c-0.06,0.08-0.13,0.16-0.19,0.23
			c-0.03,0.01-0.05,0.03-0.07,0.04c-0.01,0.03-0.02,0.06-0.03,0.1c-0.07,0.05-0.13,0.1-0.2,0.16v0.06
			c-0.05,0.05-0.11,0.09-0.16,0.14c-0.01,0.03-0.03,0.06-0.04,0.09c-0.02,0.02-0.04,0.03-0.06,0.04v0.06
			c-0.02,0.01-0.05,0.03-0.07,0.04c-0.01,0.03-0.02,0.06-0.03,0.1h-0.03v0.06c-0.03,0.01-0.05,0.02-0.07,0.03v0.07
			c-0.02,0.01-0.04,0.02-0.06,0.03c-0.02,0.05-0.03,0.09-0.04,0.13c-0.02,0.01-0.04,0.03-0.06,0.04v0.06h-0.04v0.07h-0.03v0.06
			h-0.03v0.07h-0.03v0.07h-0.04v0.06h-0.03c-0.02,0.07-0.04,0.13-0.07,0.2h-0.03v0.1h-0.03v0.06h-0.03v0.1h-0.04v0.07h-0.03
			c-0.02,0.09-0.04,0.19-0.06,0.29h-0.04c-0.01,0.09-0.02,0.18-0.03,0.27c-0.3,0.89-0.17,2.25,0.13,3.02
			c0.01,0.06,0.02,0.13,0.03,0.19h0.04v0.07h0.03v0.1h0.03v0.06h0.03v0.1h0.04c0.02,0.07,0.04,0.13,0.06,0.2h0.04v0.07h0.03
			c0.01,0.04,0.02,0.08,0.03,0.13c0.02,0.01,0.05,0.02,0.07,0.03c0.02,0.07,0.04,0.13,0.06,0.2h0.04c0.01,0.03,0.02,0.06,0.03,0.1
			c0.02,0.01,0.04,0.02,0.06,0.03v0.06h0.04c0.01,0.04,0.02,0.07,0.03,0.1c0.02,0.01,0.04,0.02,0.06,0.04v0.06
			c0.04,0.02,0.07,0.04,0.1,0.07v0.06c0.04,0.02,0.07,0.05,0.1,0.07v0.06c0.07,0.06,0.13,0.11,0.2,0.17v0.06
			c0.1,0.09,0.2,0.18,0.29,0.27c0.09,0.1,0.18,0.19,0.27,0.29h0.06c0.06,0.07,0.11,0.13,0.17,0.2h0.06c0.02,0.03,0.05,0.07,0.07,0.1
			h0.06c0.03,0.03,0.05,0.06,0.07,0.1h0.06c0.03,0.03,0.05,0.06,0.07,0.1h0.07c0.01,0.02,0.02,0.04,0.03,0.06
			c0.03,0.01,0.07,0.02,0.1,0.03v0.04h0.06c0.01,0.02,0.03,0.04,0.04,0.06c0.04,0.01,0.08,0.02,0.13,0.03
			c0.01,0.03,0.02,0.05,0.03,0.07c0.07,0.02,0.13,0.04,0.2,0.07c0.01,0.02,0.02,0.04,0.03,0.06c0.07,0.02,0.13,0.05,0.2,0.07v0.03
			h0.06v0.03h0.07v0.04c0.06,0.02,0.13,0.04,0.2,0.06v0.03c0.05,0.02,0.1,0.03,0.16,0.04v0.03h0.06v0.03h0.1v0.04h0.07v0.03
			c0.1,0.02,0.2,0.04,0.29,0.06v0.04h0.1v0.03h0.1v0.03h0.1v0.04h0.1v0.03c0.13,0.02,0.26,0.04,0.39,0.07v0.03h0.17
			c0.15,0.04,0.37,0.08,0.52,0.13c0.21,0.01,0.42,0.02,0.62,0.03v0.03h0.53c0.49,0,0.94-0.01,1.31-0.13
			c0.17-0.02,0.33-0.04,0.49-0.06c0.3-0.08,0.59-0.16,0.89-0.23v0.03c0.07,0.02,0.13,0.04,0.2,0.07c0.01,0.02,0.02,0.04,0.03,0.06
			h0.07v0.04h0.06v0.03h0.07v0.03h0.06v0.03h0.07c0.01,0.03,0.02,0.05,0.03,0.07c0.07,0.02,0.13,0.04,0.2,0.06v0.04h0.06v0.03h0.07
			c0.01,0.02,0.02,0.04,0.03,0.07h0.07v0.03h0.06v0.03h0.07v0.03h0.06c0.02,0.03,0.03,0.05,0.04,0.07h0.06v0.03h0.07v0.04h0.06v0.03
			h0.07v0.03h0.07c0.01,0.02,0.02,0.05,0.03,0.07h0.06v0.03h0.07v0.03h0.06v0.04h0.07v0.03h0.07c0.01,0.02,0.02,0.04,0.03,0.06h0.07
			c0.09,0.06,0.18,0.14,0.29,0.17v-0.03H66.7c-0.01-0.07-0.02-0.14-0.04-0.2h-0.03v-0.13H66.6v-0.1h-0.03v-0.1h-0.04v-0.13H66.5
			v-0.1h-0.03v-0.1h-0.03c-0.03-0.11-0.05-0.22-0.07-0.33h-0.03c-0.03-0.11-0.05-0.22-0.07-0.33h-0.03v-0.13H66.2
			c-0.04-0.15-0.08-0.3-0.13-0.46c0.04-0.02,0.05-0.05,0.07-0.06h0.06c0.03-0.03,0.05-0.07,0.07-0.1h0.07
			c0.04-0.06,0.08-0.11,0.13-0.16h0.06c0.05-0.06,0.09-0.11,0.13-0.17h0.07c0.12-0.13,0.24-0.26,0.36-0.39
			c0.18-0.17,0.35-0.33,0.53-0.5v-0.06c0.05-0.05,0.11-0.09,0.16-0.13v-0.07c0.04-0.03,0.09-0.06,0.13-0.1V24.9
			c0.03-0.02,0.07-0.05,0.1-0.07v-0.06c0.02-0.02,0.04-0.03,0.07-0.04c0.01-0.03,0.02-0.06,0.03-0.1h0.03v-0.06
			c0.02-0.01,0.04-0.02,0.07-0.03v-0.07c0.02-0.01,0.04-0.02,0.06-0.03c0.01-0.04,0.02-0.07,0.03-0.1h0.04
			c0.02-0.07,0.04-0.13,0.06-0.2c0.03-0.01,0.05-0.02,0.07-0.03c0.02-0.07,0.04-0.13,0.07-0.2h0.03c0.02-0.06,0.04-0.13,0.06-0.2
			h0.04v-0.09h0.03v-0.07h0.03v-0.1h0.03v-0.06h0.04c0.02-0.1,0.04-0.2,0.06-0.3h0.04c0.01-0.08,0.02-0.15,0.03-0.23h0.03
			c0.01-0.11,0.02-0.22,0.03-0.33C69.19,21.89,69.02,20.75,68.83,20.26z M60.5,20.1h-0.04v0.1c-0.02,0.01-0.04,0.02-0.06,0.03v0.07
			c-0.06,0.04-0.11,0.08-0.17,0.13c-0.02,0.03-0.04,0.07-0.06,0.1H60.1v0.03c-0.06,0.02-0.13,0.04-0.2,0.07v0.03h-0.13
			c-0.06,0.02-0.29,0.09-0.39,0.06c-0.12-0.04-0.24-0.08-0.36-0.13v-0.03c-0.06-0.05-0.08-0.07-0.17-0.1
			c-0.02-0.08-0.05-0.1-0.09-0.16h-0.04v-0.07h-0.03c-0.03-0.05-0.12-0.38-0.1-0.46h0.03v-0.13h0.04v-0.1h0.03v-0.06
			c0.02-0.01,0.04-0.03,0.07-0.04v-0.06c0.06-0.06,0.13-0.11,0.19-0.17c0.01-0.02,0.02-0.04,0.04-0.06h0.06
			c0.01-0.02,0.02-0.05,0.03-0.07h0.07v-0.03c0.23-0.1,0.77-0.02,0.95,0.1c0.01,0.02,0.02,0.04,0.03,0.06h0.07
			c0.01,0.03,0.02,0.05,0.03,0.07c0.06,0.04,0.11,0.09,0.17,0.13c0.01,0.04,0.02,0.09,0.03,0.13h0.03v0.07h0.04v0.1h0.03
			C60.52,19.84,60.51,19.97,60.5,20.1z M65.19,20.03v0.1h-0.04v0.07h-0.03v0.06c-0.03,0.03-0.06,0.05-0.1,0.07
			c-0.05,0.07-0.11,0.13-0.16,0.2h-0.07v0.03c-0.06,0.02-0.13,0.04-0.19,0.07v0.03l-0.33,0.03v0.03c-0.13,0.04-0.26-0.03-0.33-0.06
			c-0.05-0.01-0.11-0.02-0.16-0.03c-0.23-0.14-0.62-0.62-0.43-1.06h0.03c0.01-0.04,0.03-0.08,0.04-0.13
			c0.02-0.01,0.04-0.02,0.06-0.03v-0.06c0.02-0.02,0.05-0.03,0.07-0.04c0.03-0.04,0.06-0.09,0.1-0.13h0.06
			c0.01-0.02,0.02-0.04,0.03-0.06c0.05-0.02,0.09-0.03,0.14-0.04v-0.03c0.07-0.04,0.2-0.02,0.26-0.07c0.11,0.01,0.22,0.03,0.33,0.04
			C64.82,19.13,65.39,19.49,65.19,20.03z"/>
		<path id="L" style="&st1;" d="M62.07,15.11c-0.02-0.12-0.04-0.24-0.07-0.36h-0.03c-0.02-0.11-0.04-0.22-0.06-0.33h-0.04v-0.07
			h-0.03c-0.01-0.06-0.02-0.13-0.03-0.2h-0.04v-0.06h-0.03c-0.01-0.06-0.02-0.11-0.03-0.17h-0.03v-0.06h-0.04v-0.07h-0.03v-0.06
			h-0.03v-0.07h-0.03V13.6h-0.04c-0.02-0.07-0.04-0.14-0.06-0.2c-0.02-0.01-0.05-0.02-0.07-0.03c-0.02-0.07-0.04-0.14-0.06-0.2
			h-0.04c-0.01-0.03-0.02-0.07-0.03-0.1c-0.02-0.01-0.04-0.02-0.07-0.03v-0.07h-0.03c-0.01-0.03-0.02-0.06-0.03-0.1
			c-0.02-0.01-0.05-0.02-0.07-0.03v-0.07c-0.03-0.02-0.06-0.04-0.1-0.06v-0.07c-0.03-0.02-0.06-0.04-0.09-0.06v-0.07
			c-0.04-0.02-0.07-0.04-0.1-0.06v-0.07c-0.07-0.05-0.13-0.11-0.2-0.16v-0.07c-0.06-0.05-0.13-0.11-0.2-0.16
			c-0.16-0.18-0.32-0.35-0.49-0.53h-0.06c-0.06-0.06-0.11-0.13-0.17-0.2h-0.06c-0.04-0.04-0.07-0.08-0.1-0.13h-0.07
			c-0.02-0.03-0.04-0.06-0.06-0.1h-0.07c-0.02-0.03-0.04-0.06-0.07-0.1h-0.06c-0.01-0.02-0.02-0.04-0.03-0.06h-0.07
			c-0.01-0.02-0.02-0.04-0.03-0.07h-0.07c-0.01-0.02-0.02-0.04-0.03-0.06h-0.07c-0.01-0.02-0.02-0.05-0.03-0.07h-0.06
			c-0.02-0.02-0.03-0.04-0.04-0.06h-0.06v-0.04h-0.07c-0.01-0.02-0.02-0.04-0.03-0.06c-0.04-0.01-0.09-0.02-0.13-0.04
			c-0.01-0.02-0.02-0.04-0.03-0.06h-0.07v-0.03h-0.07v-0.04H58.2v-0.03h-0.07v-0.03h-0.06v-0.03H58v-0.04h-0.06v-0.03h-0.07v-0.03
			H57.8v-0.04h-0.06v-0.03c-0.07-0.02-0.13-0.04-0.2-0.06V9.98h-0.1V9.95c-0.04-0.01-0.08-0.02-0.13-0.03V9.88h-0.1V9.85h-0.06V9.82
			h-0.1V9.78c-0.07-0.01-0.13-0.02-0.2-0.03V9.72h-0.06V9.69c-0.07-0.01-0.14-0.03-0.2-0.04V9.62c-0.45-0.11-0.9-0.22-1.35-0.33
			c-0.14-0.01-0.28-0.02-0.42-0.03V9.23h-0.3V9.19h-0.39V9.16h-0.49c-0.41,0-0.9-0.03-1.22,0.07c-0.24,0.02-0.48,0.04-0.72,0.06
			v0.04h-0.16v0.03h-0.17v0.03h-0.13v0.03c-0.1,0.01-0.2,0.03-0.29,0.04c-0.4,0.13-0.79,0.26-1.19,0.39v0.03H49.7v0.04h-0.1v0.03
			c-0.07,0.02-0.13,0.04-0.2,0.07v0.03h-0.06v0.03h-0.1v0.03c-0.04,0.01-0.09,0.03-0.13,0.04v0.03c-0.05,0.01-0.09,0.02-0.13,0.03
			c-0.01,0.02-0.03,0.05-0.04,0.07h-0.06v0.03h-0.07v0.03h-0.06v0.04h-0.07c-0.01,0.02-0.02,0.04-0.03,0.06
			c-0.05,0.01-0.09,0.02-0.13,0.03c-0.01,0.03-0.03,0.05-0.04,0.07c-0.04,0.01-0.08,0.02-0.13,0.03c-0.01,0.03-0.02,0.05-0.03,0.07
			h-0.07v0.03c-0.03,0.01-0.06,0.02-0.09,0.04c-0.02,0.02-0.03,0.04-0.04,0.06h-0.06c-0.01,0.02-0.02,0.04-0.04,0.07h-0.06
			c-0.02,0.03-0.04,0.06-0.07,0.09h-0.06c-0.02,0.04-0.05,0.07-0.07,0.1H47.7c-0.03,0.04-0.05,0.07-0.07,0.1h-0.07
			c-0.04,0.06-0.08,0.11-0.13,0.17h-0.06c-0.13,0.14-0.26,0.28-0.4,0.42c-0.14,0.13-0.28,0.27-0.42,0.4v0.06
			c-0.06,0.05-0.11,0.09-0.17,0.13v0.07c-0.03,0.02-0.06,0.04-0.09,0.07c-0.02,0.03-0.03,0.06-0.04,0.09
			c-0.02,0.02-0.04,0.03-0.06,0.04v0.06c-0.02,0.01-0.05,0.02-0.07,0.04v0.06c-0.03,0.02-0.06,0.05-0.1,0.07v0.06
			c-0.02,0.01-0.04,0.03-0.06,0.04v0.06h-0.04v0.07c-0.02,0.01-0.04,0.02-0.06,0.03c-0.01,0.04-0.02,0.09-0.03,0.13
			c-0.03,0.01-0.05,0.02-0.07,0.03v0.07h-0.03v0.07H45.7v0.06h-0.04v0.07h-0.03v0.06H45.6v0.07h-0.04v0.06h-0.03
			c-0.02,0.07-0.04,0.14-0.07,0.2h-0.03v0.1c-0.28,0.64-0.49,1.37-0.49,2.3c0,0.36-0.02,0.75,0.07,1.02v0.23h0.03v0.16h0.03v0.13
			h0.03v0.14h0.04v0.13h0.03c0.01,0.07,0.02,0.15,0.03,0.23h0.04v0.06h0.03c0.02,0.1,0.04,0.2,0.06,0.3h0.04v0.06h0.03
			c0.01,0.06,0.02,0.11,0.03,0.17h0.03c0.03,0.06,0.05,0.13,0.07,0.2h0.03v0.06h0.04v0.07h0.03v0.06h0.03v0.07h0.04v0.06
			c0.02,0.01,0.04,0.03,0.06,0.04c0.01,0.04,0.02,0.08,0.03,0.13c0.03,0.01,0.05,0.02,0.07,0.03c0.01,0.04,0.02,0.09,0.03,0.13h0.03
			c0.02,0.04,0.03,0.07,0.04,0.1c0.02,0.01,0.04,0.02,0.06,0.03v0.07c0.04,0.02,0.07,0.04,0.1,0.06v0.07
			c0.02,0.01,0.05,0.02,0.07,0.03v0.07c0.02,0.01,0.04,0.02,0.06,0.03v0.03c0.02,0.02,0.05,0.03,0.07,0.04v0.06
			c0.04,0.04,0.09,0.07,0.13,0.1v0.07c0.06,0.05,0.13,0.11,0.2,0.16v0.07c0.11,0.1,0.22,0.19,0.32,0.29c0.1,0.11,0.2,0.22,0.3,0.33
			h0.07c0.06,0.08,0.13,0.16,0.19,0.23h0.07c0.03,0.05,0.06,0.09,0.1,0.13h0.06c0.04,0.05,0.07,0.09,0.1,0.13h0.07
			c0.02,0.04,0.04,0.07,0.06,0.1h0.07c0.02,0.04,0.04,0.07,0.06,0.1h0.07c0.01,0.02,0.02,0.05,0.03,0.07
			c0.05,0.02,0.09,0.04,0.13,0.06c-0.28,0.86-0.57,1.71-0.85,2.57c0.12-0.03,0.18-0.09,0.26-0.14c0.05-0.01,0.09-0.02,0.13-0.03
			v-0.03h0.07v-0.03h0.06V24.5h0.07v-0.03h0.07v-0.03h0.06V24.4c0.07-0.02,0.13-0.04,0.2-0.06v-0.03c0.04-0.02,0.09-0.03,0.13-0.04
			v-0.03c0.04-0.01,0.09-0.02,0.13-0.03v-0.04c0.05-0.01,0.09-0.02,0.13-0.03v-0.03h0.07v-0.03h0.06v-0.04h0.07v-0.03h0.06v-0.03
			c0.07-0.03,0.14-0.05,0.2-0.07c0.01-0.02,0.02-0.04,0.03-0.06c0.05-0.02,0.09-0.03,0.14-0.04v-0.03h0.06v-0.03h0.07v-0.04h0.06
			v-0.03h0.07v-0.03h0.06v-0.03c0.05-0.02,0.09-0.03,0.14-0.04v-0.03c0.04-0.01,0.08-0.02,0.13-0.03v-0.04
			c0.04-0.01,0.08-0.02,0.13-0.03v-0.03h0.06v-0.03c0.07-0.03,0.13-0.05,0.2-0.07v-0.03c0.1-0.04,0.27,0.05,0.33,0.06h0.16
			c0.2,0.06,0.46,0.11,0.66,0.17c0.12,0.01,0.24,0.02,0.36,0.03v0.03c0.14,0.01,0.28,0.02,0.43,0.04c0.54,0.15,1.28,0.06,1.9,0.06
			c-0.07-0.28-0.13-0.57-0.2-0.85c-0.01-0.22-0.02-0.44-0.03-0.66H54c-0.05-0.17,0-0.5,0.03-0.62c0.01-0.21,0.02-0.42,0.03-0.63
			h0.04v-0.2h0.03v-0.16h0.03V20.4h0.03v-0.14h0.04c0.01-0.07,0.02-0.15,0.03-0.23h0.03v-0.09h0.04v-0.1h0.03
			c0.01-0.07,0.02-0.13,0.03-0.2h0.03v-0.07h0.04v-0.09h0.03v-0.07h0.03v-0.1h0.03c0.03-0.06,0.05-0.13,0.07-0.19h0.03v-0.07h0.04
			v-0.07h0.03v-0.06h0.03v-0.07h0.04c0.02-0.06,0.04-0.13,0.06-0.19c0.02-0.02,0.04-0.03,0.07-0.04c0.01-0.04,0.02-0.09,0.03-0.13
			h0.03c0.01-0.03,0.02-0.07,0.03-0.1c0.03-0.01,0.05-0.02,0.07-0.03v-0.07h0.03c0.01-0.03,0.02-0.06,0.04-0.1
			c0.02-0.01,0.04-0.02,0.06-0.03V18.1c0.03-0.03,0.07-0.05,0.1-0.07v-0.06c0.03-0.03,0.07-0.05,0.1-0.07v-0.07
			c0.03-0.02,0.06-0.04,0.1-0.06v-0.04c0.02-0.01,0.04-0.02,0.06-0.03v-0.06c0.1-0.09,0.2-0.18,0.3-0.27v-0.06
			c0.03-0.02,0.06-0.05,0.1-0.07c0.01-0.02,0.02-0.04,0.03-0.06h0.06c0.09-0.1,0.18-0.2,0.27-0.3h0.06
			c0.05-0.05,0.09-0.11,0.13-0.16h0.07c0.02-0.04,0.04-0.07,0.06-0.1h0.07c0.02-0.03,0.04-0.07,0.07-0.1h0.06
			c0.02-0.03,0.05-0.07,0.07-0.1h0.06c0.01-0.02,0.03-0.04,0.04-0.07c0.04-0.01,0.08-0.02,0.13-0.03v-0.03
			c0.03-0.01,0.06-0.02,0.1-0.03c0.01-0.03,0.02-0.05,0.03-0.07c0.04-0.01,0.09-0.02,0.13-0.03c0.01-0.02,0.02-0.05,0.03-0.07h0.07
			v-0.03h0.06v-0.03h0.07v-0.04h0.07v-0.03h0.06v-0.03h0.07V15.9h0.06v-0.04h0.07v-0.03c0.06-0.02,0.13-0.04,0.19-0.07v-0.03h0.1
			V15.7h0.07v-0.03c0.05-0.02,0.11-0.03,0.16-0.04V15.6c0.07-0.01,0.13-0.02,0.2-0.03v-0.04h0.07V15.5h0.13v-0.03h0.1v-0.03h0.09
			V15.4c0.08-0.01,0.16-0.02,0.23-0.03v-0.03h0.17V15.3h0.13v-0.03h0.16v-0.03h0.17v-0.03h0.23v-0.04h0.26v-0.03h0.43v-0.03
			c0.21-0.06,0.7,0.02,0.88,0.03c0.13,0.01,0.25,0,0.33,0.03v-0.03h0.03v-0.03C62.1,15.11,62.07,15.11,62.07,15.11z M51.63,14.38
			v0.07c-0.02,0.01-0.04,0.02-0.06,0.03v0.07c-0.05,0.03-0.09,0.06-0.13,0.1c-0.02,0.03-0.05,0.06-0.07,0.1h-0.06
			c-0.01,0.02-0.03,0.04-0.04,0.06h-0.06v0.03h-0.1v0.04h-0.1c-0.08,0.03-0.32,0.1-0.46,0.06v-0.03h-0.2v-0.03h-0.13v-0.04h-0.06
			v-0.03c-0.06-0.01-0.11-0.02-0.17-0.03c-0.01-0.02-0.02-0.05-0.03-0.07c-0.04-0.01-0.09-0.02-0.13-0.03
			c-0.04-0.05-0.09-0.11-0.13-0.16c-0.05-0.04-0.09-0.07-0.13-0.1c-0.01-0.05-0.03-0.09-0.04-0.13H49.5c-0.05-0.1-0.15-0.4-0.1-0.56
			h0.04v-0.17h0.03V13.5h0.03c0.01-0.05,0.02-0.09,0.03-0.13c0.03-0.02,0.05-0.03,0.07-0.04v-0.06c0.02-0.01,0.04-0.02,0.07-0.04
			c0.04-0.05,0.08-0.11,0.13-0.16h0.06c0.01-0.02,0.02-0.04,0.04-0.07c0.04-0.01,0.08-0.02,0.13-0.03v-0.03
			c0.12-0.04,0.24-0.09,0.36-0.13c0.66-0.01,0.91,0.03,1.18,0.42c0.02,0.02,0.04,0.03,0.06,0.04c0.02,0.05,0.03,0.11,0.04,0.16h0.03
			v0.1C51.81,13.84,51.77,14.14,51.63,14.38z M57.64,14.42h-0.03c-0.01,0.03-0.02,0.06-0.04,0.1c-0.02,0.01-0.04,0.02-0.06,0.03
			v0.06h-0.03c-0.01,0.03-0.03,0.05-0.04,0.07h-0.06c-0.02,0.03-0.05,0.07-0.07,0.1c-0.04,0.01-0.09,0.02-0.13,0.03v0.03h-0.07v0.04
			h-0.13c-0.57,0.18-1.24-0.16-1.47-0.53c-0.01-0.05-0.03-0.11-0.04-0.16h-0.03v-0.1h-0.03v-0.46h0.03c0.01-0.07,0.02-0.13,0.03-0.2
			c0.03-0.01,0.05-0.02,0.07-0.03v-0.07c0.02-0.01,0.04-0.02,0.06-0.03v-0.07c0.05-0.03,0.09-0.06,0.14-0.09V13.1h0.06
			c0.01-0.02,0.02-0.04,0.04-0.06h0.06c0.01-0.02,0.02-0.05,0.03-0.07H56v-0.03h0.06v-0.03h0.1v-0.04c0.08-0.01,0.16-0.02,0.23-0.03
			v-0.03c0.69-0.02,0.91,0.04,1.18,0.46c0.03,0.01,0.05,0.02,0.07,0.03v0.1h0.03v0.06h0.04v0.14h0.03
			C57.8,13.79,57.7,14.33,57.64,14.42z"/>
	</g>
</g>
<g id="sina_1_">
	<circle id="bg_1_" style="&st0;" cx="9" cy="19" r="17"/>
	<g id="sina">
		<path style="&st1;" d="M16.536,18.549c-0.422-0.127-0.712-0.213-0.491-0.768c0.479-1.205,0.529-2.245,0.009-2.986
			c-0.974-1.392-3.639-1.316-6.693-0.038c0-0.002-0.959,0.42-0.714-0.341c0.47-1.51,0.399-2.776-0.332-3.506
			c-1.657-1.658-6.064,0.063-9.842,3.84C-4.357,17.58-6,20.58-6,23.173c0,4.961,6.362,7.977,12.586,7.977
			c8.159,0,13.586-4.74,13.586-8.504C20.172,20.373,18.257,19.083,16.536,18.549z M6.602,29.373
			c-4.966,0.49-9.253-1.755-9.576-5.016c-0.323-3.26,3.443-6.301,8.409-6.792c4.967-0.491,9.254,1.754,9.576,5.013
			C15.334,25.841,11.569,28.882,6.602,29.373z"/>
		<path style="&st1;" d="M21.954,9.47c-1.97-2.185-4.877-3.017-7.559-2.447h-0.001c-0.621,0.133-1.016,0.744-0.884,1.363
			c0.132,0.62,0.743,1.016,1.364,0.884c1.908-0.405,3.974,0.188,5.374,1.739c1.399,1.552,1.78,3.668,1.18,5.524l0,0
			c-0.195,0.604,0.135,1.251,0.74,1.446c0.603,0.195,1.251-0.135,1.446-0.738c0-0.001,0-0.003,0-0.004
			C24.456,14.628,23.925,11.653,21.954,9.47"/>
		<path style="&st1;" d="M18.928,12.201c-0.959-1.064-2.375-1.468-3.682-1.19c-0.534,0.114-0.875,0.64-0.76,1.174
			c0.114,0.532,0.64,0.875,1.173,0.759v0.001c0.639-0.135,1.332,0.062,1.801,0.581c0.469,0.52,0.595,1.229,0.394,1.851h0.001
			c-0.167,0.519,0.117,1.077,0.636,1.245c0.52,0.166,1.077-0.117,1.245-0.637C20.146,14.714,19.889,13.265,18.928,12.201"/>
		<g>
			<path style="&st1;" d="M7.099,20.075c-2.363-0.615-5.034,0.563-6.061,2.645c-1.045,2.124-0.035,4.481,2.353,5.252
				c2.473,0.798,5.388-0.425,6.402-2.717C10.793,23.014,9.545,20.707,7.099,20.075z M5.294,25.499
				c-0.48,0.766-1.509,1.102-2.284,0.748c-0.764-0.348-0.989-1.238-0.509-1.985c0.475-0.744,1.469-1.076,2.238-0.753
				C5.517,23.84,5.766,24.725,5.294,25.499z M6.877,23.468c-0.174,0.297-0.558,0.44-0.859,0.316
				c-0.296-0.122-0.388-0.454-0.22-0.746c0.173-0.29,0.542-0.432,0.837-0.315C6.935,22.833,7.042,23.168,6.877,23.468z"/>
		</g>
	</g>
</g>
</svg>
