<?xml version="1.0" encoding="utf-8"?>
<!-- Generator: Adobe Illustrator 17.0.0, SVG Export Plug-In . SVG Version: 6.00 Build 0)  -->
<!DOCTYPE svg PUBLIC "-//W3C//DTD SVG 1.1//EN" "http://www.w3.org/Graphics/SVG/1.1/DTD/svg11.dtd" [
	<!ENTITY st0 "fill:#E6352D;">
]>
<svg version="1.1" id="SVG" xmlns="http://www.w3.org/2000/svg" xmlns:xlink="http://www.w3.org/1999/xlink" x="0px" y="0px"
	 width="60px" height="45px" viewBox="0 0 60 45" style="enable-background:new 0 0 60 45;" xml:space="preserve">
<path id="star" style="&st0;" d="M51.15,43.65C50.93,43.88,50.63,44,50.31,44s-0.62-0.12-0.84-0.35l-6.17-6.21
	c-0.47-0.47-0.47-1.24,0-1.71c0.22-0.23,0.52-0.35,0.84-0.35s0.61,0.12,0.84,0.35l6.17,6.21C51.62,42.41,51.62,43.18,51.15,43.65z
	 M49.12,23.57c-0.14,0.9-0.68,2.57-2.81,3.8c-2.23,1.29-5.64,3.15-7,3.89l-0.26,0.15l-0.14,0.26c-0.77,1.4-2.68,4.91-3.97,7.16
	c-1,1.75-2.59,2.76-4.36,2.76c-0.88,0-2.21-0.26-3.58-1.49c-1.29-1.17-3.27-3-5.86-5.44l-0.22-0.2l-0.29-0.05
	c-1.24-0.21-5.49-0.95-8.07-1.44c-1.55-0.3-2.84-1.25-3.53-2.6c-0.72-1.39-0.71-3.04,0.02-4.64c1.07-2.32,2.77-5.87,3.45-7.3
	l0.13-0.26l-0.04-0.29c-0.43-3.47-0.76-6.23-0.95-7.96c-0.15-1.47,0.33-2.96,1.32-4.07c0.97-1.08,2.35-1.7,3.79-1.7
	c0.17,0,0.34,0.01,0.52,0.03c1.75,0.17,4.47,0.48,8.08,0.9l0.29,0.04l0.27-0.13c1.76-0.86,5.05-2.44,7.25-3.46
	C33.93,1.18,34.72,1,35.51,1c2.45,0,4.51,1.76,5.01,4.27c0.51,2.49,1.17,6.22,1.44,7.71l0.05,0.29l0.21,0.22
	c1.33,1.38,3.79,3.96,5.4,5.7C49.24,20.96,49.25,22.69,49.12,23.57z M45.84,20.79c-1.94-2.11-5.22-5.52-6.08-6.41
	c-0.21-1.22-1.04-5.86-1.6-8.68c-0.28-1.4-1.35-2.33-2.66-2.33c-0.45,0-0.9,0.1-1.35,0.31c-2.65,1.23-7,3.33-8.11,3.87
	c-1.24-0.15-6.16-0.73-9.02-1.02c-0.1-0.01-0.19-0.01-0.28-0.01c-0.77,0-1.48,0.32-2,0.9c-0.54,0.6-0.8,1.4-0.72,2.19
	c0.31,2.86,0.91,7.68,1.07,8.92c-0.54,1.12-2.66,5.53-3.87,8.17c-0.53,1.16-0.33,2.01-0.07,2.52c0.36,0.69,1.03,1.17,1.85,1.33
	c2.8,0.54,7.76,1.39,9.03,1.61c0.91,0.86,4.45,4.18,6.57,6.1c0.64,0.57,1.3,0.87,1.97,0.87c0.63,0,1.55-0.27,2.28-1.55
	c1.44-2.52,3.81-6.89,4.42-8c1.08-0.59,5.29-2.89,7.83-4.35c1.19-0.68,1.54-1.5,1.63-2.07C46.85,22.36,46.55,21.56,45.84,20.79z"/>
<g>
</g>
<g>
</g>
<g>
</g>
<g>
</g>
<g>
</g>
<g>
</g>
</svg>
