<?xml version="1.0" encoding="utf-8"?>
<!-- Generator: Adobe Illustrator 17.0.0, SVG Export Plug-In . SVG Version: 6.00 Build 0)  -->
<!DOCTYPE svg PUBLIC "-//W3C//DTD SVG 1.1//EN" "http://www.w3.org/Graphics/SVG/1.1/DTD/svg11.dtd" [
	<!ENTITY st0 "fill:#E6352D;">
]>
<svg version="1.1" id="SVG" xmlns="http://www.w3.org/2000/svg" xmlns:xlink="http://www.w3.org/1999/xlink" x="0px" y="0px"
	 width="60px" height="45px" viewBox="0 0 60 45" style="enable-background:new 0 0 60 45;" xml:space="preserve">
<path id="store" style="&st0;" d="M57.287,16.579c0,2.616-2.125,4.736-4.746,4.736h-2.373c-1.419,0-2.689-0.625-3.559-1.611
	c-0.869,0.986-2.14,1.611-3.56,1.611h-1.186c-1.419,0-2.689-0.625-3.559-1.611c-0.869,0.986-2.14,1.611-3.559,1.611h-1.187
	c-1.419,0-2.689-0.625-3.559-1.611c-0.869,0.986-2.14,1.611-3.559,1.611h-1.187c-1.419,0-2.689-0.625-3.559-1.611
	c-0.869,0.986-2.14,1.611-3.559,1.611H16.95c-1.42,0-2.69-0.625-3.56-1.611c-0.869,0.986-2.14,1.611-3.559,1.611H7.459
	c-2.621,0-4.746-2.121-4.746-4.736l0.237-1.184H2.713l1.186-8.29C3.899,3.181,7.086,0,11.018,0h37.965
	c3.931,0,7.119,3.181,7.119,7.105l1.186,8.29H57.05L57.287,16.579z M54.915,15.395l-1.186-8.29c0-2.616-2.126-4.736-4.746-4.736
	H11.018c-2.621,0-4.746,2.121-4.746,4.736l-1.186,8.29h0.237l-0.237,1.184c0,1.308,1.063,2.368,2.374,2.368h2.373
	c1.31,0,2.373-1.06,2.373-2.368v-1.184v-3.553c0-0.654,0.531-1.183,1.186-1.183c0.656,0,1.186,0.529,1.186,1.183v3.553v1.184
	c0,1.308,1.063,2.368,2.374,2.368h1.186c1.31,0,2.373-1.06,2.373-2.368v-1.184v-3.553c0-0.654,0.531-1.183,1.186-1.183
	c0.655,0,1.186,0.529,1.186,1.183v3.553v1.184c0,1.308,1.063,2.368,2.373,2.368h1.187c1.31,0,2.373-1.06,2.373-2.368v-1.184v-3.553
	c0-0.654,0.531-1.183,1.186-1.183s1.186,0.529,1.186,1.183v3.553v1.184c0,1.308,1.063,2.368,2.373,2.368h1.187
	c1.31,0,2.373-1.06,2.373-2.368v-1.184v-3.553c0-0.654,0.53-1.183,1.186-1.183c0.655,0,1.186,0.529,1.186,1.183v3.553v1.184
	c0,1.308,1.063,2.368,2.373,2.368h1.186c1.311,0,2.374-1.06,2.374-2.368v-1.184v-3.553c0-0.654,0.53-1.183,1.186-1.183
	c0.655,0,1.186,0.529,1.186,1.183v3.553v1.184c0,1.308,1.062,2.368,2.373,2.368h2.373c1.311,0,2.374-1.06,2.374-2.368l-0.237-1.184
	H54.915z M5.085,42.631h7.119V27.236c0-0.654,0.531-1.184,1.186-1.184c0.656,0,1.186,0.53,1.186,1.184v15.395h16.61V31.974
	c0-1.309,1.063-2.369,2.373-2.369h5.932c1.311,0,2.373,1.06,2.373,2.369v10.657h3.56V27.236c0-0.654,0.53-1.184,1.186-1.184
	c0.655,0,1.186,0.53,1.186,1.184v15.395h7.119c0.655,0,1.186,0.53,1.186,1.184S55.57,45,54.915,45H5.085
	c-0.655,0-1.186-0.53-1.186-1.184S4.43,42.631,5.085,42.631z M33.559,42.631h5.932v-9.474c0-0.654-0.531-1.183-1.186-1.183h-3.559
	c-0.656,0-1.187,0.529-1.187,1.183V42.631z M37.119,37.895c0.655,0,1.186,0.53,1.186,1.184c0,0.654-0.531,1.184-1.186,1.184
	c-0.656,0-1.186-0.53-1.186-1.184C35.932,38.425,36.463,37.895,37.119,37.895z"/>
<g>
</g>
<g>
</g>
<g>
</g>
<g>
</g>
<g>
</g>
<g>
</g>
</svg>
