<?xml version="1.0" encoding="utf-8"?>
<!-- Generator: Adobe Illustrator 17.0.0, SVG Export Plug-In . SVG Version: 6.00 Build 0)  -->
<!DOCTYPE svg PUBLIC "-//W3C//DTD SVG 1.1//EN" "http://www.w3.org/Graphics/SVG/1.1/DTD/svg11.dtd" [
	<!ENTITY st0 "fill:#E6352D;">
]>
<svg version="1.1" id="SVG" xmlns="http://www.w3.org/2000/svg" xmlns:xlink="http://www.w3.org/1999/xlink" x="0px" y="0px"
	 width="60px" height="45px" viewBox="0 0 60 45" style="enable-background:new 0 0 60 45;" xml:space="preserve">
<path id="sun" style="&st0;" d="M51.094,23.906h-4.219c-0.776,0-1.406-0.629-1.406-1.406s0.63-1.406,1.406-1.406h4.219
	c0.776,0,1.406,0.629,1.406,1.406S51.87,23.906,51.094,23.906z M42.714,11.776c-0.274,0.275-0.635,0.412-0.994,0.412
	c-0.36,0-0.72-0.137-0.995-0.412c-0.55-0.55-0.55-1.439,0-1.989l3.196-3.197c0.548-0.55,1.439-0.55,1.989,0
	c0.549,0.55,0.549,1.439,0,1.989L42.714,11.776z M30,32.947c-5.76,0-10.447-4.686-10.447-10.447S24.24,12.053,30,12.053
	S40.447,16.739,40.447,22.5S35.76,32.947,30,32.947z M30,14.865c-4.209,0-7.634,3.425-7.634,7.635c0,4.209,3.425,7.634,7.634,7.634
	s7.634-3.425,7.634-7.634C37.634,18.29,34.209,14.865,30,14.865z M30,7.031c-0.776,0-1.406-0.629-1.406-1.406V1.406
	C28.594,0.629,29.224,0,30,0s1.406,0.629,1.406,1.406v4.219C31.406,6.402,30.776,7.031,30,7.031z M18.28,12.187
	c-0.359,0-0.72-0.137-0.994-0.412L14.09,8.579c-0.549-0.55-0.549-1.439,0-1.989c0.55-0.55,1.441-0.55,1.989,0l3.196,3.197
	c0.55,0.55,0.55,1.439,0,1.989C19,12.05,18.64,12.187,18.28,12.187z M14.531,22.5c0,0.777-0.63,1.406-1.406,1.406H8.906
	C8.13,23.906,7.5,23.277,7.5,22.5s0.63-1.406,1.406-1.406h4.219C13.901,21.094,14.531,21.723,14.531,22.5z M17.286,33.225
	c0.548-0.55,1.439-0.55,1.989,0c0.55,0.55,0.55,1.439,0,1.989l-3.196,3.197c-0.274,0.275-0.634,0.412-0.994,0.412
	c-0.36,0-0.72-0.137-0.995-0.412c-0.549-0.55-0.549-1.439,0-1.989L17.286,33.225z M30,37.969c0.776,0,1.406,0.629,1.406,1.406v4.219
	C31.406,44.371,30.776,45,30,45s-1.406-0.629-1.406-1.406v-4.219C28.594,38.598,29.224,37.969,30,37.969z M42.714,33.225
	l3.196,3.197c0.549,0.55,0.549,1.439,0,1.989c-0.275,0.275-0.635,0.412-0.995,0.412s-0.72-0.137-0.994-0.412l-3.196-3.197
	c-0.55-0.55-0.55-1.439,0-1.989C41.275,32.676,42.166,32.676,42.714,33.225z"/>
<g>
</g>
<g>
</g>
<g>
</g>
<g>
</g>
<g>
</g>
<g>
</g>
</svg>
