<?xml version="1.0" encoding="utf-8"?>
<!-- Generator: Adobe Illustrator 17.0.0, SVG Export Plug-In . SVG Version: 6.00 Build 0)  -->
<!DOCTYPE svg PUBLIC "-//W3C//DTD SVG 1.1//EN" "http://www.w3.org/Graphics/SVG/1.1/DTD/svg11.dtd" [
	<!ENTITY st0 "fill:#E6352D;">
]>
<svg version="1.1" id="SVG" xmlns="http://www.w3.org/2000/svg" xmlns:xlink="http://www.w3.org/1999/xlink" x="0px" y="0px"
	 width="60px" height="45px" viewBox="0 0 60 45" style="enable-background:new 0 0 60 45;" xml:space="preserve">
<path id="wallet" style="&st0;" d="M45.055,12.189c2.53-0.021,5.289-0.21,6.755,0.827c0.138,0.184,0.276,0.368,0.414,0.551
	c0.184,0.138,0.367,0.276,0.551,0.414c0.959,1.426,0.69,4.248,0.69,6.615c0,4.915,0,9.831,0,14.746c0,1.469,0,2.94,0,4.41
	c-0.001,0.686,0.021,1.299-0.138,1.791c0,0.184,0,0.368,0,0.551c-0.046,0-0.092,0-0.138,0c0,0.092,0,0.184,0,0.276
	c-0.046,0-0.092,0-0.138,0c0,0.138,0,0.276,0,0.413c-0.092,0.046-0.184,0.092-0.276,0.138c0,0.092,0,0.184,0,0.276
	c-0.138,0.092-0.276,0.184-0.413,0.276c-0.046,0.137-0.092,0.275-0.138,0.413c-0.092,0-0.184,0-0.276,0
	c-0.092,0.138-0.184,0.276-0.276,0.413c-0.092,0-0.184,0-0.275,0c-0.046,0.092-0.092,0.184-0.138,0.276c-0.138,0-0.276,0-0.414,0
	c0,0.046,0,0.092,0,0.138c-0.092,0-0.184,0-0.276,0c0,0.046,0,0.092,0,0.138c-0.183,0-0.367,0-0.551,0
	c-0.493,0.157-1.106,0.137-1.792,0.137c-1.609,0-3.218,0-4.826,0c-8.271,0-16.545,0-24.816,0c-2.849,0-5.699,0-8.548,0
	c0-0.045,0-0.091,0-0.137c-0.184,0-0.367,0-0.551,0c0-0.046,0-0.092,0-0.138c-0.092,0-0.184,0-0.276,0c0-0.046,0-0.092,0-0.138
	c-0.138,0-0.276,0-0.414,0c-0.046-0.092-0.092-0.184-0.138-0.276c-0.091,0-0.183,0-0.275,0c-0.092-0.137-0.184-0.275-0.276-0.413
	c-0.138-0.046-0.276-0.092-0.414-0.138c0-0.092,0-0.184,0-0.275c-0.137-0.092-0.275-0.184-0.413-0.276c0-0.092,0-0.184,0-0.276
	c-0.092-0.046-0.184-0.092-0.276-0.138c0-0.137,0-0.275,0-0.413c-0.046,0-0.092,0-0.138,0c0-0.092,0-0.184,0-0.276
	c-0.046,0-0.092,0-0.138,0c-0.411-1.055-0.138-2.968-0.138-4.272c0-2.894,0-5.788,0-8.682c0-5.053,0-10.107,0-15.159
	c0-1.47,0-2.94,0-4.41c0.046,0,0.092,0,0.138,0c0-0.184,0-0.368,0-0.552c0.046,0,0.092,0,0.138,0
	c0.046-0.183,0.092-0.367,0.138-0.551c0.046,0,0.092,0,0.138,0c0-0.092,0-0.184,0-0.275c0.092-0.046,0.184-0.092,0.276-0.138
	c0-0.092,0-0.184,0-0.276c0.229-0.184,0.459-0.367,0.689-0.551c0.046-0.092,0.092-0.184,0.138-0.276c0.092,0,0.184,0,0.276,0
	C8.566,6.86,8.612,6.769,8.657,6.677c0.138-0.046,0.276-0.092,0.414-0.138c0-0.046,0-0.092,0-0.138
	c0.23-0.046,0.46-0.092,0.689-0.138c0-0.046,0-0.092,0-0.138c0.092,0,0.184,0,0.276,0c0-0.046,0-0.091,0-0.137
	c0.322-0.046,0.644-0.092,0.965-0.138c0-0.046,0-0.092,0-0.138c0.276,0,0.552,0,0.827,0c0-0.046,0-0.092,0-0.138
	c0.23,0,0.46,0,0.69,0c0-0.046,0-0.092,0-0.138c0.23,0,0.459,0,0.689,0c0-0.046,0-0.092,0-0.137c0.23,0,0.46,0,0.689,0
	c0-0.046,0-0.092,0-0.138c0.736-0.092,1.471-0.184,2.206-0.276c0.817-0.253,1.938-0.443,2.758-0.689
	c0.505-0.046,1.011-0.092,1.516-0.138c1.041-0.323,2.402-0.513,3.447-0.827c0.276,0,0.551,0,0.827,0c0-0.046,0-0.092,0-0.137
	c0.689-0.092,1.379-0.184,2.068-0.276c2.454-0.762,5.39-0.902,7.859-1.654c0.689-0.092,1.378-0.184,2.068-0.275
	c0-0.046,0-0.092,0-0.138c0.229,0,0.459,0,0.689,0c0-0.046,0-0.092,0-0.138c0.23,0,0.46,0,0.689,0c0-0.046,0-0.092,0-0.138
	c0.23,0,0.46,0,0.69,0c0-0.046,0-0.092,0-0.138c0.275,0,0.551,0,0.827,0c0.359-0.107,1.181-0.455,1.792-0.275
	c0,0.046,0,0.092,0,0.137c0.184,0,0.368,0,0.552,0c0,0.046,0,0.092,0,0.138c0.137,0,0.275,0,0.413,0c0,0.046,0,0.092,0,0.138
	c0.184,0.046,0.368,0.092,0.552,0.138c0,0.046,0,0.092,0,0.138c0.092,0,0.184,0,0.275,0c0.138,0.183,0.276,0.367,0.414,0.551
	c0.23,0.184,0.46,0.368,0.689,0.551c0,0.092,0,0.184,0,0.276c0.092,0.046,0.184,0.092,0.276,0.138c0,0.092,0,0.183,0,0.275
	c0.046,0,0.092,0,0.138,0c0.046,0.276,0.092,0.552,0.138,0.827c0.046,0,0.092,0,0.138,0c0.046,1.011,0.092,2.022,0.138,3.032
	C45.055,8.33,45.055,10.26,45.055,12.189z M43.124,12.189c0-2.756,0-5.513,0-8.269c-0.098-0.305-0.329-0.58-0.413-0.964
	c-0.459-0.282-0.823-0.785-1.379-0.965c-0.66-0.213-2.332,0.28-2.757,0.413c-1.654,0.276-3.309,0.552-4.963,0.827
	c-1.04,0.329-2.403,0.509-3.447,0.827c-0.276,0-0.552,0-0.827,0c-2.624,0.806-5.785,0.994-8.41,1.792c-0.276,0-0.552,0-0.827,0
	c-0.819,0.25-1.941,0.433-2.758,0.689c-0.735,0.092-1.47,0.184-2.206,0.275c-0.819,0.25-1.94,0.434-2.757,0.69
	c-0.551,0.091-1.103,0.183-1.654,0.275c0,0.046,0,0.092,0,0.138c-0.092,0-0.184,0-0.276,0c0,0.046,0,0.092,0,0.138
	c-0.138,0-0.276,0-0.414,0C9.99,8.147,9.944,8.239,9.898,8.33c-0.092,0-0.184,0-0.275,0C9.577,8.422,9.531,8.514,9.485,8.606
	c-0.23,0.184-0.46,0.368-0.69,0.551C8.636,9.389,8.791,9.468,8.52,9.709c0,1.056,0,2.113,0,3.169c0.046,0,0.092,0,0.137,0
	c0.3-0.341,0.5-0.24,0.966-0.413c0-0.046,0-0.092,0-0.138c0.229,0,0.459,0,0.689,0c0-0.046,0-0.092,0-0.138c2.435,0,4.871,0,7.307,0
	C26.12,12.189,34.623,12.189,43.124,12.189z M8.52,17.839c14.336,0,28.678,0,43.014,0c0.017-0.566,0.149-1.752-0.137-2.067
	c-0.393-1.793-2.106-1.653-4.274-1.653c-1.93,0-3.861,0-5.791,0c-7.49,0-14.982,0-22.472,0c-2.849,0-5.699,0-8.548,0
	c-0.414,0.229-0.827,0.459-1.241,0.689c-0.232,0.293-0.259,0.709-0.551,0.964C8.52,16.461,8.52,17.15,8.52,17.839z M8.52,19.769
	c0,1.24,0,2.481,0,3.721c14.336,0,28.678,0,43.014,0c0-1.24,0-2.481,0-3.721C37.198,19.769,22.856,19.769,8.52,19.769z M8.52,25.281
	c0,3.262,0,6.524,0,9.785c0,2.231-0.048,4.742,0.137,6.753c0.417,0.272,0.065,0.133,0.276,0.413c0.046,0,0.092,0,0.138,0
	c0.092,0.138,0.184,0.276,0.276,0.414c0.092,0,0.184,0,0.276,0c0.046,0.092,0.091,0.183,0.137,0.275c0.138,0,0.276,0,0.414,0
	c0,0.046,0,0.092,0,0.138c3.676,0,7.353,0,11.029,0c6.158,0,12.317,0,18.475,0c3.492,0,7.354,0.163,10.616-0.138
	c0.272-0.416,0.133-0.065,0.413-0.275c0-0.046,0-0.092,0-0.138c0.138-0.092,0.276-0.184,0.414-0.276c0-0.092,0-0.184,0-0.275
	c0.092-0.046,0.184-0.092,0.276-0.138c0-0.138,0-0.276,0-0.414c0.045,0,0.091,0,0.137,0c0-5.374,0-10.75,0-16.124
	C37.198,25.281,22.856,25.281,8.52,25.281z"/>
<g>
</g>
<g>
</g>
<g>
</g>
<g>
</g>
<g>
</g>
<g>
</g>
</svg>
