<?xml version="1.0" encoding="utf-8"?>
<!-- Generator: Adobe Illustrator 17.0.0, SVG Export Plug-In . SVG Version: 6.00 Build 0)  -->
<!DOCTYPE svg PUBLIC "-//W3C//DTD SVG 1.1//EN" "http://www.w3.org/Graphics/SVG/1.1/DTD/svg11.dtd">
<svg version="1.1" id="SVG" xmlns="http://www.w3.org/2000/svg" xmlns:xlink="http://www.w3.org/1999/xlink" x="0px" y="0px"
	 width="60px" height="45px" viewBox="0 0 60 45" enable-background="new 0 0 60 45" xml:space="preserve">
<path id="write" fill="#006AD3" d="M49.964,8.692l-1.508,1.528l-0.082-0.084c-0.004,0.105-0.031,0.204-0.102,0.276l-0.657,0.667
	c-0.182,0.184-0.521,0.138-0.759-0.103l-5.724-5.744c-0.238-0.24-0.283-0.584-0.101-0.769l0.657-0.666
	c0.084-0.085,0.202-0.115,0.327-0.106l-0.133-0.135l1.508-1.528c1.452-1.472,3.807-1.472,5.259,0l1.315,1.333
	C51.416,4.833,51.416,7.22,49.964,8.692z M48.649,4.694l-1.315-1.333c-0.726-0.736-1.903-0.736-2.63,0l-1.39,1.409l3.965,3.978
	l1.37-1.388C49.375,6.623,49.375,5.43,48.649,4.694z M44.49,11.576l0.022-0.023l1.315,1.333l-0.336,0.34
	c-0.004,0.004-0.004,0.01-0.008,0.014l-0.657,0.666c-0.004,0.004-0.01,0.004-0.013,0.008L29.686,29.247
	c-0.004,0.004-0.004,0.01-0.008,0.014l-0.658,0.666c-0.007,0.007-0.018,0.009-0.026,0.015l0.029,0.027l-9.885,3.828l3.035-10.17
	l0.199,0.184c-0.068-0.186-0.056-0.377,0.064-0.499l0.408-0.414l-0.021-0.022l16.43-16.654l1.314,1.333l-0.042,0.043L44.49,11.576z
	 M21.039,31.813l6.199-3.041l-3.588-3.599L21.039,31.813z M39.21,8.93L24.72,23.618l3.964,3.978l14.491-14.688L39.21,8.93z
	 M10.822,7.451v32.75c0,1.105,0.895,2,2,2h32.25c1.105,0,2-0.895,2-2V15.795h1.625l0.219,0.222v24.059c0,2.209-1.791,4-4,4H12.947
	c-2.209,0-4-1.791-4-4V7.545c0-2.209,1.791-4,4-4h22.969v1.906H12.822C11.717,5.451,10.822,6.346,10.822,7.451z"/>
</svg>
